<svg width="238" height="264" viewBox="0 0 238 264" fill="none" xmlns="http://www.w3.org/2000/svg">
<g clip-path="url(#clip0)">
<mask id="mask0" mask-type="alpha" maskUnits="userSpaceOnUse" x="0" y="0" width="238" height="264">
<rect width="238" height="264" fill="#C4C4C4"/>
</mask>
<g mask="url(#mask0)">
<rect width="483" height="264" rx="15" fill="#0D0D0D"/>
<path d="M0 14.08C0 6.30383 6.30383 0 14.08 0H468.92C476.696 0 483 6.30383 483 14.08H0Z" fill="#404040"/>
<line x1="46.3574" y1="225.66" x2="463.133" y2="225.66" stroke="#808080"/>
<line x1="46.2891" y1="225.719" x2="46.2891" y2="56.7588" stroke="#808080"/>
<path d="M23.529 222.635C23.529 223.395 23.4083 223.963 23.1669 224.338C22.9275 224.713 22.5604 224.9 22.0656 224.9C21.5909 224.9 21.2299 224.709 20.9824 224.326C20.735 223.941 20.6113 223.377 20.6113 222.635C20.6113 221.869 20.731 221.301 20.9704 220.93C21.2097 220.559 21.5748 220.373 22.0656 220.373C22.5444 220.373 22.9074 220.567 23.1548 220.954C23.4043 221.341 23.529 221.901 23.529 222.635ZM21.1182 222.635C21.1182 223.275 21.1937 223.741 21.3445 224.034C21.4954 224.325 21.7357 224.47 22.0656 224.47C22.3995 224.47 22.6409 224.323 22.7898 224.028C22.9406 223.731 23.016 223.267 23.016 222.635C23.016 222.004 22.9406 221.541 22.7898 221.249C22.6409 220.954 22.3995 220.806 22.0656 220.806C21.7357 220.806 21.4954 220.952 21.3445 221.243C21.1937 221.531 21.1182 221.996 21.1182 222.635Z" fill="white"/>
<path d="M62.6557 240.958C62.4665 240.958 62.3176 240.931 62.209 240.877V240.441C62.3518 240.481 62.5007 240.501 62.6557 240.501C62.8548 240.501 63.0058 240.441 63.1084 240.321C63.213 240.2 63.2653 240.027 63.2653 239.8V235.403H63.7784V239.758C63.7784 240.139 63.6818 240.434 63.4886 240.642C63.2955 240.853 63.0178 240.958 62.6557 240.958Z" fill="white"/>
<path d="M66.8802 239.8L66.7806 239.331H66.7565C66.5915 239.538 66.4265 239.678 66.2615 239.752C66.0985 239.824 65.8943 239.86 65.6488 239.86C65.3209 239.86 65.0633 239.776 64.8762 239.608C64.6911 239.439 64.5986 239.2 64.5986 238.889C64.5986 238.223 65.1328 237.874 66.2012 237.842L66.7625 237.824V237.62C66.7625 237.361 66.7062 237.17 66.5935 237.048C66.4828 236.924 66.3048 236.862 66.0593 236.862C65.7837 236.862 65.4718 236.946 65.1237 237.114L64.9698 236.732C65.1328 236.644 65.3108 236.575 65.504 236.525C65.6991 236.475 65.8943 236.45 66.0895 236.45C66.4838 236.45 66.7756 236.537 66.9647 236.711C67.1559 236.886 67.2514 237.165 67.2514 237.55V239.8H66.8802ZM65.7484 239.448C66.0603 239.448 66.3048 239.363 66.4818 239.193C66.6609 239.022 66.7504 238.784 66.7504 238.477V238.179L66.2494 238.2C65.8511 238.214 65.5633 238.276 65.3863 238.387C65.2112 238.495 65.1237 238.664 65.1237 238.895C65.1237 239.075 65.178 239.213 65.2867 239.307C65.3973 239.401 65.5513 239.448 65.7484 239.448Z" fill="white"/>
<path d="M70.5193 239.8V237.668C70.5193 237.399 70.4579 237.198 70.3352 237.066C70.2124 236.934 70.0203 236.868 69.7587 236.868C69.4127 236.868 69.1591 236.961 68.9982 237.147C68.8372 237.334 68.7567 237.642 68.7567 238.071V239.8H68.2557V236.504H68.6632L68.7447 236.955H68.7688C68.8714 236.792 69.0153 236.667 69.2004 236.579C69.3855 236.489 69.5917 236.444 69.8191 236.444C70.2175 236.444 70.5173 236.54 70.7185 236.732C70.9197 236.923 71.0203 237.229 71.0203 237.65V239.8H70.5193Z" fill="white"/>
<path d="M94.7318 239.8H94.2188V235.403H96.6785V235.857H94.7318V237.466H96.5608V237.92H94.7318V239.8Z" fill="white"/>
<path d="M98.7029 239.86C98.2139 239.86 97.8276 239.712 97.5439 239.415C97.2622 239.118 97.1214 238.706 97.1214 238.179C97.1214 237.648 97.2522 237.226 97.5137 236.913C97.7773 236.6 98.1304 236.444 98.5731 236.444C98.9876 236.444 99.3155 236.58 99.557 236.853C99.7984 237.123 99.9191 237.481 99.9191 237.926V238.242H97.6405C97.6506 238.629 97.7482 238.923 97.9333 239.123C98.1204 239.324 98.3829 239.424 98.721 239.424C99.0771 239.424 99.4292 239.35 99.7773 239.202V239.647C99.6002 239.723 99.4322 239.777 99.2733 239.809C99.1163 239.843 98.9262 239.86 98.7029 239.86ZM98.5671 236.862C98.3015 236.862 98.0892 236.948 97.9302 237.12C97.7733 237.293 97.6807 237.531 97.6526 237.836H99.3819C99.3819 237.521 99.3115 237.281 99.1707 237.114C99.0298 236.946 98.8286 236.862 98.5671 236.862Z" fill="white"/>
<path d="M101.47 239.8L100.214 236.504H100.751L101.464 238.459C101.625 238.916 101.719 239.213 101.747 239.349H101.772C101.794 239.243 101.863 239.023 101.98 238.69C102.098 238.356 102.363 237.627 102.774 236.504H103.311L102.055 239.8H101.47Z" fill="white"/>
<path d="M127.054 239.8L125.557 235.902H125.533C125.561 236.211 125.575 236.578 125.575 237.003V239.8H125.102V235.403H125.874L127.272 239.03H127.296L128.705 235.403H129.472V239.8H128.959V236.967C128.959 236.642 128.973 236.289 129.001 235.908H128.977L127.468 239.8H127.054Z" fill="white"/>
<path d="M132.613 239.8L132.513 239.331H132.489C132.324 239.538 132.159 239.678 131.994 239.752C131.831 239.824 131.627 239.86 131.381 239.86C131.053 239.86 130.796 239.776 130.609 239.608C130.424 239.439 130.331 239.2 130.331 238.889C130.331 238.223 130.865 237.874 131.934 237.842L132.495 237.824V237.62C132.495 237.361 132.439 237.17 132.326 237.048C132.215 236.924 132.037 236.862 131.792 236.862C131.516 236.862 131.204 236.946 130.856 237.114L130.702 236.732C130.865 236.644 131.043 236.575 131.237 236.525C131.432 236.475 131.627 236.45 131.822 236.45C132.216 236.45 132.508 236.537 132.697 236.711C132.888 236.886 132.984 237.165 132.984 237.55V239.8H132.613ZM131.481 239.448C131.793 239.448 132.037 239.363 132.214 239.193C132.393 239.022 132.483 238.784 132.483 238.477V238.179L131.982 238.2C131.584 238.214 131.296 238.276 131.119 238.387C130.944 238.495 130.856 238.664 130.856 238.895C130.856 239.075 130.911 239.213 131.019 239.307C131.13 239.401 131.284 239.448 131.481 239.448Z" fill="white"/>
<path d="M135.497 236.444C135.644 236.444 135.776 236.456 135.893 236.48L135.823 236.943C135.686 236.913 135.566 236.898 135.461 236.898C135.194 236.898 134.964 237.006 134.773 237.223C134.584 237.439 134.489 237.709 134.489 238.032V239.8H133.988V236.504H134.402L134.459 237.114H134.483C134.606 236.9 134.754 236.734 134.927 236.618C135.1 236.502 135.29 236.444 135.497 236.444Z" fill="white"/>
<path d="M159.661 239.801L159.112 238.402H157.344L156.8 239.801H156.281L158.026 235.385H158.457L160.193 239.801H159.661ZM158.952 237.942L158.439 236.579C158.373 236.407 158.304 236.195 158.234 235.945C158.19 236.137 158.126 236.349 158.044 236.579L157.525 237.942H158.952Z" fill="white"/>
<path d="M162.232 236.45C162.667 236.45 163.004 236.598 163.243 236.895C163.485 237.19 163.605 237.608 163.605 238.149C163.605 238.691 163.484 239.112 163.24 239.413C162.999 239.712 162.663 239.861 162.232 239.861C162.017 239.861 161.82 239.822 161.641 239.744C161.464 239.663 161.315 239.541 161.194 239.377H161.158L161.052 239.801H160.693V235.121H161.194V236.258C161.194 236.512 161.186 236.741 161.17 236.943H161.194C161.427 236.614 161.773 236.45 162.232 236.45ZM162.16 236.868C161.818 236.868 161.571 236.966 161.42 237.163C161.269 237.357 161.194 237.686 161.194 238.149C161.194 238.613 161.271 238.945 161.426 239.145C161.581 239.344 161.83 239.443 162.172 239.443C162.48 239.443 162.709 239.332 162.86 239.109C163.011 238.884 163.086 238.563 163.086 238.143C163.086 237.714 163.011 237.395 162.86 237.184C162.709 236.973 162.476 236.868 162.16 236.868Z" fill="white"/>
<path d="M165.962 236.444C166.109 236.444 166.24 236.456 166.357 236.48L166.288 236.943C166.151 236.913 166.03 236.898 165.926 236.898C165.658 236.898 165.429 237.007 165.237 237.223C165.048 237.44 164.954 237.709 164.954 238.032V239.801H164.453V236.504H164.866L164.924 237.115H164.948C165.07 236.9 165.218 236.735 165.391 236.618C165.564 236.502 165.754 236.444 165.962 236.444Z" fill="white"/>
<path d="M189.826 239.8L188.329 235.901H188.305C188.333 236.21 188.347 236.577 188.347 237.002V239.8H187.873V235.402H188.646L190.043 239.03H190.067L191.477 235.402H192.243V239.8H191.73V236.966C191.73 236.641 191.744 236.288 191.772 235.907H191.748L190.239 239.8H189.826Z" fill="white"/>
<path d="M195.384 239.8L195.285 239.33H195.261C195.096 239.537 194.931 239.677 194.766 239.751C194.603 239.824 194.398 239.86 194.153 239.86C193.825 239.86 193.567 239.775 193.38 239.607C193.195 239.439 193.103 239.199 193.103 238.888C193.103 238.222 193.637 237.874 194.705 237.841L195.267 237.823V237.619C195.267 237.36 195.21 237.17 195.098 237.047C194.987 236.923 194.809 236.861 194.563 236.861C194.288 236.861 193.976 236.945 193.628 237.114L193.474 236.732C193.637 236.643 193.815 236.574 194.008 236.524C194.203 236.474 194.398 236.449 194.594 236.449C194.988 236.449 195.28 236.536 195.469 236.711C195.66 236.885 195.755 237.165 195.755 237.55V239.8H195.384ZM194.253 239.448C194.564 239.448 194.809 239.362 194.986 239.192C195.165 239.022 195.254 238.783 195.254 238.476V238.178L194.753 238.199C194.355 238.213 194.067 238.276 193.89 238.386C193.715 238.494 193.628 238.664 193.628 238.894C193.628 239.075 193.682 239.212 193.791 239.306C193.901 239.401 194.055 239.448 194.253 239.448Z" fill="white"/>
<path d="M197.261 239.8H196.76V236.503H197.261V239.8ZM196.718 235.61C196.718 235.495 196.746 235.412 196.802 235.36C196.858 235.306 196.929 235.279 197.013 235.279C197.094 235.279 197.163 235.306 197.222 235.36C197.28 235.414 197.309 235.497 197.309 235.61C197.309 235.722 197.28 235.806 197.222 235.862C197.163 235.916 197.094 235.944 197.013 235.944C196.929 235.944 196.858 235.916 196.802 235.862C196.746 235.806 196.718 235.722 196.718 235.61Z" fill="white"/>
<path d="M219.474 240.958C219.285 240.958 219.136 240.931 219.027 240.877V240.441C219.17 240.481 219.319 240.501 219.474 240.501C219.673 240.501 219.824 240.441 219.927 240.321C220.031 240.2 220.084 240.027 220.084 239.8V235.403H220.597V239.758C220.597 240.139 220.5 240.434 220.307 240.642C220.114 240.853 219.836 240.958 219.474 240.958Z" fill="white"/>
<path d="M222.135 236.504V238.642C222.135 238.911 222.197 239.111 222.319 239.244C222.442 239.376 222.634 239.442 222.896 239.442C223.242 239.442 223.494 239.348 223.653 239.16C223.814 238.971 223.895 238.663 223.895 238.236V236.504H224.396V239.8H223.982L223.91 239.358H223.883C223.78 239.521 223.637 239.645 223.454 239.731C223.273 239.817 223.066 239.86 222.832 239.86C222.43 239.86 222.128 239.765 221.927 239.575C221.728 239.384 221.628 239.079 221.628 238.66V236.504H222.135Z" fill="white"/>
<path d="M227.694 239.8V237.668C227.694 237.399 227.632 237.198 227.51 237.066C227.387 236.934 227.195 236.868 226.933 236.868C226.587 236.868 226.334 236.961 226.173 237.147C226.012 237.334 225.931 237.642 225.931 238.071V239.8H225.43V236.504H225.838L225.919 236.955H225.943C226.046 236.792 226.19 236.667 226.375 236.579C226.56 236.489 226.766 236.444 226.994 236.444C227.392 236.444 227.692 236.54 227.893 236.732C228.094 236.923 228.195 237.229 228.195 237.65V239.8H227.694Z" fill="white"/>
<path d="M21.5472 196.194C22.012 196.194 22.3772 196.309 22.6428 196.54C22.9104 196.769 23.0442 197.083 23.0442 197.482C23.0442 197.937 22.8983 198.294 22.6066 198.552C22.3168 198.811 21.9164 198.94 21.4054 198.94C20.9084 198.94 20.5291 198.861 20.2676 198.703V198.221C20.4084 198.312 20.5835 198.383 20.7927 198.435C21.002 198.485 21.2082 198.51 21.4114 198.51C21.7655 198.51 22.0402 198.427 22.2354 198.261C22.4325 198.094 22.5311 197.854 22.5311 197.539C22.5311 196.925 22.1539 196.618 21.3994 196.618C21.2082 196.618 20.9527 196.647 20.6328 196.706L20.3732 196.54L20.5392 194.483H22.7333V194.943H20.9678L20.8561 196.263C21.0875 196.217 21.3179 196.194 21.5472 196.194Z" fill="white"/>
<path d="M26.5987 196.675C26.5987 197.435 26.478 198.003 26.2366 198.378C25.9971 198.753 25.6299 198.94 25.135 198.94C24.6601 198.94 24.299 198.749 24.0515 198.366C23.804 197.981 23.6803 197.417 23.6803 196.675C23.6803 195.909 23.8 195.341 24.0394 194.97C24.2789 194.599 24.644 194.414 25.135 194.414C25.6139 194.414 25.977 194.607 26.2245 194.994C26.474 195.381 26.5987 195.942 26.5987 196.675ZM24.1873 196.675C24.1873 197.315 24.2628 197.781 24.4137 198.074C24.5646 198.365 24.805 198.51 25.135 198.51C25.469 198.51 25.7104 198.363 25.8593 198.068C26.0102 197.771 26.0857 197.307 26.0857 196.675C26.0857 196.044 26.0102 195.582 25.8593 195.289C25.7104 194.994 25.469 194.847 25.135 194.847C24.805 194.847 24.5646 194.992 24.4137 195.283C24.2628 195.572 24.1873 196.036 24.1873 196.675Z" fill="white"/>
<path d="M22.0241 172.921H21.5352V169.787C21.5352 169.526 21.5432 169.279 21.5593 169.047C21.5171 169.089 21.4698 169.133 21.4175 169.179C21.3652 169.225 21.1257 169.421 20.6992 169.766L20.4336 169.423L21.6016 168.523H22.0241V172.921Z" fill="white"/>
<path d="M25.0535 170.235C25.5183 170.235 25.8835 170.35 26.1491 170.581C26.4167 170.809 26.5505 171.123 26.5505 171.522C26.5505 171.977 26.4046 172.334 26.1129 172.593C25.8231 172.852 25.4227 172.981 24.9117 172.981C24.4147 172.981 24.0354 172.902 23.7739 172.743V172.262C23.9147 172.352 24.0898 172.423 24.299 172.476C24.5083 172.526 24.7145 172.551 24.9177 172.551C25.2718 172.551 25.5465 172.468 25.7416 172.301C25.9388 172.135 26.0374 171.894 26.0374 171.579C26.0374 170.966 25.6601 170.659 24.9056 170.659C24.7145 170.659 24.459 170.688 24.139 170.746L23.8795 170.581L24.0455 168.523H26.2396V168.983H24.4741L24.3624 170.304C24.5938 170.258 24.8241 170.235 25.0535 170.235Z" fill="white"/>
<path d="M30.105 170.716C30.105 171.476 29.9843 172.043 29.7429 172.418C29.5034 172.793 29.1362 172.981 28.6413 172.981C28.1664 172.981 27.8053 172.789 27.5578 172.406C27.3103 172.021 27.1866 171.458 27.1866 170.716C27.1866 169.95 27.3063 169.382 27.5457 169.011C27.7851 168.64 28.1503 168.454 28.6413 168.454C29.1201 168.454 29.4833 168.648 29.7308 169.035C29.9803 169.422 30.105 169.982 30.105 170.716ZM27.6936 170.716C27.6936 171.356 27.769 171.822 27.92 172.115C28.0709 172.405 28.3113 172.551 28.6413 172.551C28.9753 172.551 29.2167 172.403 29.3656 172.109C29.5165 171.812 29.592 171.348 29.592 170.716C29.592 170.084 29.5165 169.622 29.3656 169.329C29.2167 169.035 28.9753 168.887 28.6413 168.887C28.3113 168.887 28.0709 169.033 27.92 169.323C27.769 169.612 27.6936 170.076 27.6936 170.716Z" fill="white"/>
<path d="M23.2767 119.989H22.6218V121H22.1419V119.989H19.9961V119.553L22.0906 116.578H22.6218V119.535H23.2767V119.989ZM22.1419 119.535V118.073C22.1419 117.786 22.152 117.463 22.1721 117.102H22.148C22.0514 117.294 21.9609 117.454 21.8763 117.58L20.4971 119.535H22.1419Z" fill="white"/>
<path d="M25.0536 118.314C25.5184 118.314 25.8836 118.429 26.1492 118.66C26.4168 118.888 26.5506 119.202 26.5506 119.601C26.5506 120.056 26.4047 120.413 26.113 120.672C25.8232 120.931 25.4228 121.06 24.9118 121.06C24.4148 121.06 24.0355 120.981 23.774 120.822V120.341C23.9148 120.431 24.0899 120.503 24.2991 120.555C24.5084 120.605 24.7146 120.63 24.9178 120.63C25.2719 120.63 25.5466 120.547 25.7418 120.38C25.9389 120.214 26.0375 119.973 26.0375 119.658C26.0375 119.045 25.6603 118.738 24.9058 118.738C24.7146 118.738 24.4591 118.767 24.1392 118.825L23.8796 118.66L24.0456 116.602H26.2397V117.063H24.4742L24.3625 118.383C24.5939 118.337 24.8243 118.314 25.0536 118.314Z" fill="white"/>
<path d="M30.1051 118.795C30.1051 119.555 29.9844 120.123 29.743 120.497C29.5035 120.872 29.1363 121.06 28.6414 121.06C28.1665 121.06 27.8054 120.868 27.5579 120.485C27.3104 120.1 27.1867 119.537 27.1867 118.795C27.1867 118.029 27.3064 117.461 27.5458 117.09C27.7853 116.719 28.1504 116.533 28.6414 116.533C29.1203 116.533 29.4834 116.727 29.7309 117.114C29.9804 117.501 30.1051 118.061 30.1051 118.795ZM27.6937 118.795C27.6937 119.435 27.7692 119.901 27.9201 120.194C28.071 120.484 28.3114 120.63 28.6414 120.63C28.9754 120.63 29.2168 120.482 29.3657 120.188C29.5166 119.891 29.5921 119.427 29.5921 118.795C29.5921 118.163 29.5166 117.701 29.3657 117.408C29.2168 117.114 28.9754 116.966 28.6414 116.966C28.3114 116.966 28.071 117.112 27.9201 117.402C27.7692 117.691 27.6937 118.155 27.6937 118.795Z" fill="white"/>
<path d="M23.0683 146.959H20.168V146.529L21.3299 145.365C21.684 145.008 21.9174 144.754 22.0301 144.601C22.1428 144.449 22.2273 144.3 22.2836 144.156C22.34 144.012 22.3681 143.856 22.3681 143.69C22.3681 143.455 22.2967 143.27 22.1539 143.133C22.011 142.995 21.8128 142.926 21.5593 142.926C21.3762 142.926 21.2022 142.956 21.0372 143.016C20.8742 143.076 20.6921 143.185 20.4909 143.344L20.2253 143.004C20.6317 142.667 21.0744 142.499 21.5533 142.499C21.9677 142.499 22.2927 142.605 22.5281 142.818C22.7635 143.028 22.8812 143.312 22.8812 143.669C22.8812 143.947 22.8027 144.223 22.6458 144.496C22.4889 144.769 22.1951 145.113 21.7645 145.531L20.7987 146.472V146.496H23.0683V146.959Z" fill="white"/>
<path d="M25.0535 144.273C25.5183 144.273 25.8835 144.389 26.149 144.619C26.4166 144.848 26.5504 145.162 26.5504 145.561C26.5504 146.016 26.4046 146.373 26.1128 146.631C25.8231 146.89 25.4227 147.019 24.9116 147.019C24.4147 147.019 24.0354 146.94 23.7738 146.782V146.301C23.9147 146.391 24.0897 146.462 24.299 146.514C24.5082 146.564 24.7145 146.589 24.9177 146.589C25.2718 146.589 25.5464 146.506 25.7416 146.34C25.9388 146.173 26.0374 145.933 26.0374 145.618C26.0374 145.004 25.6601 144.697 24.9056 144.697C24.7145 144.697 24.4589 144.726 24.139 144.785L23.8795 144.619L24.0455 142.562H26.2396V143.022H24.474L24.3623 144.342C24.5937 144.296 24.8241 144.273 25.0535 144.273Z" fill="white"/>
<path d="M30.105 144.755C30.105 145.515 29.9843 146.082 29.7428 146.457C29.5034 146.832 29.1362 147.019 28.6412 147.019C28.1664 147.019 27.8052 146.828 27.5577 146.445C27.3103 146.06 27.1865 145.496 27.1865 144.755C27.1865 143.989 27.3062 143.42 27.5457 143.049C27.7851 142.678 28.1503 142.493 28.6412 142.493C29.1201 142.493 29.4833 142.686 29.7308 143.073C29.9802 143.46 30.105 144.021 30.105 144.755ZM27.6936 144.755C27.6936 145.394 27.769 145.86 27.9199 146.153C28.0708 146.444 28.3113 146.589 28.6412 146.589C28.9752 146.589 29.2167 146.442 29.3656 146.147C29.5165 145.85 29.5919 145.386 29.5919 144.755C29.5919 144.123 29.5165 143.661 29.3656 143.368C29.2167 143.073 28.9752 142.926 28.6412 142.926C28.3113 142.926 28.0708 143.071 27.9199 143.362C27.769 143.651 27.6936 144.115 27.6936 144.755Z" fill="white"/>
<path d="M21.6284 90.5797C22.0308 90.5797 22.3497 90.673 22.5851 90.8595C22.8205 91.046 22.9382 91.3036 22.9382 91.6325C22.9382 91.849 22.8708 92.0466 22.736 92.225C22.6012 92.4035 22.3859 92.5659 22.0901 92.7123C22.4483 92.8827 22.7028 93.0622 22.8537 93.2507C23.0046 93.4372 23.08 93.6537 23.08 93.9004C23.08 94.2653 22.9523 94.5571 22.6968 94.7756C22.4412 94.9922 22.0911 95.1005 21.6465 95.1005C21.1756 95.1005 20.8135 94.9982 20.56 94.7937C20.3064 94.5872 20.1797 94.2954 20.1797 93.9184C20.1797 93.4151 20.4875 93.0231 21.1032 92.7424C20.8256 92.586 20.6264 92.4175 20.5056 92.2371C20.3849 92.0546 20.3246 91.851 20.3246 91.6265C20.3246 91.3076 20.4423 91.054 20.6777 90.8655C20.9151 90.675 21.232 90.5797 21.6284 90.5797ZM20.6746 93.9304C20.6746 94.1711 20.7581 94.3586 20.9251 94.4929C21.0942 94.6273 21.3306 94.6944 21.6344 94.6944C21.9342 94.6944 22.1676 94.6243 22.3346 94.4839C22.5016 94.3435 22.5851 94.151 22.5851 93.9064C22.5851 93.7119 22.5066 93.5394 22.3497 93.389C22.1927 93.2366 21.9191 93.0893 21.5288 92.9469C21.229 93.0752 21.0117 93.2176 20.8769 93.374C20.7421 93.5284 20.6746 93.7139 20.6746 93.9304ZM21.6223 90.9858C21.3708 90.9858 21.1736 91.046 21.0308 91.1663C20.8879 91.2866 20.8165 91.447 20.8165 91.6475C20.8165 91.832 20.8759 91.9904 20.9946 92.1228C21.1133 92.2551 21.3326 92.3874 21.6525 92.5198C21.9402 92.3995 22.1434 92.2701 22.2621 92.1318C22.3829 91.9934 22.4432 91.832 22.4432 91.6475C22.4432 91.445 22.3698 91.2846 22.2229 91.1663C22.078 91.046 21.8778 90.9858 21.6223 90.9858Z" fill="white"/>
<path d="M25.0531 92.3544C25.5179 92.3544 25.8831 92.4697 26.1487 92.7003C26.4163 92.9288 26.5501 93.2427 26.5501 93.6417C26.5501 94.0969 26.4042 94.4538 26.1125 94.7125C25.8227 94.9712 25.4223 95.1005 24.9113 95.1005C24.4143 95.1005 24.035 95.0213 23.7735 94.8629V94.3816C23.9143 94.4719 24.0894 94.543 24.2986 94.5952C24.5079 94.6453 24.7141 94.6704 24.9173 94.6704C25.2714 94.6704 25.5461 94.5872 25.7412 94.4207C25.9384 94.2543 26.037 94.0137 26.037 93.6988C26.037 93.0853 25.6598 92.7785 24.9052 92.7785C24.7141 92.7785 24.4586 92.8075 24.1387 92.8657L23.8791 92.7003L24.0451 90.6429H26.2392V91.1031H24.4737L24.362 92.4235C24.5934 92.3774 24.8238 92.3544 25.0531 92.3544Z" fill="white"/>
<path d="M30.1046 92.8356C30.1046 93.5956 29.9839 94.1631 29.7425 94.538C29.503 94.913 29.1358 95.1005 28.6409 95.1005C28.166 95.1005 27.8049 94.909 27.5574 94.526C27.3099 94.141 27.1862 93.5775 27.1862 92.8356C27.1862 92.0696 27.3059 91.5011 27.5453 91.1302C27.7848 90.7592 28.1499 90.5737 28.6409 90.5737C29.1197 90.5737 29.4829 90.7672 29.7304 91.1542C29.9799 91.5412 30.1046 92.1017 30.1046 92.8356ZM27.6932 92.8356C27.6932 93.4753 27.7687 93.9415 27.9196 94.2342C28.0705 94.525 28.3109 94.6704 28.6409 94.6704C28.9749 94.6704 29.2163 94.523 29.3652 94.2282C29.5161 93.9315 29.5916 93.4672 29.5916 92.8356C29.5916 92.204 29.5161 91.7418 29.3652 91.449C29.2163 91.1542 28.9749 91.0069 28.6409 91.0069C28.3109 91.0069 28.0705 91.1522 27.9196 91.443C27.7687 91.7317 27.6932 92.1959 27.6932 92.8356Z" fill="white"/>
<path d="M22.0261 69.0794H21.5371V65.9453C21.5371 65.6846 21.5452 65.4379 21.5613 65.2053C21.519 65.2474 21.4717 65.2916 21.4194 65.3377C21.3671 65.3838 21.1277 65.5793 20.7011 65.9242L20.4355 65.5813L21.6035 64.682H22.0261V69.0794Z" fill="white"/>
<path d="M24.2346 69.0794L26.0635 65.1422H23.6581V64.682H26.5947V65.082L24.7899 69.0794H24.2346Z" fill="white"/>
<path d="M30.107 66.8747C30.107 67.6346 29.9863 68.2021 29.7448 68.5771C29.5054 68.9521 29.1382 69.1396 28.6432 69.1396C28.1684 69.1396 27.8072 68.9481 27.5597 68.5651C27.3123 68.1801 27.1885 67.6166 27.1885 66.8747C27.1885 66.1087 27.3082 65.5402 27.5477 65.1692C27.7871 64.7983 28.1523 64.6128 28.6432 64.6128C29.1221 64.6128 29.4853 64.8063 29.7327 65.1933C29.9822 65.5803 30.107 66.1408 30.107 66.8747ZM27.6956 66.8747C27.6956 67.5143 27.771 67.9805 27.9219 68.2733C28.0728 68.5641 28.3132 68.7094 28.6432 68.7094C28.9772 68.7094 29.2187 68.5621 29.3676 68.2673C29.5185 67.9705 29.5939 67.5063 29.5939 66.8747C29.5939 66.243 29.5185 65.7808 29.3676 65.4881C29.2187 65.1933 28.9772 65.0459 28.6432 65.0459C28.3132 65.0459 28.0728 65.1913 27.9219 65.4821C27.771 65.7708 27.6956 66.235 27.6956 66.8747Z" fill="white"/>
<path d="M33.6132 66.8747C33.6132 67.6346 33.4925 68.2021 33.2511 68.5771C33.0116 68.9521 32.6444 69.1396 32.1495 69.1396C31.6746 69.1396 31.3135 68.9481 31.066 68.5651C30.8185 68.1801 30.6948 67.6166 30.6948 66.8747C30.6948 66.1087 30.8145 65.5402 31.0539 65.1692C31.2934 64.7983 31.6585 64.6128 32.1495 64.6128C32.6283 64.6128 32.9915 64.8063 33.239 65.1933C33.4885 65.5803 33.6132 66.1408 33.6132 66.8747ZM31.2018 66.8747C31.2018 67.5143 31.2773 67.9805 31.4282 68.2733C31.5791 68.5641 31.8195 68.7094 32.1495 68.7094C32.4835 68.7094 32.7249 68.5621 32.8738 68.2673C33.0247 67.9705 33.1002 67.5063 33.1002 66.8747C33.1002 66.243 33.0247 65.7808 32.8738 65.4881C32.7249 65.1933 32.4835 65.0459 32.1495 65.0459C31.8195 65.0459 31.5791 65.1913 31.4282 65.4821C31.2773 65.7708 31.2018 66.235 31.2018 66.8747Z" fill="white"/>
<rect x="56.9531" y="192.281" width="20.7505" height="33.44" fill="#744600"/>
<rect x="150.715" y="211.273" width="21.0011" height="14.185" fill="#744600"/>
<rect x="56.9531" y="178.641" width="20.7505" height="13.64" fill="#F1EA67"/>
<rect x="150.715" y="205.106" width="21.0011" height="6.16738" fill="#F1EA67"/>
<rect x="56.9531" y="148.72" width="20.7505" height="29.92" fill="#C66B00"/>
<rect x="150.715" y="192.155" width="21.0011" height="12.9515" fill="#C66B00"/>
<rect x="119.646" y="218.239" width="20.7505" height="7.48" fill="#744600"/>
<rect x="213.406" y="218.239" width="20.7505" height="7.48" fill="#744600"/>
<rect x="119.646" y="192.28" width="20.7505" height="25.96" fill="#F1EA67"/>
<rect x="213.406" y="192.28" width="20.7505" height="25.96" fill="#F1EA67"/>
<rect x="119.646" y="140.359" width="20.7505" height="51.92" fill="#C66B00"/>
<rect x="213.406" y="140.359" width="20.7505" height="51.92" fill="#C66B00"/>
<rect x="88.3008" y="207.68" width="20.7505" height="18.04" fill="#744600"/>
<rect x="182.215" y="215.592" width="20.3834" height="9.86781" fill="#744600"/>
<rect x="88.3008" y="148.72" width="20.7505" height="58.96" fill="#F1EA67"/>
<rect x="182.215" y="182.904" width="20.3834" height="32.6871" fill="#F1EA67"/>
<rect x="88.3008" y="122.76" width="20.7505" height="25.96" fill="#C66B00"/>
<rect x="182.215" y="168.719" width="20.3834" height="14.185" fill="#C66B00"/>
</g>
</g>
<defs>
<clipPath id="clip0">
<rect width="238" height="264" fill="white"/>
</clipPath>
</defs>
</svg>
