<svg width="957" height="1345" viewBox="0 0 957 1345" fill="none" xmlns="http://www.w3.org/2000/svg">
<rect width="957" height="1345" fill="url(#paint0_linear)"/>
<mask id="mask0" mask-type="alpha" maskUnits="userSpaceOnUse" x="0" y="0" width="957" height="1345">
<rect width="957" height="1345" fill="#C4C4C4"/>
</mask>
<g mask="url(#mask0)">
<rect x="-411.631" y="455.988" width="824.969" height="433.024" rx="15" fill="#0D0D0D"/>
<path d="M-411.631 470.988C-411.631 462.704 -404.915 455.988 -396.631 455.988H398.338C406.622 455.988 413.338 462.704 413.338 470.988V479.082H-411.631V470.988Z" fill="#404040"/>
<line x1="-332.453" y1="826.446" x2="379.403" y2="826.446" stroke="#808080"/>
<path d="M18.3274 851.219C18.0043 851.219 17.75 851.174 17.5645 851.085V850.37C17.8085 850.436 18.0628 850.469 18.3274 850.469C18.6676 850.469 18.9253 850.37 19.1006 850.173C19.2793 849.975 19.3687 849.691 19.3687 849.319V842.106H20.245V849.25C20.245 849.875 20.08 850.359 19.7501 850.701C19.4202 851.046 18.946 851.219 18.3274 851.219Z" fill="white"/>
<path d="M22.8727 843.912V847.42C22.8727 847.86 22.9776 848.189 23.1872 848.406C23.3968 848.624 23.725 848.732 24.1718 848.732C24.7629 848.732 25.1942 848.577 25.4656 848.268C25.7406 847.959 25.878 847.454 25.878 846.754V843.912H26.7337V849.319H26.0275L25.9038 848.594H25.8574C25.6821 848.86 25.4382 849.064 25.1254 849.206C24.8161 849.347 24.4622 849.418 24.0635 849.418C23.3762 849.418 22.8607 849.262 22.5171 848.949C22.1768 848.637 22.0067 848.137 22.0067 847.449V843.912H22.8727Z" fill="white"/>
<path d="M29.3563 849.319H28.5006V841.643H29.3563V849.319Z" fill="white"/>
<path d="M74.6074 849.32L73.6693 847.025H70.6485L69.7206 849.32H68.834L71.8135 842.077H72.5507L75.5147 849.32H74.6074ZM73.3961 846.271L72.5197 844.036C72.4063 843.753 72.2895 843.406 72.1692 842.995C72.0936 843.311 71.9853 843.658 71.8444 844.036L70.9578 846.271H73.3961Z" fill="white"/>
<path d="M80.9931 843.912V844.43L79.9467 844.549C80.0429 844.664 80.1288 844.815 80.2044 845.003C80.28 845.187 80.3178 845.396 80.3178 845.629C80.3178 846.159 80.1288 846.581 79.7508 846.897C79.3728 847.213 78.8538 847.371 78.194 847.371C78.0256 847.371 77.8675 847.358 77.7198 847.331C77.3555 847.516 77.1733 847.747 77.1733 848.027C77.1733 848.175 77.2369 848.285 77.3641 848.358C77.4912 848.427 77.7094 848.461 78.0187 848.461H79.0188C79.6305 848.461 80.0996 848.584 80.4261 848.831C80.756 849.078 80.9209 849.436 80.9209 849.907C80.9209 850.505 80.6701 850.961 80.1683 851.273C79.6666 851.589 78.9346 851.747 77.9723 851.747C77.2335 851.747 76.663 851.615 76.2609 851.352C75.8623 851.089 75.663 850.717 75.663 850.237C75.663 849.908 75.7729 849.624 75.9929 849.384C76.2128 849.144 76.5221 848.981 76.9208 848.895C76.7764 848.833 76.6544 848.736 76.5548 848.604C76.4585 848.473 76.4104 848.32 76.4104 848.145C76.4104 847.948 76.4654 847.775 76.5754 847.627C76.6853 847.479 76.8589 847.336 77.096 847.198C76.8039 847.083 76.5651 846.887 76.3795 846.611C76.1973 846.335 76.1063 846.019 76.1063 845.664C76.1063 845.072 76.2919 844.616 76.663 844.297C77.0342 843.975 77.56 843.814 78.2404 843.814C78.5359 843.814 78.8023 843.847 79.0394 843.912H80.9931ZM76.4877 850.227C76.4877 850.52 76.6166 850.742 76.8744 850.893C77.1321 851.045 77.5015 851.12 77.9827 851.12C78.7009 851.12 79.2319 851.017 79.5755 850.81C79.9226 850.606 80.0962 850.328 80.0962 849.976C80.0962 849.683 80.0016 849.479 79.8126 849.364C79.6236 849.252 79.2679 849.196 78.7456 849.196H77.7198C77.3314 849.196 77.029 849.285 76.8125 849.463C76.596 849.64 76.4877 849.895 76.4877 850.227ZM76.9517 845.644C76.9517 846.022 77.0634 846.308 77.2867 846.503C77.5101 846.697 77.8211 846.794 78.2198 846.794C79.0549 846.794 79.4724 846.406 79.4724 845.629C79.4724 844.817 79.0497 844.411 78.2043 844.411C77.8022 844.411 77.4929 844.514 77.2764 844.722C77.0599 844.929 76.9517 845.236 76.9517 845.644Z" fill="white"/>
<path d="M86.9767 846.611C86.9767 847.493 86.7447 848.182 86.2808 848.678C85.8168 849.172 85.1759 849.418 84.358 849.418C83.8528 849.418 83.4043 849.305 83.0126 849.078C82.6208 848.851 82.3184 848.525 82.1053 848.101C81.8923 847.677 81.7857 847.18 81.7857 846.611C81.7857 845.73 82.016 845.044 82.4765 844.554C82.937 844.06 83.5762 843.814 84.3941 843.814C85.1845 843.814 85.8117 844.065 86.2756 844.569C86.743 845.072 86.9767 845.753 86.9767 846.611ZM82.6724 846.611C82.6724 847.302 82.8167 847.828 83.1054 848.19C83.394 848.552 83.8185 848.733 84.3786 848.733C84.9388 848.733 85.3632 848.553 85.6519 848.195C85.944 847.833 86.09 847.305 86.09 846.611C86.09 845.924 85.944 845.402 85.6519 845.047C85.3632 844.689 84.9353 844.509 84.3683 844.509C83.8081 844.509 83.3854 844.685 83.1002 845.037C82.815 845.389 82.6724 845.914 82.6724 846.611Z" fill="white"/>
<path d="M129.543 847.401C129.543 848.036 129.303 848.53 128.822 848.886C128.34 849.241 127.688 849.419 126.863 849.419C125.969 849.419 125.282 849.308 124.801 849.088V848.279C125.11 848.404 125.447 848.503 125.811 848.575C126.175 848.647 126.536 848.683 126.894 848.683C127.478 848.683 127.918 848.578 128.213 848.368C128.509 848.154 128.657 847.858 128.657 847.48C128.657 847.23 128.603 847.026 128.497 846.868C128.394 846.707 128.218 846.559 127.971 846.424C127.727 846.289 127.354 846.136 126.852 845.965C126.151 845.725 125.65 845.44 125.347 845.112C125.048 844.783 124.899 844.353 124.899 843.824C124.899 843.268 125.117 842.826 125.553 842.497C125.99 842.168 126.567 842.003 127.285 842.003C128.035 842.003 128.724 842.135 129.353 842.398L129.079 843.128C128.457 842.878 127.852 842.753 127.265 842.753C126.801 842.753 126.438 842.849 126.177 843.039C125.916 843.23 125.785 843.495 125.785 843.834C125.785 844.084 125.833 844.289 125.93 844.45C126.026 844.608 126.187 844.755 126.414 844.89C126.645 845.021 126.995 845.167 127.466 845.329C128.256 845.598 128.799 845.888 129.095 846.197C129.394 846.506 129.543 846.907 129.543 847.401Z" fill="white"/>
<path d="M133.29 849.419C132.455 849.419 131.795 849.175 131.31 848.688C130.829 848.202 130.588 847.526 130.588 846.661C130.588 845.789 130.812 845.097 131.259 844.584C131.709 844.071 132.312 843.814 133.068 843.814C133.776 843.814 134.336 844.038 134.748 844.485C135.161 844.929 135.367 845.516 135.367 846.246V846.764H131.475C131.492 847.399 131.659 847.881 131.975 848.21C132.295 848.539 132.743 848.703 133.321 848.703C133.929 848.703 134.53 848.581 135.125 848.338V849.068C134.822 849.193 134.535 849.282 134.264 849.335C133.996 849.391 133.671 849.419 133.29 849.419ZM133.058 844.5C132.604 844.5 132.241 844.641 131.97 844.924C131.702 845.207 131.544 845.598 131.496 846.098H134.449C134.449 845.582 134.329 845.187 134.089 844.914C133.848 844.638 133.504 844.5 133.058 844.5Z" fill="white"/>
<path d="M138.603 848.743C138.754 848.743 138.9 848.733 139.041 848.713C139.182 848.69 139.294 848.667 139.376 848.644V849.271C139.284 849.313 139.146 849.348 138.964 849.374C138.785 849.404 138.624 849.419 138.479 849.419C137.387 849.419 136.84 848.868 136.84 847.766V844.549H136.031V844.154L136.84 843.814L137.201 842.66H137.696V843.913H139.335V844.549H137.696V847.731C137.696 848.057 137.777 848.307 137.938 848.481C138.1 848.655 138.321 848.743 138.603 848.743Z" fill="white"/>
<path d="M183.892 845.702C183.892 846.857 183.586 847.764 182.975 848.426C182.366 849.087 181.519 849.417 180.433 849.417C179.323 849.417 178.466 849.093 177.861 848.445C177.26 847.794 176.959 846.876 176.959 845.692C176.959 844.518 177.261 843.609 177.866 842.964C178.471 842.316 179.33 841.992 180.444 841.992C181.526 841.992 182.372 842.321 182.98 842.979C183.588 843.637 183.892 844.544 183.892 845.702ZM177.887 845.702C177.887 846.679 178.103 847.421 178.536 847.927C178.973 848.43 179.605 848.682 180.433 848.682C181.268 848.682 181.899 848.43 182.325 847.927C182.751 847.424 182.964 846.682 182.964 845.702C182.964 844.732 182.751 843.997 182.325 843.497C181.903 842.994 181.275 842.742 180.444 842.742C179.609 842.742 178.973 842.995 178.536 843.502C178.103 844.005 177.887 844.739 177.887 845.702Z" fill="white"/>
<path d="M186.2 843.911V847.419C186.2 847.86 186.305 848.189 186.515 848.406C186.725 848.623 187.053 848.731 187.499 848.731C188.091 848.731 188.522 848.577 188.793 848.268C189.068 847.958 189.206 847.454 189.206 846.753V843.911H190.061V849.319H189.355L189.232 848.593H189.185C189.01 848.86 188.766 849.064 188.453 849.205C188.144 849.346 187.79 849.417 187.391 849.417C186.704 849.417 186.188 849.261 185.845 848.948C185.505 848.636 185.334 848.136 185.334 847.449V843.911H186.2Z" fill="white"/>
<path d="M193.653 848.741C193.804 848.741 193.95 848.731 194.091 848.712C194.232 848.689 194.344 848.666 194.426 848.643V849.269C194.334 849.312 194.196 849.346 194.014 849.373C193.835 849.402 193.674 849.417 193.529 849.417C192.437 849.417 191.89 848.866 191.89 847.764V844.548H191.081V844.153L191.89 843.813L192.251 842.658H192.746V843.911H194.385V844.548H192.746V847.73C192.746 848.056 192.827 848.305 192.988 848.48C193.15 848.654 193.371 848.741 193.653 848.741Z" fill="white"/>
<path d="M235.592 849.322H234.592L230.473 843.268H230.432C230.487 843.979 230.514 844.63 230.514 845.222V849.322H229.705V842.109H230.695L234.803 848.138H234.844C234.838 848.049 234.822 847.764 234.798 847.284C234.774 846.801 234.765 846.455 234.772 846.248V842.109H235.592V849.322Z" fill="white"/>
<path d="M242.359 846.613C242.359 847.495 242.127 848.184 241.663 848.68C241.199 849.174 240.558 849.42 239.74 849.42C239.235 849.42 238.787 849.307 238.395 849.08C238.003 848.853 237.701 848.527 237.488 848.103C237.275 847.679 237.168 847.182 237.168 846.613C237.168 845.732 237.398 845.046 237.859 844.556C238.319 844.063 238.959 843.816 239.776 843.816C240.567 843.816 241.194 844.068 241.658 844.571C242.125 845.074 242.359 845.755 242.359 846.613ZM238.055 846.613C238.055 847.304 238.199 847.83 238.488 848.192C238.776 848.554 239.201 848.735 239.761 848.735C240.321 848.735 240.746 848.555 241.034 848.197C241.326 847.835 241.472 847.307 241.472 846.613C241.472 845.926 241.326 845.404 241.034 845.049C240.746 844.691 240.318 844.512 239.751 844.512C239.191 844.512 238.768 844.687 238.483 845.039C238.197 845.391 238.055 845.916 238.055 846.613Z" fill="white"/>
<path d="M245.049 849.322L242.904 843.915H243.822L245.038 847.121C245.313 847.871 245.475 848.358 245.523 848.582H245.564C245.602 848.407 245.721 848.047 245.92 847.501C246.123 846.952 246.575 845.756 247.276 843.915H248.193L246.049 849.322H245.049Z" fill="white"/>
<path d="M290.324 845.646C290.324 846.837 289.986 847.748 289.309 848.379C288.635 849.008 287.664 849.322 286.396 849.322H284.309V842.109H286.618C287.79 842.109 288.701 842.42 289.35 843.041C290 843.663 290.324 844.531 290.324 845.646ZM289.396 845.676C289.396 844.735 289.149 844.026 288.654 843.549C288.163 843.073 287.431 842.834 286.458 842.834H285.185V848.597H286.252C287.297 848.597 288.082 848.351 288.608 847.861C289.134 847.368 289.396 846.64 289.396 845.676Z" fill="white"/>
<path d="M294.215 849.42C293.38 849.42 292.72 849.177 292.236 848.69C291.754 848.203 291.514 847.528 291.514 846.663C291.514 845.791 291.737 845.099 292.184 844.586C292.634 844.072 293.237 843.816 293.993 843.816C294.701 843.816 295.261 844.04 295.674 844.487C296.086 844.931 296.292 845.518 296.292 846.248V846.766H292.401C292.418 847.401 292.584 847.883 292.901 848.212C293.22 848.541 293.669 848.705 294.246 848.705C294.854 848.705 295.456 848.583 296.05 848.34V849.07C295.748 849.195 295.461 849.284 295.189 849.337C294.921 849.392 294.596 849.42 294.215 849.42ZM293.983 844.502C293.529 844.502 293.167 844.643 292.895 844.926C292.627 845.209 292.469 845.6 292.421 846.1H295.375C295.375 845.584 295.255 845.189 295.014 844.916C294.773 844.64 294.43 844.502 293.983 844.502Z" fill="white"/>
<path d="M301.317 849.322H297.219V848.764L300.302 844.551H297.41V843.915H301.24V844.551L298.199 848.685H301.317V849.322Z" fill="white"/>
<rect x="6.14062" y="709.572" width="35.4902" height="116.675" fill="#00612A"/>
<rect x="166.352" y="717.35" width="35.4902" height="108.897" fill="#00612A"/>
<rect x="6.14062" y="661.931" width="35.4902" height="47.6422" fill="#14D768"/>
<rect x="166.352" y="672.625" width="35.4902" height="44.7253" fill="#14D768"/>
<rect x="113.625" y="801.94" width="35.4902" height="24.3073" fill="#00612A"/>
<rect x="273.838" y="816.524" width="35.4902" height="9.7229" fill="#00612A"/>
<rect x="113.625" y="719.294" width="35.4902" height="82.6447" fill="#14D768"/>
<rect x="273.838" y="784.439" width="35.4902" height="32.0856" fill="#14D768"/>
<rect x="59.8828" y="807.774" width="35.4902" height="18.4735" fill="#00612A"/>
<rect x="220.096" y="805.827" width="35.4902" height="20.4181" fill="#00612A"/>
<rect x="59.8828" y="746.519" width="35.4902" height="61.2543" fill="#14D768"/>
<rect x="220.096" y="738.739" width="35.4902" height="67.088" fill="#14D768"/>
</g>
<defs>
<linearGradient id="paint0_linear" x1="478.5" y1="-688.902" x2="478.5" y2="1345" gradientUnits="userSpaceOnUse">
<stop stop-color="#14D768"/>
<stop offset="1" stop-color="#14D768" stop-opacity="0"/>
</linearGradient>
</defs>
</svg>
