<svg width="635" height="1345" viewBox="0 0 635 1345" fill="none" xmlns="http://www.w3.org/2000/svg">
<rect width="635" height="1345" fill="url(#paint0_linear)"/>
<mask id="mask0" mask-type="alpha" maskUnits="userSpaceOnUse" x="0" y="0" width="635" height="1345">
<rect width="635" height="1345" fill="#C4C4C4"/>
</mask>
<g mask="url(#mask0)">
<rect x="-395.439" y="455.988" width="792.519" height="433.024" rx="15" fill="#0D0D0D"/>
<path d="M-395.439 470.988C-395.439 462.704 -388.724 455.988 -380.439 455.988H382.08C390.364 455.988 397.08 462.704 397.08 470.988V479.082H-395.439V470.988Z" fill="#404040"/>
<line x1="-319.377" y1="826.446" x2="364.479" y2="826.446" stroke="#808080"/>
<path d="M17.606 851.219C17.2956 851.219 17.0513 851.174 16.873 851.085V850.37C17.1074 850.436 17.3518 850.469 17.606 850.469C17.9328 850.469 18.1804 850.37 18.3488 850.173C18.5205 849.975 18.6063 849.691 18.6063 849.319V842.106H19.4481V849.25C19.4481 849.875 19.2897 850.359 18.9727 850.701C18.6558 851.046 18.2002 851.219 17.606 851.219Z" fill="white"/>
<path d="M21.9725 843.912V847.42C21.9725 847.86 22.0732 848.189 22.2746 848.406C22.476 848.624 22.7913 848.732 23.2205 848.732C23.7883 848.732 24.2026 848.577 24.4634 848.268C24.7276 847.959 24.8596 847.454 24.8596 846.754V843.912H25.6817V849.319H25.0032L24.8844 848.594H24.8398C24.6714 848.86 24.437 849.064 24.1366 849.206C23.8395 849.347 23.4994 849.418 23.1165 849.418C22.4562 849.418 21.961 849.262 21.6308 848.949C21.304 848.637 21.1406 848.137 21.1406 847.449V843.912H21.9725Z" fill="white"/>
<path d="M28.2011 849.319H27.3791V841.643H28.2011V849.319Z" fill="white"/>
<path d="M71.6733 849.32L70.772 847.025H67.8701L66.9787 849.32H66.127L68.9893 842.077H69.6974L72.5449 849.32H71.6733ZM70.5096 846.271L69.6677 844.036C69.5588 843.753 69.4465 843.406 69.331 842.995C69.2583 843.311 69.1543 843.658 69.019 844.036L68.1672 846.271H70.5096Z" fill="white"/>
<path d="M77.8078 843.912V844.43L76.8025 844.549C76.895 844.664 76.9775 844.815 77.0501 845.003C77.1228 845.187 77.1591 845.396 77.1591 845.629C77.1591 846.159 76.9775 846.581 76.6143 846.897C76.2512 847.213 75.7527 847.371 75.1188 847.371C74.957 847.371 74.8052 847.358 74.6632 847.331C74.3133 847.516 74.1383 847.747 74.1383 848.027C74.1383 848.175 74.1994 848.285 74.3215 848.358C74.4437 848.427 74.6533 848.461 74.9504 848.461H75.9111C76.4988 848.461 76.9494 848.584 77.2631 848.831C77.58 849.078 77.7385 849.436 77.7385 849.907C77.7385 850.505 77.4975 850.961 77.0155 851.273C76.5335 851.589 75.8303 851.747 74.9059 851.747C74.1961 851.747 73.648 851.615 73.2618 851.352C72.8788 851.089 72.6873 850.717 72.6873 850.237C72.6873 849.908 72.793 849.624 73.0043 849.384C73.2155 849.144 73.5127 848.981 73.8956 848.895C73.757 848.833 73.6398 848.736 73.544 848.604C73.4516 848.473 73.4054 848.32 73.4054 848.145C73.4054 847.948 73.4582 847.775 73.5638 847.627C73.6695 847.479 73.8362 847.336 74.064 847.198C73.7834 847.083 73.5539 846.887 73.3757 846.611C73.2007 846.335 73.1132 846.019 73.1132 845.664C73.1132 845.072 73.2915 844.616 73.648 844.297C74.0046 843.975 74.5097 843.814 75.1634 843.814C75.4473 843.814 75.7032 843.847 75.9309 843.912H77.8078ZM73.4797 850.227C73.4797 850.52 73.6035 850.742 73.8511 850.893C74.0987 851.045 74.4536 851.12 74.9158 851.12C75.6058 851.12 76.1158 851.017 76.446 850.81C76.7794 850.606 76.9461 850.328 76.9461 849.976C76.9461 849.683 76.8553 849.479 76.6738 849.364C76.4922 849.252 76.1505 849.196 75.6487 849.196H74.6632C74.2901 849.196 73.9996 849.285 73.7916 849.463C73.5836 849.64 73.4797 849.895 73.4797 850.227ZM73.9253 845.644C73.9253 846.022 74.0326 846.308 74.2472 846.503C74.4618 846.697 74.7606 846.794 75.1436 846.794C75.9458 846.794 76.3469 846.406 76.3469 845.629C76.3469 844.817 75.9409 844.411 75.1287 844.411C74.7424 844.411 74.4453 844.514 74.2373 844.722C74.0293 844.929 73.9253 845.236 73.9253 845.644Z" fill="white"/>
<path d="M83.556 846.611C83.556 847.493 83.3332 848.182 82.8875 848.678C82.4418 849.172 81.8261 849.418 81.0403 849.418C80.555 849.418 80.1242 849.305 79.7478 849.078C79.3715 848.851 79.081 848.525 78.8763 848.101C78.6716 847.677 78.5692 847.18 78.5692 846.611C78.5692 845.73 78.7904 845.044 79.2328 844.554C79.6752 844.06 80.2893 843.814 81.075 843.814C81.8343 843.814 82.4368 844.065 82.8825 844.569C83.3315 845.072 83.556 845.753 83.556 846.611ZM79.421 846.611C79.421 847.302 79.5597 847.828 79.837 848.19C80.1143 848.552 80.522 848.733 81.0602 848.733C81.5983 848.733 82.006 848.553 82.2833 848.195C82.5639 847.833 82.7043 847.305 82.7043 846.611C82.7043 845.924 82.5639 845.402 82.2833 845.047C82.006 844.689 81.595 844.509 81.0502 844.509C80.5121 844.509 80.106 844.685 79.832 845.037C79.558 845.389 79.421 845.914 79.421 846.611Z" fill="white"/>
<path d="M124.449 847.401C124.449 848.036 124.217 848.53 123.755 848.886C123.293 849.241 122.666 849.419 121.873 849.419C121.015 849.419 120.355 849.308 119.893 849.088V848.279C120.19 848.404 120.513 848.503 120.863 848.575C121.213 848.647 121.56 848.683 121.903 848.683C122.464 848.683 122.887 848.578 123.171 848.368C123.455 848.154 123.597 847.858 123.597 847.48C123.597 847.23 123.546 847.026 123.443 846.868C123.344 846.707 123.176 846.559 122.938 846.424C122.704 846.289 122.346 846.136 121.864 845.965C121.19 845.725 120.708 845.44 120.418 845.112C120.13 844.783 119.987 844.353 119.987 843.824C119.987 843.268 120.196 842.826 120.616 842.497C121.035 842.168 121.59 842.003 122.279 842.003C122.999 842.003 123.661 842.135 124.265 842.398L124.003 843.128C123.405 842.878 122.824 842.753 122.26 842.753C121.814 842.753 121.466 842.849 121.215 843.039C120.964 843.23 120.838 843.495 120.838 843.834C120.838 844.084 120.885 844.289 120.977 844.45C121.07 844.608 121.225 844.755 121.443 844.89C121.664 845.021 122.001 845.167 122.453 845.329C123.212 845.598 123.734 845.888 124.018 846.197C124.305 846.506 124.449 846.907 124.449 847.401Z" fill="white"/>
<path d="M128.048 849.419C127.245 849.419 126.611 849.175 126.146 848.688C125.684 848.202 125.453 847.526 125.453 846.661C125.453 845.789 125.667 845.097 126.096 844.584C126.529 844.071 127.108 843.814 127.835 843.814C128.515 843.814 129.053 844.038 129.449 844.485C129.845 844.929 130.043 845.516 130.043 846.246V846.764H126.304C126.321 847.399 126.481 847.881 126.785 848.21C127.092 848.539 127.523 848.703 128.077 848.703C128.662 848.703 129.239 848.581 129.81 848.338V849.068C129.52 849.193 129.244 849.282 128.983 849.335C128.726 849.391 128.414 849.419 128.048 849.419ZM127.825 844.5C127.389 844.5 127.041 844.641 126.78 844.924C126.522 845.207 126.37 845.598 126.324 846.098H129.162C129.162 845.582 129.046 845.187 128.815 844.914C128.584 844.638 128.254 844.5 127.825 844.5Z" fill="white"/>
<path d="M133.152 848.743C133.297 848.743 133.438 848.733 133.573 848.713C133.708 848.69 133.816 848.667 133.895 848.644V849.271C133.806 849.313 133.674 849.348 133.499 849.374C133.327 849.404 133.172 849.419 133.033 849.419C131.983 849.419 131.458 848.868 131.458 847.766V844.549H130.681V844.154L131.458 843.814L131.805 842.66H132.28V843.913H133.855V844.549H132.28V847.731C132.28 848.057 132.358 848.307 132.513 848.481C132.668 848.655 132.881 848.743 133.152 848.743Z" fill="white"/>
<path d="M176.659 845.702C176.659 846.857 176.365 847.764 175.777 848.426C175.193 849.087 174.379 849.417 173.336 849.417C172.269 849.417 171.446 849.093 170.865 848.445C170.287 847.794 169.998 846.876 169.998 845.692C169.998 844.518 170.289 843.609 170.87 842.964C171.451 842.316 172.276 841.992 173.346 841.992C174.386 841.992 175.198 842.321 175.782 842.979C176.366 843.637 176.659 844.544 176.659 845.702ZM170.889 845.702C170.889 846.679 171.097 847.421 171.513 847.927C171.933 848.43 172.54 848.682 173.336 848.682C174.138 848.682 174.744 848.43 175.153 847.927C175.563 847.424 175.767 846.682 175.767 845.702C175.767 844.732 175.563 843.997 175.153 843.497C174.747 842.994 174.145 842.742 173.346 842.742C172.543 842.742 171.933 842.995 171.513 843.502C171.097 844.005 170.889 844.739 170.889 845.702Z" fill="white"/>
<path d="M178.876 843.911V847.419C178.876 847.86 178.977 848.189 179.178 848.406C179.379 848.623 179.695 848.731 180.124 848.731C180.692 848.731 181.106 848.577 181.367 848.268C181.631 847.958 181.763 847.454 181.763 846.753V843.911H182.585V849.319H181.907L181.788 848.593H181.743C181.575 848.86 181.341 849.064 181.04 849.205C180.743 849.346 180.403 849.417 180.02 849.417C179.36 849.417 178.864 849.261 178.534 848.948C178.207 848.636 178.044 848.136 178.044 847.449V843.911H178.876Z" fill="white"/>
<path d="M186.036 848.741C186.181 848.741 186.321 848.731 186.456 848.712C186.592 848.689 186.699 848.666 186.778 848.643V849.269C186.689 849.312 186.557 849.346 186.382 849.373C186.211 849.402 186.055 849.417 185.917 849.417C184.867 849.417 184.342 848.866 184.342 847.764V844.548H183.564V844.153L184.342 843.813L184.689 842.658H185.164V843.911H186.739V844.548H185.164V847.73C185.164 848.056 185.242 848.305 185.397 848.48C185.552 848.654 185.765 848.741 186.036 848.741Z" fill="white"/>
<path d="M226.325 849.322H225.365L221.408 843.268H221.368C221.421 843.979 221.447 844.63 221.447 845.222V849.322H220.67V842.109H221.621L225.568 848.138H225.607C225.601 848.049 225.586 847.764 225.563 847.284C225.54 846.801 225.531 846.455 225.538 846.248V842.109H226.325V849.322Z" fill="white"/>
<path d="M232.826 846.613C232.826 847.495 232.603 848.184 232.158 848.68C231.712 849.174 231.096 849.42 230.31 849.42C229.825 849.42 229.394 849.307 229.018 849.08C228.642 848.853 228.351 848.527 228.146 848.103C227.942 847.679 227.839 847.182 227.839 846.613C227.839 845.732 228.061 845.046 228.503 844.556C228.945 844.063 229.559 843.816 230.345 843.816C231.104 843.816 231.707 844.068 232.153 844.571C232.602 845.074 232.826 845.755 232.826 846.613ZM228.691 846.613C228.691 847.304 228.83 847.83 229.107 848.192C229.384 848.554 229.792 848.735 230.33 848.735C230.868 848.735 231.276 848.555 231.553 848.197C231.834 847.835 231.974 847.307 231.974 846.613C231.974 845.926 231.834 845.404 231.553 845.049C231.276 844.691 230.865 844.512 230.32 844.512C229.782 844.512 229.376 844.687 229.102 845.039C228.828 845.391 228.691 845.916 228.691 846.613Z" fill="white"/>
<path d="M235.41 849.322L233.35 843.915H234.231L235.4 847.121C235.664 847.871 235.819 848.358 235.866 848.582H235.905C235.942 848.407 236.055 848.047 236.247 847.501C236.442 846.952 236.876 845.756 237.549 843.915H238.431L236.371 849.322H235.41Z" fill="white"/>
<path d="M278.904 845.646C278.904 846.837 278.579 847.748 277.929 848.379C277.281 849.008 276.349 849.322 275.131 849.322H273.125V842.109H275.344C276.469 842.109 277.344 842.42 277.968 843.041C278.592 843.663 278.904 844.531 278.904 845.646ZM278.013 845.676C278.013 844.735 277.775 844.026 277.3 843.549C276.828 843.073 276.124 842.834 275.19 842.834H273.967V848.597H274.992C275.996 848.597 276.75 848.351 277.255 847.861C277.76 847.368 278.013 846.64 278.013 845.676Z" fill="white"/>
<path d="M282.642 849.42C281.84 849.42 281.206 849.177 280.74 848.69C280.278 848.203 280.047 847.528 280.047 846.663C280.047 845.791 280.261 845.099 280.691 844.586C281.123 844.072 281.703 843.816 282.429 843.816C283.109 843.816 283.647 844.04 284.043 844.487C284.439 844.931 284.637 845.518 284.637 846.248V846.766H280.899C280.915 847.401 281.075 847.883 281.379 848.212C281.686 848.541 282.117 848.705 282.671 848.705C283.256 848.705 283.834 848.583 284.405 848.34V849.07C284.114 849.195 283.839 849.284 283.578 849.337C283.32 849.392 283.008 849.42 282.642 849.42ZM282.419 844.502C281.983 844.502 281.635 844.643 281.374 844.926C281.117 845.209 280.965 845.6 280.918 846.1H283.756C283.756 845.584 283.64 845.189 283.409 844.916C283.178 844.64 282.848 844.502 282.419 844.502Z" fill="white"/>
<path d="M289.465 849.322H285.528V848.764L288.489 844.551H285.711V843.915H289.39V844.551L286.469 848.685H289.465V849.322Z" fill="white"/>
<rect x="5.89844" y="709.572" width="34.0942" height="116.675" fill="#00612A"/>
<rect x="159.809" y="717.35" width="34.0942" height="108.897" fill="#00612A"/>
<rect x="5.89844" y="661.931" width="34.0942" height="47.6422" fill="#14D768"/>
<rect x="159.809" y="672.625" width="34.0942" height="44.7253" fill="#14D768"/>
<rect x="109.156" y="801.94" width="34.0942" height="24.3073" fill="#00612A"/>
<rect x="263.066" y="816.524" width="34.0942" height="9.7229" fill="#00612A"/>
<rect x="109.156" y="719.294" width="34.0942" height="82.6447" fill="#14D768"/>
<rect x="263.066" y="784.439" width="34.0942" height="32.0856" fill="#14D768"/>
<rect x="57.5273" y="807.774" width="34.0942" height="18.4735" fill="#00612A"/>
<rect x="211.438" y="805.827" width="34.0942" height="20.4181" fill="#00612A"/>
<rect x="57.5273" y="746.519" width="34.0942" height="61.2543" fill="#14D768"/>
<rect x="211.438" y="738.739" width="34.0942" height="67.088" fill="#14D768"/>
</g>
<defs>
<linearGradient id="paint0_linear" x1="317.5" y1="-688.902" x2="317.5" y2="1345" gradientUnits="userSpaceOnUse">
<stop stop-color="#14D768"/>
<stop offset="1" stop-color="#14D768" stop-opacity="0"/>
</linearGradient>
</defs>
</svg>
