<svg width="387" height="820" viewBox="0 0 387 820" fill="none" xmlns="http://www.w3.org/2000/svg">
<rect width="387" height="820" fill="url(#paint0_linear)"/>
<mask id="mask0" mask-type="alpha" maskUnits="userSpaceOnUse" x="0" y="0" width="387" height="820">
<rect width="387" height="820" fill="#C4C4C4"/>
</mask>
<g mask="url(#mask0)">
<rect x="-241" y="278" width="483" height="264" rx="15" fill="#0D0D0D"/>
<path d="M-241 292.08C-241 284.304 -234.696 278 -226.92 278H227.92C235.696 278 242 284.304 242 292.08V292.08H-241V292.08Z" fill="#404040"/>
<line x1="-194.645" y1="503.66" x2="222.131" y2="503.66" stroke="#808080"/>
<path d="M10.7299 518.959C10.5407 518.959 10.3919 518.932 10.2832 518.878V518.441C10.4261 518.482 10.5749 518.502 10.7299 518.502C10.9291 518.502 11.08 518.441 11.1826 518.321C11.2872 518.201 11.3395 518.027 11.3395 517.801V513.403H11.8526V517.759C11.8526 518.14 11.756 518.434 11.5629 518.643C11.3697 518.853 11.092 518.959 10.7299 518.959Z" fill="white"/>
<path d="M13.3911 514.504V516.643C13.3911 516.911 13.4524 517.112 13.5752 517.244C13.6979 517.377 13.8901 517.443 14.1516 517.443C14.4977 517.443 14.7502 517.349 14.9092 517.16C15.0701 516.972 15.1506 516.664 15.1506 516.237V514.504H15.6516V517.801H15.2381L15.1657 517.359H15.1385C15.0359 517.521 14.8931 517.645 14.71 517.732C14.5289 517.818 14.3216 517.861 14.0883 517.861C13.6858 517.861 13.384 517.766 13.1828 517.575C12.9836 517.385 12.884 517.08 12.884 516.661V514.504H13.3911Z" fill="white"/>
<path d="M17.1871 517.801H16.6861V513.121H17.1871V517.801Z" fill="white"/>
<path d="M43.681 517.801L43.1317 516.402H41.3631L40.8199 517.801H40.3008L42.0452 513.385H42.4768L44.2122 517.801H43.681ZM42.9718 515.942L42.4587 514.579C42.3923 514.407 42.3239 514.195 42.2535 513.945C42.2092 514.137 42.1458 514.349 42.0633 514.579L41.5442 515.942H42.9718Z" fill="white"/>
<path d="M47.4197 514.504V514.82L46.807 514.892C46.8633 514.962 46.9136 515.055 46.9579 515.169C47.0022 515.281 47.0243 515.409 47.0243 515.551C47.0243 515.874 46.9136 516.131 46.6923 516.324C46.471 516.516 46.1672 516.613 45.7809 516.613C45.6823 516.613 45.5897 516.605 45.5032 516.589C45.2899 516.701 45.1833 516.842 45.1833 517.013C45.1833 517.103 45.2205 517.17 45.2949 517.214C45.3694 517.256 45.4972 517.277 45.6782 517.277H46.2637C46.6219 517.277 46.8965 517.353 47.0877 517.503C47.2808 517.653 47.3774 517.872 47.3774 518.159C47.3774 518.524 47.2305 518.801 46.9368 518.992C46.643 519.184 46.2144 519.281 45.6511 519.281C45.2185 519.281 44.8845 519.2 44.6491 519.04C44.4157 518.88 44.299 518.653 44.299 518.36C44.299 518.16 44.3634 517.986 44.4921 517.84C44.6209 517.693 44.802 517.594 45.0354 517.542C44.9509 517.504 44.8795 517.445 44.8211 517.365C44.7648 517.284 44.7366 517.191 44.7366 517.085C44.7366 516.965 44.7688 516.859 44.8332 516.769C44.8976 516.679 44.9992 516.592 45.138 516.507C44.967 516.437 44.8271 516.318 44.7185 516.149C44.6119 515.981 44.5585 515.788 44.5585 515.572C44.5585 515.211 44.6672 514.933 44.8845 514.739C45.1018 514.542 45.4096 514.444 45.808 514.444C45.9811 514.444 46.137 514.464 46.2758 514.504H47.4197ZM44.7819 518.354C44.7819 518.533 44.8573 518.668 45.0082 518.76C45.1591 518.852 45.3754 518.899 45.6571 518.899C46.0776 518.899 46.3885 518.835 46.5897 518.709C46.7929 518.585 46.8945 518.415 46.8945 518.201C46.8945 518.022 46.8392 517.898 46.7285 517.828C46.6179 517.76 46.4096 517.726 46.1038 517.726H45.5032C45.2758 517.726 45.0988 517.78 44.972 517.888C44.8453 517.996 44.7819 518.152 44.7819 518.354ZM45.0535 515.56C45.0535 515.791 45.1189 515.965 45.2497 516.083C45.3805 516.202 45.5625 516.261 45.7959 516.261C46.2849 516.261 46.5293 516.024 46.5293 515.551C46.5293 515.056 46.2819 514.808 45.7869 514.808C45.5515 514.808 45.3704 514.871 45.2436 514.997C45.1169 515.124 45.0535 515.311 45.0535 515.56Z" fill="white"/>
<path d="M50.9229 516.149C50.9229 516.687 50.7871 517.107 50.5155 517.41C50.2438 517.71 49.8686 517.861 49.3897 517.861C49.094 517.861 48.8314 517.792 48.602 517.653C48.3726 517.515 48.1956 517.316 48.0708 517.058C47.9461 516.799 47.8837 516.496 47.8837 516.149C47.8837 515.612 48.0185 515.194 48.2881 514.895C48.5578 514.594 48.932 514.444 49.4109 514.444C49.8736 514.444 50.2408 514.597 50.5124 514.904C50.7861 515.211 50.9229 515.626 50.9229 516.149ZM48.4028 516.149C48.4028 516.571 48.4873 516.891 48.6563 517.112C48.8254 517.333 49.0738 517.443 49.4018 517.443C49.7298 517.443 49.9783 517.334 50.1473 517.115C50.3183 516.894 50.4038 516.573 50.4038 516.149C50.4038 515.73 50.3183 515.413 50.1473 515.196C49.9783 514.977 49.7278 514.868 49.3958 514.868C49.0678 514.868 48.8203 514.975 48.6533 515.19C48.4863 515.404 48.4028 515.724 48.4028 516.149Z" fill="white"/>
<path d="M75.845 516.631C75.845 517.018 75.7041 517.32 75.4224 517.536C75.1408 517.753 74.7585 517.861 74.2756 517.861C73.7525 517.861 73.35 517.794 73.0684 517.66V517.166C73.2494 517.242 73.4466 517.303 73.6599 517.347C73.8732 517.391 74.0844 517.413 74.2937 517.413C74.6357 517.413 74.8933 517.349 75.0663 517.22C75.2394 517.09 75.3259 516.91 75.3259 516.679C75.3259 516.527 75.2947 516.402 75.2323 516.306C75.1719 516.208 75.0693 516.118 74.9245 516.035C74.7816 515.953 74.5633 515.86 74.2695 515.756C73.8591 515.609 73.5653 515.436 73.3883 515.235C73.2132 515.035 73.1257 514.773 73.1257 514.45C73.1257 514.111 73.2535 513.842 73.509 513.641C73.7645 513.441 74.1025 513.34 74.5231 513.34C74.9617 513.34 75.3651 513.421 75.7333 513.581L75.5733 514.026C75.2092 513.874 74.8551 513.798 74.511 513.798C74.2394 513.798 74.0271 513.856 73.8742 513.972C73.7213 514.088 73.6448 514.25 73.6448 514.456C73.6448 514.609 73.673 514.734 73.7293 514.832C73.7857 514.928 73.8802 515.018 74.013 515.1C74.1478 515.18 74.353 515.269 74.6287 515.368C75.0915 515.532 75.4094 515.708 75.5824 515.897C75.7575 516.085 75.845 516.33 75.845 516.631Z" fill="white"/>
<path d="M78.0384 517.861C77.5495 517.861 77.1631 517.713 76.8794 517.416C76.5978 517.119 76.4569 516.707 76.4569 516.18C76.4569 515.648 76.5877 515.226 76.8493 514.913C77.1128 514.601 77.466 514.444 77.9086 514.444C78.3231 514.444 78.651 514.581 78.8925 514.853C79.1339 515.124 79.2547 515.482 79.2547 515.927V516.243H76.976C76.9861 516.63 77.0837 516.924 77.2688 517.124C77.4559 517.325 77.7185 517.425 78.0565 517.425C78.4126 517.425 78.7647 517.351 79.1128 517.202V517.648C78.9358 517.724 78.7677 517.778 78.6088 517.81C78.4519 517.844 78.2617 517.861 78.0384 517.861ZM77.9026 514.862C77.637 514.862 77.4247 514.949 77.2658 515.121C77.1088 515.293 77.0163 515.532 76.9881 515.837H78.7174C78.7174 515.522 78.647 515.281 78.5062 515.115C78.3653 514.947 78.1641 514.862 77.9026 514.862Z" fill="white"/>
<path d="M81.1493 517.449C81.2378 517.449 81.3233 517.443 81.4058 517.431C81.4883 517.417 81.5537 517.403 81.602 517.389V517.771C81.5477 517.797 81.4672 517.818 81.3605 517.834C81.2559 517.852 81.1613 517.861 81.0768 517.861C80.437 517.861 80.1171 517.525 80.1171 516.853V514.892H79.6433V514.652L80.1171 514.444L80.3284 513.74H80.6181V514.504H81.5778V514.892H80.6181V516.832C80.6181 517.031 80.6654 517.183 80.7599 517.29C80.8545 517.396 80.9843 517.449 81.1493 517.449Z" fill="white"/>
<path d="M107.665 515.595C107.665 516.299 107.486 516.853 107.128 517.256C106.771 517.659 106.275 517.86 105.64 517.86C104.99 517.86 104.488 517.663 104.134 517.268C103.782 516.871 103.605 516.311 103.605 515.589C103.605 514.873 103.783 514.319 104.137 513.926C104.491 513.531 104.994 513.333 105.646 513.333C106.279 513.333 106.774 513.534 107.131 513.935C107.487 514.336 107.665 514.89 107.665 515.595ZM104.149 515.595C104.149 516.191 104.275 516.643 104.529 516.952C104.785 517.259 105.155 517.412 105.64 517.412C106.129 517.412 106.498 517.259 106.747 516.952C106.997 516.645 107.122 516.193 107.122 515.595C107.122 515.004 106.997 514.556 106.747 514.251C106.5 513.944 106.133 513.791 105.646 513.791C105.157 513.791 104.785 513.945 104.529 514.254C104.275 514.561 104.149 515.008 104.149 515.595Z" fill="white"/>
<path d="M109.016 514.504V516.642C109.016 516.911 109.077 517.111 109.2 517.244C109.323 517.376 109.515 517.442 109.777 517.442C110.123 517.442 110.375 517.348 110.534 517.159C110.695 516.971 110.776 516.663 110.776 516.236V514.504H111.277V517.8H110.863L110.791 517.358H110.764C110.661 517.52 110.518 517.645 110.335 517.731C110.154 517.817 109.947 517.86 109.713 517.86C109.311 517.86 109.009 517.765 108.808 517.575C108.609 517.384 108.509 517.079 108.509 516.66V514.504H109.016Z" fill="white"/>
<path d="M113.38 517.448C113.468 517.448 113.554 517.442 113.636 517.43C113.719 517.416 113.784 517.402 113.832 517.388V517.77C113.778 517.796 113.697 517.817 113.591 517.833C113.486 517.851 113.392 517.86 113.307 517.86C112.667 517.86 112.347 517.524 112.347 516.853V514.892H111.874V514.651L112.347 514.443L112.559 513.74H112.848V514.504H113.808V514.892H112.848V516.832C112.848 517.03 112.896 517.182 112.99 517.289C113.085 517.395 113.215 517.448 113.38 517.448Z" fill="white"/>
<path d="M137.933 517.802H137.347L134.936 514.112H134.912C134.944 514.545 134.96 514.942 134.96 515.303V517.802H134.486V513.405H135.066L137.471 517.08H137.495C137.491 517.026 137.482 516.853 137.468 516.56C137.454 516.265 137.449 516.055 137.453 515.928V513.405H137.933V517.802Z" fill="white"/>
<path d="M141.895 516.151C141.895 516.688 141.759 517.108 141.488 517.411C141.216 517.712 140.841 517.862 140.362 517.862C140.066 517.862 139.803 517.793 139.574 517.655C139.345 517.516 139.168 517.318 139.043 517.059C138.918 516.801 138.856 516.498 138.856 516.151C138.856 515.614 138.991 515.195 139.26 514.897C139.53 514.596 139.904 514.445 140.383 514.445C140.846 514.445 141.213 514.599 141.484 514.906C141.758 515.212 141.895 515.628 141.895 516.151ZM139.375 516.151C139.375 516.572 139.459 516.893 139.628 517.113C139.797 517.334 140.046 517.444 140.374 517.444C140.702 517.444 140.95 517.335 141.119 517.116C141.29 516.896 141.376 516.574 141.376 516.151C141.376 515.732 141.29 515.414 141.119 515.197C140.95 514.979 140.7 514.87 140.368 514.87C140.04 514.87 139.792 514.977 139.625 515.191C139.458 515.406 139.375 515.726 139.375 516.151Z" fill="white"/>
<path d="M143.47 517.802L142.214 514.506H142.751L143.464 516.461C143.625 516.918 143.719 517.215 143.747 517.351H143.771C143.794 517.245 143.863 517.025 143.98 516.692C144.098 516.357 144.363 515.629 144.773 514.506H145.311L144.055 517.802H143.47Z" fill="white"/>
<path d="M169.977 515.561C169.977 516.287 169.779 516.843 169.383 517.228C168.988 517.611 168.42 517.802 167.677 517.802H166.455V513.405H167.807C168.493 513.405 169.026 513.594 169.407 513.973C169.787 514.352 169.977 514.882 169.977 515.561ZM169.434 515.579C169.434 515.006 169.289 514.574 168.999 514.283C168.712 513.992 168.283 513.847 167.714 513.847H166.968V517.36H167.593C168.205 517.36 168.664 517.211 168.972 516.912C169.28 516.611 169.434 516.167 169.434 515.579Z" fill="white"/>
<path d="M172.255 517.862C171.766 517.862 171.38 517.714 171.096 517.417C170.814 517.12 170.674 516.708 170.674 516.181C170.674 515.65 170.804 515.228 171.066 514.915C171.33 514.602 171.683 514.445 172.125 514.445C172.54 514.445 172.868 514.582 173.109 514.855C173.351 515.125 173.471 515.483 173.471 515.928V516.244H171.193C171.203 516.631 171.3 516.925 171.485 517.125C171.673 517.326 171.935 517.426 172.273 517.426C172.629 517.426 172.981 517.352 173.329 517.204V517.649C173.152 517.725 172.984 517.779 172.825 517.811C172.669 517.845 172.478 517.862 172.255 517.862ZM172.119 514.864C171.854 514.864 171.641 514.95 171.482 515.122C171.326 515.295 171.233 515.533 171.205 515.838H172.934C172.934 515.523 172.864 515.283 172.723 515.116C172.582 514.948 172.381 514.864 172.119 514.864Z" fill="white"/>
<path d="M176.413 517.802H174.014V517.462L175.819 514.894H174.126V514.506H176.368V514.894L174.587 517.414H176.413V517.802Z" fill="white"/>
<rect x="3.5957" y="432.602" width="20.7787" height="71.1326" fill="#00612A"/>
<rect x="97.3965" y="437.344" width="20.7787" height="66.3904" fill="#00612A"/>
<rect x="3.5957" y="403.556" width="20.7787" height="29.0458" fill="#14D768"/>
<rect x="97.3965" y="410.077" width="20.7787" height="27.2675" fill="#14D768"/>
<rect x="66.5254" y="488.915" width="20.7787" height="14.8193" fill="#00612A"/>
<rect x="160.326" y="497.806" width="20.7787" height="5.92772" fill="#00612A"/>
<rect x="66.5254" y="438.529" width="20.7787" height="50.3856" fill="#14D768"/>
<rect x="160.326" y="478.245" width="20.7787" height="19.5615" fill="#14D768"/>
<rect x="35.0605" y="492.472" width="20.7787" height="11.2627" fill="#00612A"/>
<rect x="128.861" y="491.285" width="20.7787" height="12.4482" fill="#00612A"/>
<rect x="35.0605" y="455.126" width="20.7787" height="37.3446" fill="#14D768"/>
<rect x="128.861" y="450.384" width="20.7787" height="40.9012" fill="#14D768"/>
</g>
<defs>
<linearGradient id="paint0_linear" x1="193.5" y1="-420" x2="193.5" y2="820" gradientUnits="userSpaceOnUse">
<stop stop-color="#14D768"/>
<stop offset="1" stop-color="#14D768" stop-opacity="0"/>
</linearGradient>
</defs>
</svg>
