<svg width="242" height="264" viewBox="0 0 242 264" fill="none" xmlns="http://www.w3.org/2000/svg">
<g clip-path="url(#clip0)">
<mask id="mask0" mask-type="alpha" maskUnits="userSpaceOnUse" x="0" y="0" width="242" height="264">
<rect width="242" height="264" fill="#C4C4C4"/>
</mask>
<g mask="url(#mask0)">
<rect x="-241" width="483" height="264" rx="15" fill="#0D0D0D"/>
<path d="M-241 14.08C-241 6.30383 -234.696 0 -226.92 0H227.92C235.696 0 242 6.30383 242 14.08H-241Z" fill="#404040"/>
<line x1="-194.645" y1="225.66" x2="222.131" y2="225.66" stroke="#808080"/>
<path d="M10.7299 240.959C10.5407 240.959 10.3919 240.932 10.2832 240.878V240.441C10.4261 240.482 10.5749 240.502 10.7299 240.502C10.9291 240.502 11.08 240.441 11.1826 240.321C11.2872 240.201 11.3395 240.027 11.3395 239.801V235.403H11.8526V239.759C11.8526 240.14 11.756 240.434 11.5629 240.643C11.3697 240.853 11.092 240.959 10.7299 240.959Z" fill="white"/>
<path d="M13.3911 236.504V238.643C13.3911 238.911 13.4524 239.112 13.5752 239.244C13.6979 239.377 13.8901 239.443 14.1516 239.443C14.4977 239.443 14.7502 239.349 14.9092 239.16C15.0701 238.972 15.1506 238.664 15.1506 238.237V236.504H15.6516V239.801H15.2381L15.1657 239.359H15.1385C15.0359 239.521 14.8931 239.645 14.71 239.732C14.5289 239.818 14.3216 239.861 14.0883 239.861C13.6858 239.861 13.384 239.766 13.1828 239.575C12.9836 239.385 12.884 239.08 12.884 238.661V236.504H13.3911Z" fill="white"/>
<path d="M17.1871 239.801H16.6861V235.121H17.1871V239.801Z" fill="white"/>
<path d="M43.681 239.801L43.1317 238.402H41.3631L40.8199 239.801H40.3008L42.0452 235.385H42.4768L44.2122 239.801H43.681ZM42.9718 237.942L42.4587 236.579C42.3923 236.407 42.3239 236.195 42.2535 235.945C42.2092 236.137 42.1458 236.349 42.0633 236.579L41.5442 237.942H42.9718Z" fill="white"/>
<path d="M47.4197 236.504V236.82L46.807 236.892C46.8633 236.962 46.9136 237.055 46.9579 237.169C47.0022 237.281 47.0243 237.409 47.0243 237.551C47.0243 237.874 46.9136 238.131 46.6923 238.324C46.471 238.516 46.1672 238.613 45.7809 238.613C45.6823 238.613 45.5897 238.605 45.5032 238.589C45.2899 238.701 45.1833 238.842 45.1833 239.013C45.1833 239.103 45.2205 239.17 45.2949 239.214C45.3694 239.256 45.4972 239.277 45.6782 239.277H46.2637C46.6219 239.277 46.8965 239.353 47.0877 239.503C47.2808 239.653 47.3774 239.872 47.3774 240.159C47.3774 240.524 47.2305 240.801 46.9368 240.992C46.643 241.184 46.2144 241.281 45.6511 241.281C45.2185 241.281 44.8845 241.2 44.6491 241.04C44.4157 240.88 44.299 240.653 44.299 240.36C44.299 240.16 44.3634 239.986 44.4921 239.84C44.6209 239.693 44.802 239.594 45.0354 239.542C44.9509 239.504 44.8795 239.445 44.8211 239.365C44.7648 239.284 44.7366 239.191 44.7366 239.085C44.7366 238.965 44.7688 238.859 44.8332 238.769C44.8976 238.679 44.9992 238.592 45.138 238.507C44.967 238.437 44.8271 238.318 44.7185 238.149C44.6119 237.981 44.5585 237.788 44.5585 237.572C44.5585 237.211 44.6672 236.933 44.8845 236.739C45.1018 236.542 45.4096 236.444 45.808 236.444C45.9811 236.444 46.137 236.464 46.2758 236.504H47.4197ZM44.7819 240.354C44.7819 240.533 44.8573 240.668 45.0082 240.76C45.1591 240.852 45.3754 240.899 45.6571 240.899C46.0776 240.899 46.3885 240.835 46.5897 240.709C46.7929 240.585 46.8945 240.415 46.8945 240.201C46.8945 240.022 46.8392 239.898 46.7285 239.828C46.6179 239.76 46.4096 239.726 46.1038 239.726H45.5032C45.2758 239.726 45.0988 239.78 44.972 239.888C44.8453 239.996 44.7819 240.152 44.7819 240.354ZM45.0535 237.56C45.0535 237.791 45.1189 237.965 45.2497 238.083C45.3805 238.202 45.5625 238.261 45.7959 238.261C46.2849 238.261 46.5293 238.024 46.5293 237.551C46.5293 237.056 46.2819 236.808 45.7869 236.808C45.5515 236.808 45.3704 236.871 45.2436 236.997C45.1169 237.124 45.0535 237.311 45.0535 237.56Z" fill="white"/>
<path d="M50.9229 238.149C50.9229 238.687 50.7871 239.107 50.5155 239.41C50.2438 239.71 49.8686 239.861 49.3897 239.861C49.094 239.861 48.8314 239.792 48.602 239.653C48.3726 239.515 48.1956 239.316 48.0708 239.058C47.9461 238.799 47.8837 238.496 47.8837 238.149C47.8837 237.612 48.0185 237.194 48.2881 236.895C48.5578 236.594 48.932 236.444 49.4109 236.444C49.8736 236.444 50.2408 236.597 50.5124 236.904C50.7861 237.211 50.9229 237.626 50.9229 238.149ZM48.4028 238.149C48.4028 238.571 48.4873 238.891 48.6563 239.112C48.8254 239.333 49.0738 239.443 49.4018 239.443C49.7298 239.443 49.9783 239.334 50.1473 239.115C50.3183 238.894 50.4038 238.573 50.4038 238.149C50.4038 237.73 50.3183 237.413 50.1473 237.196C49.9783 236.977 49.7278 236.868 49.3958 236.868C49.0678 236.868 48.8203 236.975 48.6533 237.19C48.4863 237.404 48.4028 237.724 48.4028 238.149Z" fill="white"/>
<path d="M75.845 238.631C75.845 239.018 75.7041 239.32 75.4224 239.536C75.1408 239.753 74.7585 239.861 74.2756 239.861C73.7525 239.861 73.35 239.794 73.0684 239.66V239.166C73.2494 239.242 73.4466 239.303 73.6599 239.347C73.8732 239.391 74.0844 239.413 74.2937 239.413C74.6357 239.413 74.8933 239.349 75.0663 239.22C75.2394 239.09 75.3259 238.91 75.3259 238.679C75.3259 238.527 75.2947 238.402 75.2323 238.306C75.1719 238.208 75.0693 238.118 74.9245 238.035C74.7816 237.953 74.5633 237.86 74.2695 237.756C73.8591 237.609 73.5653 237.436 73.3883 237.235C73.2132 237.035 73.1257 236.773 73.1257 236.45C73.1257 236.111 73.2535 235.842 73.509 235.641C73.7645 235.441 74.1025 235.34 74.5231 235.34C74.9617 235.34 75.3651 235.421 75.7333 235.581L75.5733 236.026C75.2092 235.874 74.8551 235.798 74.511 235.798C74.2394 235.798 74.0271 235.856 73.8742 235.972C73.7213 236.088 73.6448 236.25 73.6448 236.456C73.6448 236.609 73.673 236.734 73.7293 236.832C73.7857 236.928 73.8802 237.018 74.013 237.1C74.1478 237.18 74.353 237.269 74.6287 237.368C75.0915 237.532 75.4094 237.708 75.5824 237.897C75.7575 238.085 75.845 238.33 75.845 238.631Z" fill="white"/>
<path d="M78.0384 239.861C77.5495 239.861 77.1631 239.713 76.8794 239.416C76.5978 239.119 76.4569 238.707 76.4569 238.18C76.4569 237.648 76.5877 237.226 76.8493 236.913C77.1128 236.601 77.466 236.444 77.9086 236.444C78.3231 236.444 78.651 236.581 78.8925 236.853C79.1339 237.124 79.2547 237.482 79.2547 237.927V238.243H76.976C76.9861 238.63 77.0837 238.924 77.2688 239.124C77.4559 239.325 77.7185 239.425 78.0565 239.425C78.4126 239.425 78.7647 239.351 79.1128 239.202V239.648C78.9358 239.724 78.7677 239.778 78.6088 239.81C78.4519 239.844 78.2617 239.861 78.0384 239.861ZM77.9026 236.862C77.637 236.862 77.4247 236.949 77.2658 237.121C77.1088 237.293 77.0163 237.532 76.9881 237.837H78.7174C78.7174 237.522 78.647 237.281 78.5062 237.115C78.3653 236.947 78.1641 236.862 77.9026 236.862Z" fill="white"/>
<path d="M81.1493 239.449C81.2378 239.449 81.3233 239.443 81.4058 239.431C81.4883 239.417 81.5537 239.403 81.602 239.389V239.771C81.5477 239.797 81.4672 239.818 81.3605 239.834C81.2559 239.852 81.1613 239.861 81.0768 239.861C80.437 239.861 80.1171 239.525 80.1171 238.853V236.892H79.6433V236.652L80.1171 236.444L80.3284 235.74H80.6181V236.504H81.5778V236.892H80.6181V238.832C80.6181 239.031 80.6654 239.183 80.7599 239.29C80.8545 239.396 80.9843 239.449 81.1493 239.449Z" fill="white"/>
<path d="M107.665 237.595C107.665 238.299 107.486 238.853 107.128 239.256C106.771 239.659 106.275 239.86 105.64 239.86C104.99 239.86 104.488 239.663 104.134 239.268C103.782 238.871 103.605 238.311 103.605 237.589C103.605 236.873 103.783 236.319 104.137 235.926C104.491 235.531 104.994 235.333 105.646 235.333C106.279 235.333 106.774 235.534 107.131 235.935C107.487 236.336 107.665 236.89 107.665 237.595ZM104.149 237.595C104.149 238.191 104.275 238.643 104.529 238.952C104.785 239.259 105.155 239.412 105.64 239.412C106.129 239.412 106.498 239.259 106.747 238.952C106.997 238.645 107.122 238.193 107.122 237.595C107.122 237.004 106.997 236.556 106.747 236.251C106.5 235.944 106.133 235.791 105.646 235.791C105.157 235.791 104.785 235.945 104.529 236.254C104.275 236.561 104.149 237.008 104.149 237.595Z" fill="white"/>
<path d="M109.016 236.504V238.642C109.016 238.911 109.077 239.111 109.2 239.244C109.323 239.376 109.515 239.442 109.777 239.442C110.123 239.442 110.375 239.348 110.534 239.159C110.695 238.971 110.776 238.663 110.776 238.236V236.504H111.277V239.8H110.863L110.791 239.358H110.764C110.661 239.52 110.518 239.645 110.335 239.731C110.154 239.817 109.947 239.86 109.713 239.86C109.311 239.86 109.009 239.765 108.808 239.575C108.609 239.384 108.509 239.079 108.509 238.66V236.504H109.016Z" fill="white"/>
<path d="M113.38 239.448C113.468 239.448 113.554 239.442 113.636 239.43C113.719 239.416 113.784 239.402 113.832 239.388V239.77C113.778 239.796 113.697 239.817 113.591 239.833C113.486 239.851 113.392 239.86 113.307 239.86C112.667 239.86 112.347 239.524 112.347 238.853V236.892H111.874V236.651L112.347 236.443L112.559 235.74H112.848V236.504H113.808V236.892H112.848V238.832C112.848 239.03 112.896 239.182 112.99 239.289C113.085 239.395 113.215 239.448 113.38 239.448Z" fill="white"/>
<path d="M137.933 239.802H137.347L134.936 236.112H134.912C134.944 236.545 134.96 236.942 134.96 237.303V239.802H134.486V235.405H135.066L137.471 239.08H137.495C137.491 239.026 137.482 238.853 137.468 238.56C137.454 238.265 137.449 238.055 137.453 237.928V235.405H137.933V239.802Z" fill="white"/>
<path d="M141.895 238.151C141.895 238.688 141.759 239.108 141.488 239.411C141.216 239.712 140.841 239.862 140.362 239.862C140.066 239.862 139.803 239.793 139.574 239.655C139.345 239.516 139.168 239.318 139.043 239.059C138.918 238.801 138.856 238.498 138.856 238.151C138.856 237.614 138.991 237.195 139.26 236.897C139.53 236.596 139.904 236.445 140.383 236.445C140.846 236.445 141.213 236.599 141.484 236.906C141.758 237.212 141.895 237.628 141.895 238.151ZM139.375 238.151C139.375 238.572 139.459 238.893 139.628 239.113C139.797 239.334 140.046 239.444 140.374 239.444C140.702 239.444 140.95 239.335 141.119 239.116C141.29 238.896 141.376 238.574 141.376 238.151C141.376 237.732 141.29 237.414 141.119 237.197C140.95 236.979 140.7 236.87 140.368 236.87C140.04 236.87 139.792 236.977 139.625 237.191C139.458 237.406 139.375 237.726 139.375 238.151Z" fill="white"/>
<path d="M143.47 239.802L142.214 236.506H142.751L143.464 238.461C143.625 238.918 143.719 239.215 143.747 239.351H143.771C143.794 239.245 143.863 239.025 143.98 238.692C144.098 238.357 144.363 237.629 144.773 236.506H145.311L144.055 239.802H143.47Z" fill="white"/>
<path d="M169.977 237.561C169.977 238.287 169.779 238.843 169.383 239.228C168.988 239.611 168.42 239.802 167.677 239.802H166.455V235.405H167.807C168.493 235.405 169.026 235.594 169.407 235.973C169.787 236.352 169.977 236.882 169.977 237.561ZM169.434 237.579C169.434 237.006 169.289 236.574 168.999 236.283C168.712 235.992 168.283 235.847 167.714 235.847H166.968V239.36H167.593C168.205 239.36 168.664 239.211 168.972 238.912C169.28 238.611 169.434 238.167 169.434 237.579Z" fill="white"/>
<path d="M172.255 239.862C171.766 239.862 171.38 239.714 171.096 239.417C170.814 239.12 170.674 238.708 170.674 238.181C170.674 237.65 170.804 237.228 171.066 236.915C171.33 236.602 171.683 236.445 172.125 236.445C172.54 236.445 172.868 236.582 173.109 236.855C173.351 237.125 173.471 237.483 173.471 237.928V238.244H171.193C171.203 238.631 171.3 238.925 171.485 239.125C171.673 239.326 171.935 239.426 172.273 239.426C172.629 239.426 172.981 239.352 173.329 239.204V239.649C173.152 239.725 172.984 239.779 172.825 239.811C172.669 239.845 172.478 239.862 172.255 239.862ZM172.119 236.864C171.854 236.864 171.641 236.95 171.482 237.122C171.326 237.295 171.233 237.533 171.205 237.838H172.934C172.934 237.523 172.864 237.283 172.723 237.116C172.582 236.948 172.381 236.864 172.119 236.864Z" fill="white"/>
<path d="M176.413 239.802H174.014V239.462L175.819 236.894H174.126V236.506H176.368V236.894L174.587 239.414H176.413V239.802Z" fill="white"/>
<rect x="3.5957" y="154.602" width="20.7787" height="71.1326" fill="#00612A"/>
<rect x="97.3965" y="159.344" width="20.7787" height="66.3904" fill="#00612A"/>
<rect x="3.5957" y="125.556" width="20.7787" height="29.0458" fill="#14D768"/>
<rect x="97.3965" y="132.077" width="20.7787" height="27.2675" fill="#14D768"/>
<rect x="66.5254" y="210.915" width="20.7787" height="14.8193" fill="#00612A"/>
<rect x="160.326" y="219.806" width="20.7787" height="5.92772" fill="#00612A"/>
<rect x="66.5254" y="160.529" width="20.7787" height="50.3856" fill="#14D768"/>
<rect x="160.326" y="200.245" width="20.7787" height="19.5615" fill="#14D768"/>
<rect x="35.0605" y="214.472" width="20.7787" height="11.2627" fill="#00612A"/>
<rect x="128.861" y="213.285" width="20.7787" height="12.4482" fill="#00612A"/>
<rect x="35.0605" y="177.126" width="20.7787" height="37.3446" fill="#14D768"/>
<rect x="128.861" y="172.384" width="20.7787" height="40.9012" fill="#14D768"/>
</g>
</g>
<defs>
<clipPath id="clip0">
<rect width="242" height="264" fill="white"/>
</clipPath>
</defs>
</svg>
