<svg width="345" height="119" viewBox="0 0 345 119" fill="none" xmlns="http://www.w3.org/2000/svg">
<path d="M17.0532 103.906C17.0532 106.844 16.215 109.094 14.5386 110.656C12.8703 112.219 10.4574 113 7.2998 113H2.24609V95.1533H7.84912C10.7625 95.1533 13.0249 95.9224 14.6362 97.4604C16.2476 98.9985 17.0532 101.147 17.0532 103.906ZM13.1226 104.003C13.1226 100.17 11.4299 98.2539 8.04443 98.2539H6.03027V109.875H7.65381C11.2996 109.875 13.1226 107.918 13.1226 104.003ZM31.626 113L30.9058 111.145H30.8081C30.1815 111.934 29.5345 112.483 28.8672 112.792C28.208 113.094 27.3454 113.244 26.2793 113.244C24.9691 113.244 23.9355 112.87 23.1787 112.121C22.43 111.372 22.0557 110.306 22.0557 108.923C22.0557 107.474 22.5602 106.408 23.5693 105.725C24.5866 105.033 26.1165 104.65 28.1592 104.577L30.5273 104.504V103.906C30.5273 102.522 29.8193 101.831 28.4033 101.831C27.3128 101.831 26.0311 102.16 24.5581 102.819L23.3252 100.305C24.8958 99.4827 26.6374 99.0718 28.5498 99.0718C30.3809 99.0718 31.7847 99.4705 32.7612 100.268C33.7378 101.066 34.2261 102.278 34.2261 103.906V113H31.626ZM30.5273 106.677L29.0869 106.726C28.0046 106.758 27.1989 106.953 26.6699 107.312C26.141 107.67 25.8765 108.215 25.8765 108.947C25.8765 109.997 26.4787 110.522 27.6831 110.522C28.5457 110.522 29.2334 110.274 29.7461 109.777C30.2669 109.281 30.5273 108.622 30.5273 107.8V106.677ZM44.8926 113.244C43.2894 113.244 42.028 112.622 41.1084 111.376C40.1969 110.131 39.7412 108.406 39.7412 106.201C39.7412 103.963 40.2051 102.221 41.1328 100.976C42.0687 99.7228 43.3545 99.0962 44.9902 99.0962C46.7074 99.0962 48.0176 99.7635 48.9209 101.098H49.043C48.8558 100.081 48.7622 99.1735 48.7622 98.376V94.0059H52.4976V113H49.6411L48.9209 111.23H48.7622C47.9159 112.573 46.626 113.244 44.8926 113.244ZM46.1987 110.278C47.1509 110.278 47.8467 110.001 48.2861 109.448C48.7337 108.894 48.9779 107.954 49.0186 106.628V106.225C49.0186 104.76 48.7907 103.71 48.335 103.076C47.8874 102.441 47.1549 102.124 46.1377 102.124C45.3076 102.124 44.6606 102.478 44.1968 103.186C43.741 103.885 43.5132 104.907 43.5132 106.25C43.5132 107.592 43.7451 108.601 44.209 109.277C44.6729 109.944 45.3361 110.278 46.1987 110.278ZM61.8579 106.152C61.8579 107.503 62.0776 108.524 62.5171 109.216C62.9647 109.908 63.689 110.253 64.6899 110.253C65.6828 110.253 66.3949 109.912 66.8262 109.228C67.2656 108.536 67.4854 107.511 67.4854 106.152C67.4854 104.801 67.2656 103.788 66.8262 103.112C66.3867 102.437 65.6665 102.099 64.6655 102.099C63.6727 102.099 62.9565 102.437 62.5171 103.112C62.0776 103.78 61.8579 104.793 61.8579 106.152ZM71.2939 106.152C71.2939 108.374 70.708 110.111 69.5361 111.364C68.3643 112.618 66.7326 113.244 64.6411 113.244C63.3309 113.244 62.1753 112.959 61.1743 112.39C60.1733 111.812 59.4043 110.986 58.8672 109.912C58.3301 108.837 58.0615 107.584 58.0615 106.152C58.0615 103.922 58.6434 102.189 59.8071 100.952C60.9709 99.7147 62.6066 99.0962 64.7144 99.0962C66.0246 99.0962 67.1802 99.381 68.1812 99.9507C69.1821 100.52 69.9512 101.338 70.4883 102.404C71.0254 103.47 71.2939 104.72 71.2939 106.152ZM86.3916 108.947C86.3916 110.347 85.9033 111.413 84.9268 112.146C83.9583 112.878 82.5057 113.244 80.5688 113.244C79.576 113.244 78.7297 113.175 78.0298 113.037C77.3299 112.906 76.6748 112.711 76.0645 112.451V109.375C76.7562 109.7 77.5334 109.973 78.396 110.192C79.2668 110.412 80.0317 110.522 80.6909 110.522C82.0418 110.522 82.7173 110.131 82.7173 109.35C82.7173 109.057 82.6278 108.821 82.4487 108.642C82.2697 108.455 81.9604 108.247 81.521 108.02C81.0815 107.784 80.4956 107.511 79.7632 107.202C78.7134 106.762 77.9403 106.355 77.4438 105.981C76.9556 105.607 76.5975 105.179 76.3696 104.699C76.1499 104.211 76.04 103.613 76.04 102.905C76.04 101.692 76.508 100.756 77.4438 100.097C78.3879 99.4299 79.7225 99.0962 81.4478 99.0962C83.0916 99.0962 84.6908 99.4543 86.2451 100.17L85.1221 102.856C84.4385 102.563 83.7996 102.323 83.2056 102.136C82.6115 101.949 82.0052 101.855 81.3867 101.855C80.2881 101.855 79.7388 102.152 79.7388 102.746C79.7388 103.08 79.9137 103.369 80.2637 103.613C80.6217 103.857 81.3989 104.219 82.5952 104.699C83.6613 105.131 84.4425 105.533 84.939 105.908C85.4354 106.282 85.8016 106.713 86.0376 107.202C86.2736 107.69 86.3916 108.272 86.3916 108.947ZM113.389 113H109.666V105.029C109.666 104.044 109.491 103.308 109.141 102.819C108.791 102.323 108.233 102.075 107.468 102.075C106.427 102.075 105.674 102.425 105.21 103.125C104.746 103.816 104.514 104.968 104.514 106.579V113H100.791V99.3525H103.635L104.136 101.098H104.343C104.758 100.439 105.328 99.9425 106.052 99.6089C106.785 99.2671 107.615 99.0962 108.542 99.0962C110.129 99.0962 111.334 99.5275 112.156 100.39C112.978 101.245 113.389 102.482 113.389 104.101V113ZM128.389 113L127.668 111.145H127.571C126.944 111.934 126.297 112.483 125.63 112.792C124.971 113.094 124.108 113.244 123.042 113.244C121.732 113.244 120.698 112.87 119.941 112.121C119.193 111.372 118.818 110.306 118.818 108.923C118.818 107.474 119.323 106.408 120.332 105.725C121.349 105.033 122.879 104.65 124.922 104.577L127.29 104.504V103.906C127.29 102.522 126.582 101.831 125.166 101.831C124.076 101.831 122.794 102.16 121.321 102.819L120.088 100.305C121.659 99.4827 123.4 99.0718 125.312 99.0718C127.144 99.0718 128.547 99.4705 129.524 100.268C130.5 101.066 130.989 102.278 130.989 103.906V113H128.389ZM127.29 106.677L125.85 106.726C124.767 106.758 123.962 106.953 123.433 107.312C122.904 107.67 122.639 108.215 122.639 108.947C122.639 109.997 123.241 110.522 124.446 110.522C125.308 110.522 125.996 110.274 126.509 109.777C127.03 109.281 127.29 108.622 127.29 107.8V106.677ZM123.469 96.5693C123.217 96.5693 122.973 96.6792 122.737 96.8989C122.509 97.1105 122.342 97.436 122.236 97.8755H120.417C120.507 96.6955 120.841 95.7718 121.418 95.1045C122.004 94.4372 122.778 94.1035 123.738 94.1035C124.071 94.1035 124.397 94.1727 124.714 94.311C125.04 94.4412 125.357 94.5877 125.667 94.7505C125.984 94.9051 126.293 95.0475 126.594 95.1777C126.895 95.3079 127.192 95.373 127.485 95.373C127.738 95.373 127.978 95.2673 128.206 95.0557C128.442 94.8441 128.612 94.5186 128.718 94.0791H130.537C130.448 95.2591 130.106 96.1828 129.512 96.8501C128.926 97.5174 128.161 97.8511 127.217 97.8511C126.883 97.8511 126.554 97.786 126.228 97.6558C125.911 97.5174 125.593 97.3709 125.276 97.2163C124.967 97.0535 124.661 96.9071 124.36 96.7769C124.059 96.6385 123.762 96.5693 123.469 96.5693ZM140.3 106.152C140.3 107.503 140.52 108.524 140.959 109.216C141.407 109.908 142.131 110.253 143.132 110.253C144.125 110.253 144.837 109.912 145.269 109.228C145.708 108.536 145.928 107.511 145.928 106.152C145.928 104.801 145.708 103.788 145.269 103.112C144.829 102.437 144.109 102.099 143.108 102.099C142.115 102.099 141.399 102.437 140.959 103.112C140.52 103.78 140.3 104.793 140.3 106.152ZM149.736 106.152C149.736 108.374 149.15 110.111 147.979 111.364C146.807 112.618 145.175 113.244 143.083 113.244C141.773 113.244 140.618 112.959 139.617 112.39C138.616 111.812 137.847 110.986 137.31 109.912C136.772 108.837 136.504 107.584 136.504 106.152C136.504 103.922 137.086 102.189 138.25 100.952C139.413 99.7147 141.049 99.0962 143.157 99.0962C144.467 99.0962 145.623 99.381 146.624 99.9507C147.625 100.52 148.394 101.338 148.931 102.404C149.468 103.47 149.736 104.72 149.736 106.152ZM169.958 101.745C169.169 101.745 168.551 101.997 168.103 102.502C167.655 102.998 167.399 103.706 167.334 104.626H172.559C172.542 103.706 172.302 102.998 171.838 102.502C171.375 101.997 170.748 101.745 169.958 101.745ZM170.483 113.244C168.286 113.244 166.569 112.638 165.332 111.425C164.095 110.213 163.477 108.496 163.477 106.274C163.477 103.987 164.046 102.221 165.186 100.976C166.333 99.7228 167.916 99.0962 169.934 99.0962C171.863 99.0962 173.364 99.6455 174.438 100.744C175.513 101.843 176.05 103.361 176.05 105.297V107.104H167.249C167.289 108.162 167.603 108.988 168.188 109.582C168.774 110.176 169.596 110.473 170.654 110.473C171.476 110.473 172.253 110.388 172.986 110.217C173.718 110.046 174.483 109.773 175.281 109.399V112.28C174.63 112.605 173.934 112.845 173.193 113C172.453 113.163 171.549 113.244 170.483 113.244ZM194.175 113H190.452V105.029C190.452 104.044 190.277 103.308 189.927 102.819C189.577 102.323 189.019 102.075 188.254 102.075C187.213 102.075 186.46 102.425 185.996 103.125C185.532 103.816 185.3 104.968 185.3 106.579V113H181.577V99.3525H184.421L184.922 101.098H185.129C185.544 100.439 186.114 99.9425 186.838 99.6089C187.571 99.2671 188.401 99.0962 189.329 99.0962C190.916 99.0962 192.12 99.5275 192.942 100.39C193.764 101.245 194.175 102.482 194.175 104.101V113ZM206.05 113.244C201.802 113.244 199.678 110.913 199.678 106.25C199.678 103.93 200.256 102.16 201.411 100.939C202.567 99.7106 204.223 99.0962 206.379 99.0962C207.958 99.0962 209.374 99.4054 210.627 100.024L209.529 102.905C208.943 102.669 208.398 102.478 207.893 102.331C207.389 102.176 206.884 102.099 206.379 102.099C204.443 102.099 203.474 103.474 203.474 106.225C203.474 108.894 204.443 110.229 206.379 110.229C207.096 110.229 207.759 110.135 208.369 109.948C208.979 109.753 209.59 109.452 210.2 109.045V112.231C209.598 112.613 208.988 112.878 208.369 113.024C207.759 113.171 206.986 113.244 206.05 113.244ZM218.84 106.152C218.84 107.503 219.06 108.524 219.5 109.216C219.947 109.908 220.671 110.253 221.672 110.253C222.665 110.253 223.377 109.912 223.809 109.228C224.248 108.536 224.468 107.511 224.468 106.152C224.468 104.801 224.248 103.788 223.809 103.112C223.369 102.437 222.649 102.099 221.648 102.099C220.655 102.099 219.939 102.437 219.5 103.112C219.06 103.78 218.84 104.793 218.84 106.152ZM228.276 106.152C228.276 108.374 227.69 110.111 226.519 111.364C225.347 112.618 223.715 113.244 221.624 113.244C220.313 113.244 219.158 112.959 218.157 112.39C217.156 111.812 216.387 110.986 215.85 109.912C215.312 108.837 215.044 107.584 215.044 106.152C215.044 103.922 215.626 102.189 216.79 100.952C217.953 99.7147 219.589 99.0962 221.697 99.0962C223.007 99.0962 224.163 99.381 225.164 99.9507C226.165 100.52 226.934 101.338 227.471 102.404C228.008 103.47 228.276 104.72 228.276 106.152ZM246.45 113H242.727V105.029C242.727 104.044 242.552 103.308 242.202 102.819C241.852 102.323 241.295 102.075 240.53 102.075C239.488 102.075 238.735 102.425 238.271 103.125C237.808 103.816 237.576 104.968 237.576 106.579V113H233.853V99.3525H236.697L237.197 101.098H237.405C237.82 100.439 238.389 99.9425 239.114 99.6089C239.846 99.2671 240.676 99.0962 241.604 99.0962C243.191 99.0962 244.395 99.5275 245.217 100.39C246.039 101.245 246.45 102.482 246.45 104.101V113ZM258.533 110.278C259.184 110.278 259.965 110.135 260.876 109.851V112.622C259.949 113.037 258.809 113.244 257.458 113.244C255.969 113.244 254.883 112.87 254.199 112.121C253.524 111.364 253.186 110.233 253.186 108.728V102.148H251.404V100.573L253.455 99.3281L254.529 96.4473H256.909V99.3525H260.73V102.148H256.909V108.728C256.909 109.257 257.056 109.647 257.349 109.899C257.65 110.152 258.044 110.278 258.533 110.278ZM273.765 99.0962C274.269 99.0962 274.688 99.1328 275.022 99.2061L274.741 102.697C274.44 102.616 274.074 102.575 273.643 102.575C272.454 102.575 271.527 102.88 270.859 103.491C270.2 104.101 269.871 104.956 269.871 106.054V113H266.147V99.3525H268.967L269.517 101.647H269.7C270.123 100.882 270.693 100.268 271.409 99.8042C272.133 99.3322 272.918 99.0962 273.765 99.0962ZM288.667 113L287.947 111.145H287.849C287.222 111.934 286.576 112.483 285.908 112.792C285.249 113.094 284.386 113.244 283.32 113.244C282.01 113.244 280.977 112.87 280.22 112.121C279.471 111.372 279.097 110.306 279.097 108.923C279.097 107.474 279.601 106.408 280.61 105.725C281.628 105.033 283.158 104.65 285.2 104.577L287.568 104.504V103.906C287.568 102.522 286.86 101.831 285.444 101.831C284.354 101.831 283.072 102.16 281.599 102.819L280.366 100.305C281.937 99.4827 283.678 99.0718 285.591 99.0718C287.422 99.0718 288.826 99.4705 289.802 100.268C290.779 101.066 291.267 102.278 291.267 103.906V113H288.667ZM287.568 106.677L286.128 106.726C285.046 106.758 284.24 106.953 283.711 107.312C283.182 107.67 282.917 108.215 282.917 108.947C282.917 109.997 283.52 110.522 284.724 110.522C285.587 110.522 286.274 110.274 286.787 109.777C287.308 109.281 287.568 108.622 287.568 107.8V106.677ZM301.934 113.244C300.33 113.244 299.069 112.622 298.149 111.376C297.238 110.131 296.782 108.406 296.782 106.201C296.782 103.963 297.246 102.221 298.174 100.976C299.11 99.7228 300.396 99.0962 302.031 99.0962C303.748 99.0962 305.059 99.7635 305.962 101.098H306.084C305.897 100.081 305.803 99.1735 305.803 98.376V94.0059H309.539V113H306.682L305.962 111.23H305.803C304.957 112.573 303.667 113.244 301.934 113.244ZM303.24 110.278C304.192 110.278 304.888 110.001 305.327 109.448C305.775 108.894 306.019 107.954 306.06 106.628V106.225C306.06 104.76 305.832 103.71 305.376 103.076C304.928 102.441 304.196 102.124 303.179 102.124C302.349 102.124 301.702 102.478 301.238 103.186C300.782 103.885 300.554 104.907 300.554 106.25C300.554 107.592 300.786 108.601 301.25 109.277C301.714 109.944 302.377 110.278 303.24 110.278ZM318.899 106.152C318.899 107.503 319.119 108.524 319.558 109.216C320.006 109.908 320.73 110.253 321.731 110.253C322.724 110.253 323.436 109.912 323.867 109.228C324.307 108.536 324.526 107.511 324.526 106.152C324.526 104.801 324.307 103.788 323.867 103.112C323.428 102.437 322.708 102.099 321.707 102.099C320.714 102.099 319.998 102.437 319.558 103.112C319.119 103.78 318.899 104.793 318.899 106.152ZM328.335 106.152C328.335 108.374 327.749 110.111 326.577 111.364C325.405 112.618 323.774 113.244 321.682 113.244C320.372 113.244 319.216 112.959 318.215 112.39C317.214 111.812 316.445 110.986 315.908 109.912C315.371 108.837 315.103 107.584 315.103 106.152C315.103 103.922 315.684 102.189 316.848 100.952C318.012 99.7147 319.648 99.0962 321.755 99.0962C323.066 99.0962 324.221 99.381 325.222 99.9507C326.223 100.52 326.992 101.338 327.529 102.404C328.066 103.47 328.335 104.72 328.335 106.152ZM343.433 108.947C343.433 110.347 342.944 111.413 341.968 112.146C340.999 112.878 339.547 113.244 337.61 113.244C336.617 113.244 335.771 113.175 335.071 113.037C334.371 112.906 333.716 112.711 333.105 112.451V109.375C333.797 109.7 334.574 109.973 335.437 110.192C336.308 110.412 337.073 110.522 337.732 110.522C339.083 110.522 339.758 110.131 339.758 109.35C339.758 109.057 339.669 108.821 339.49 108.642C339.311 108.455 339.001 108.247 338.562 108.02C338.123 107.784 337.537 107.511 336.804 107.202C335.754 106.762 334.981 106.355 334.485 105.981C333.997 105.607 333.639 105.179 333.411 104.699C333.191 104.211 333.081 103.613 333.081 102.905C333.081 101.692 333.549 100.756 334.485 100.097C335.429 99.4299 336.764 99.0962 338.489 99.0962C340.133 99.0962 341.732 99.4543 343.286 100.17L342.163 102.856C341.479 102.563 340.841 102.323 340.247 102.136C339.653 101.949 339.046 101.855 338.428 101.855C337.329 101.855 336.78 102.152 336.78 102.746C336.78 103.08 336.955 103.369 337.305 103.613C337.663 103.857 338.44 104.219 339.636 104.699C340.702 105.131 341.484 105.533 341.98 105.908C342.476 106.282 342.843 106.713 343.079 107.202C343.315 107.69 343.433 108.272 343.433 108.947Z" fill="#DA7F0B"/>
<path d="M186.262 0H159.738L141 18.7378V45.2622L159.738 64H186.262L205 45.2622V18.7378L186.262 0ZM197.889 42.3111L183.311 56.8889H162.689L148.111 42.3111V21.6889L162.689 7.11111H183.311L197.889 21.6889V42.3111Z" fill="#DA7F0B"/>
<path d="M176.555 14.2222H169.444V35.5556H176.555V14.2222Z" fill="#DA7F0B"/>
<path d="M176.555 42.6667H169.444V49.7778H176.555V42.6667Z" fill="#DA7F0B"/>
</svg>
