<svg width="86" height="22" viewBox="0 0 86 22" fill="none" xmlns="http://www.w3.org/2000/svg">
<path d="M75.9759 9.9H78.2034L78.2034 14.4848L79.874 12.65L81.5446 14.3L77.0896 18.7L72.6347 14.3L74.3053 12.65L75.9759 14.4848V9.9Z" fill="#A6A6A6"/>
<path fill-rule="evenodd" clip-rule="evenodd" d="M79.3171 0H70.4072C69.6647 0 68.1797 0.44 68.1797 2.2V19.8C68.1797 20.5333 68.6252 22 70.4072 22H83.7721C84.5146 22 85.9996 21.56 85.9996 19.8V6.6L79.3171 0ZM83.7721 7.7V19.8H70.4072V2.2H78.2034V7.7H83.7721Z" fill="#A6A6A6"/>
<path d="M0 7.43359H2.51753C3.68541 7.43359 4.52845 7.60547 5.04665 7.94922C5.56872 8.29297 5.82975 8.83594 5.82975 9.57812C5.82975 10.0781 5.70214 10.4941 5.44691 10.8262C5.19167 11.1582 4.82429 11.3672 4.34476 11.4531V11.5117C4.94031 11.625 5.3773 11.8496 5.65573 12.1855C5.93804 12.5176 6.07919 12.9688 6.07919 13.5391C6.07919 14.3086 5.81235 14.9121 5.27868 15.3496C4.74888 15.7832 4.01025 16 3.0628 16H0V7.43359ZM1.38638 10.9727H2.72055C3.30063 10.9727 3.72408 10.8809 3.99092 10.6973C4.25775 10.5098 4.39117 10.1934 4.39117 9.74805C4.39117 9.3457 4.24615 9.05469 3.95611 8.875C3.66994 8.69531 3.21362 8.60547 2.58713 8.60547H1.38638V10.9727ZM1.38638 12.1094V14.8223H2.85977C3.43985 14.8223 3.87684 14.7109 4.17074 14.4883C4.46851 14.2617 4.6174 13.9062 4.6174 13.4219C4.6174 12.9766 4.46658 12.6465 4.16494 12.4316C3.8633 12.2168 3.40504 12.1094 2.79016 12.1094H1.38638Z" fill="#A6A6A6"/>
<path d="M11.7117 16L11.4391 15.0977H11.3927C11.0833 15.4922 10.772 15.7617 10.4588 15.9062C10.1455 16.0469 9.74333 16.1172 9.2522 16.1172C8.62185 16.1172 8.12879 15.9453 7.77301 15.6016C7.42109 15.2578 7.24514 14.7715 7.24514 14.1426C7.24514 13.4746 7.4907 12.9707 7.98183 12.6309C8.47296 12.291 9.22126 12.1055 10.2267 12.0742L11.3347 12.0391V11.6934C11.3347 11.2793 11.238 10.9707 11.0446 10.7676C10.8551 10.5605 10.5593 10.457 10.1571 10.457C9.82841 10.457 9.51323 10.5059 9.21159 10.6035C8.90995 10.7012 8.61992 10.8164 8.34148 10.9492L7.90062 9.96484C8.24867 9.78125 8.62958 9.64258 9.04337 9.54883C9.45716 9.45117 9.84774 9.40234 10.2151 9.40234C11.0311 9.40234 11.646 9.58203 12.0598 9.94141C12.4774 10.3008 12.6862 10.8652 12.6862 11.6348V16H11.7117ZM9.68145 15.0625C10.1765 15.0625 10.5728 14.9238 10.8706 14.6465C11.1722 14.3652 11.3231 13.9727 11.3231 13.4688V12.9062L10.4994 12.9414C9.85741 12.9648 9.38948 13.0742 9.09558 13.2695C8.80554 13.4609 8.66052 13.7559 8.66052 14.1543C8.66052 14.4434 8.7456 14.668 8.91575 14.8281C9.08591 14.9844 9.34114 15.0625 9.68145 15.0625Z" fill="#A6A6A6"/>
<path d="M15.9521 16H14.5889V9.51953H15.9521V16ZM14.5077 7.80273C14.5077 7.55664 14.5734 7.36719 14.7049 7.23438C14.8403 7.10156 15.0317 7.03516 15.2792 7.03516C15.5189 7.03516 15.7046 7.10156 15.8361 7.23438C15.9714 7.36719 16.0391 7.55664 16.0391 7.80273C16.0391 8.03711 15.9714 8.22266 15.8361 8.35938C15.7046 8.49219 15.5189 8.55859 15.2792 8.55859C15.0317 8.55859 14.8403 8.49219 14.7049 8.35938C14.5734 8.22266 14.5077 8.03711 14.5077 7.80273Z" fill="#A6A6A6"/>
<path d="M19.3339 12.6895L17.1818 9.51953H18.7364L20.1982 11.7871L21.6716 9.51953H23.2146L21.0567 12.6895L23.3248 16H21.7818L20.1982 13.5742L18.6204 16H17.0774L19.3339 12.6895Z" fill="#A6A6A6"/>
<path d="M28.4643 16L28.1917 15.0977H28.1452C27.8359 15.4922 27.5246 15.7617 27.2113 15.9062C26.8981 16.0469 26.4959 16.1172 26.0048 16.1172C25.3744 16.1172 24.8814 15.9453 24.5256 15.6016C24.1737 15.2578 23.9977 14.7715 23.9977 14.1426C23.9977 13.4746 24.2433 12.9707 24.7344 12.6309C25.2255 12.291 25.9738 12.1055 26.9793 12.0742L28.0872 12.0391V11.6934C28.0872 11.2793 27.9906 10.9707 27.7972 10.7676C27.6077 10.5605 27.3119 10.457 26.9097 10.457C26.581 10.457 26.2658 10.5059 25.9642 10.6035C25.6625 10.7012 25.3725 10.8164 25.094 10.9492L24.6532 9.96484C25.0012 9.78125 25.3822 9.64258 25.7959 9.54883C26.2097 9.45117 26.6003 9.40234 26.9677 9.40234C27.7837 9.40234 28.3985 9.58203 28.8123 9.94141C29.23 10.3008 29.4388 10.8652 29.4388 11.6348V16H28.4643ZM26.434 15.0625C26.929 15.0625 27.3254 14.9238 27.6232 14.6465C27.9248 14.3652 28.0756 13.9727 28.0756 13.4688V12.9062L27.2519 12.9414C26.61 12.9648 26.1421 13.0742 25.8481 13.2695C25.5581 13.4609 25.4131 13.7559 25.4131 14.1543C25.4131 14.4434 25.4982 14.668 25.6683 14.8281C25.8385 14.9844 26.0937 15.0625 26.434 15.0625Z" fill="#A6A6A6"/>
<path d="M34.5957 9.40234C34.8703 9.40234 35.0965 9.42188 35.2744 9.46094L35.1409 10.7441C34.9476 10.6973 34.7465 10.6738 34.5377 10.6738C33.9924 10.6738 33.5496 10.8535 33.2093 11.2129C32.8729 11.5723 32.7046 12.0391 32.7046 12.6133V16H31.3415V9.51953H32.4088L32.5886 10.6621H32.6582C32.8709 10.2754 33.1474 9.96875 33.4877 9.74219C33.8319 9.51562 34.2012 9.40234 34.5957 9.40234Z" fill="#A6A6A6"/>
<path d="M43.3084 8.51172C42.5118 8.51172 41.8853 8.79688 41.429 9.36719C40.9726 9.9375 40.7445 10.7246 40.7445 11.7285C40.7445 12.7793 40.963 13.5742 41.4 14.1133C41.8408 14.6523 42.477 14.9219 43.3084 14.9219C43.6681 14.9219 44.0161 14.8867 44.3525 14.8164C44.689 14.7422 45.039 14.6484 45.4025 14.5352V15.7363C44.7373 15.9902 43.9832 16.1172 43.1402 16.1172C41.8988 16.1172 40.9456 15.7383 40.2804 14.9805C39.6153 14.2188 39.2827 13.1309 39.2827 11.7168C39.2827 10.8262 39.4432 10.0469 39.7641 9.37891C40.089 8.71094 40.5569 8.19922 41.1679 7.84375C41.7789 7.48828 42.4963 7.31055 43.32 7.31055C44.1863 7.31055 44.9868 7.49414 45.7215 7.86133L45.2227 9.02734C44.9365 8.89062 44.6329 8.77148 44.3119 8.66992C43.9948 8.56445 43.6603 8.51172 43.3084 8.51172Z" fill="#A6A6A6"/>
<path d="M52.1197 13.6738C52.1197 14.4355 51.8471 15.0332 51.3018 15.4668C50.7566 15.9004 50.0044 16.1172 49.0453 16.1172C48.0863 16.1172 47.3013 15.9668 46.6902 15.666V14.3418C47.077 14.5254 47.4869 14.6699 47.92 14.7754C48.357 14.8809 48.763 14.9336 49.1382 14.9336C49.6873 14.9336 50.0914 14.8281 50.3505 14.6172C50.6135 14.4062 50.745 14.123 50.745 13.7676C50.745 13.4473 50.6251 13.1758 50.3853 12.9531C50.1456 12.7305 49.6506 12.4668 48.9003 12.1621C48.1269 11.8457 47.5816 11.4844 47.2645 11.0781C46.9474 10.6719 46.7889 10.1836 46.7889 9.61328C46.7889 8.89844 47.0402 8.33594 47.543 7.92578C48.0457 7.51562 48.7205 7.31055 49.5674 7.31055C50.3795 7.31055 51.1878 7.49023 51.9921 7.84961L51.5513 8.99219C50.7972 8.67188 50.1243 8.51172 49.5326 8.51172C49.084 8.51172 48.7437 8.61133 48.5117 8.81055C48.2797 9.00586 48.1636 9.26562 48.1636 9.58984C48.1636 9.8125 48.21 10.0039 48.3029 10.1641C48.3957 10.3203 48.5484 10.4688 48.7611 10.6094C48.9738 10.75 49.3567 10.9355 49.9097 11.166C50.5323 11.4277 50.9886 11.6719 51.2786 11.8984C51.5687 12.125 51.7814 12.3809 51.9167 12.666C52.0521 12.9512 52.1197 13.2871 52.1197 13.6738Z" fill="#A6A6A6"/>
<path d="M58.5934 7.43359H60.032L57.062 16H55.6002L52.6418 7.43359H54.0688L55.838 12.7598C55.9308 13.0137 56.0295 13.3418 56.1339 13.7441C56.2383 14.1426 56.306 14.4395 56.3369 14.6348C56.3872 14.3379 56.4645 13.9941 56.5689 13.6035C56.6733 13.2129 56.7584 12.9238 56.8242 12.7363L58.5934 7.43359Z" fill="#A6A6A6"/>
</svg>
