<svg width="172" height="22" viewBox="0 0 172 22" fill="none" xmlns="http://www.w3.org/2000/svg">
<path d="M161.796 9.9H164.024L164.024 14.4848L165.694 12.65L167.365 14.3L162.91 18.7L158.455 14.3L160.126 12.65L161.796 14.4848V9.9Z" fill="#A6A6A6"/>
<path fill-rule="evenodd" clip-rule="evenodd" d="M165.137 0H156.227C155.485 0 154 0.44 154 2.2V19.8C154 20.5333 154.445 22 156.227 22H169.592C170.335 22 171.82 21.56 171.82 19.8V6.6L165.137 0ZM169.592 7.7V19.8H156.227V2.2H164.024V7.7H169.592Z" fill="#A6A6A6"/>
<path d="M1.2251 7.71973H3.97998C5.25798 7.71973 6.1805 7.90592 6.74756 8.27832C7.31885 8.65072 7.60449 9.23893 7.60449 10.043C7.60449 10.5846 7.46484 11.0353 7.18555 11.395C6.90625 11.7547 6.50423 11.9811 5.97949 12.0742V12.1377C6.63118 12.2604 7.10938 12.5037 7.41406 12.8677C7.72298 13.2274 7.87744 13.7161 7.87744 14.334C7.87744 15.1676 7.58545 15.8215 7.00146 16.2954C6.42171 16.7651 5.61344 17 4.57666 17H1.2251V7.71973ZM2.74219 11.5537H4.20215C4.83691 11.5537 5.30029 11.4543 5.59229 11.2554C5.88428 11.0522 6.03027 10.7095 6.03027 10.2271C6.03027 9.79118 5.87158 9.47591 5.5542 9.28125C5.24105 9.08659 4.7417 8.98926 4.05615 8.98926H2.74219V11.5537ZM2.74219 12.7852V15.7241H4.35449C4.98926 15.7241 5.46745 15.6035 5.78906 15.3623C6.11491 15.1169 6.27783 14.7318 6.27783 14.207C6.27783 13.7246 6.11279 13.367 5.78271 13.1343C5.45264 12.9015 4.95117 12.7852 4.27832 12.7852H2.74219ZM14.431 17L14.1327 16.0225H14.0819C13.7434 16.4499 13.4027 16.7419 13.0599 16.8984C12.7171 17.0508 12.277 17.127 11.7396 17.127C11.0498 17.127 10.5103 16.9408 10.121 16.5684C9.73587 16.196 9.54332 15.6691 9.54332 14.9878C9.54332 14.2642 9.81204 13.7183 10.3495 13.3501C10.8869 12.9819 11.7058 12.7809 12.806 12.7471L14.0184 12.709V12.3345C14.0184 11.8859 13.9126 11.5516 13.701 11.3315C13.4937 11.1073 13.1699 10.9951 12.7298 10.9951C12.3701 10.9951 12.0253 11.048 11.6952 11.1538C11.3651 11.2596 11.0477 11.3844 10.743 11.5283L10.2606 10.4619C10.6415 10.263 11.0583 10.1128 11.5111 10.0112C11.9639 9.90544 12.3913 9.85254 12.7933 9.85254C13.6862 9.85254 14.3591 10.0472 14.8119 10.4365C15.2689 10.8258 15.4974 11.4373 15.4974 12.271V17H14.431ZM12.2093 15.9844C12.751 15.9844 13.1848 15.8341 13.5106 15.5337C13.8407 15.229 14.0057 14.8037 14.0057 14.2578V13.6484L13.1044 13.6865C12.4019 13.7119 11.8898 13.8304 11.5682 14.042C11.2508 14.2493 11.0921 14.5688 11.0921 15.0005C11.0921 15.3136 11.1852 15.557 11.3714 15.7305C11.5576 15.8997 11.8369 15.9844 12.2093 15.9844ZM19.4612 17H17.9695V9.97949H19.4612V17ZM17.8806 8.11963C17.8806 7.85303 17.9525 7.64779 18.0964 7.50391C18.2445 7.36003 18.454 7.28809 18.7248 7.28809C18.9872 7.28809 19.1903 7.36003 19.3342 7.50391C19.4823 7.64779 19.5564 7.85303 19.5564 8.11963C19.5564 8.37354 19.4823 8.57454 19.3342 8.72266C19.1903 8.86654 18.9872 8.93848 18.7248 8.93848C18.454 8.93848 18.2445 8.86654 18.0964 8.72266C17.9525 8.57454 17.8806 8.37354 17.8806 8.11963ZM23.5518 13.4136L21.1969 9.97949H22.898L24.4976 12.436L26.1099 9.97949H27.7984L25.4371 13.4136L27.919 17H26.2305L24.4976 14.3721L22.7711 17H21.0826L23.5518 13.4136ZM33.933 17L33.6347 16.0225H33.5839C33.2454 16.4499 32.9047 16.7419 32.562 16.8984C32.2192 17.0508 31.7791 17.127 31.2416 17.127C30.5519 17.127 30.0123 16.9408 29.623 16.5684C29.2379 16.196 29.0454 15.6691 29.0454 14.9878C29.0454 14.2642 29.3141 13.7183 29.8515 13.3501C30.3889 12.9819 31.2078 12.7809 32.308 12.7471L33.5204 12.709V12.3345C33.5204 11.8859 33.4147 11.5516 33.2031 11.3315C32.9957 11.1073 32.672 10.9951 32.2319 10.9951C31.8722 10.9951 31.5273 11.048 31.1972 11.1538C30.8671 11.2596 30.5497 11.3844 30.2451 11.5283L29.7626 10.4619C30.1435 10.263 30.5603 10.1128 31.0131 10.0112C31.4659 9.90544 31.8933 9.85254 32.2954 9.85254C33.1883 9.85254 33.8611 10.0472 34.3139 10.4365C34.7709 10.8258 34.9995 11.4373 34.9995 12.271V17H33.933ZM31.7114 15.9844C32.253 15.9844 32.6868 15.8341 33.0126 15.5337C33.3427 15.229 33.5078 14.8037 33.5078 14.2578V13.6484L32.6064 13.6865C31.9039 13.7119 31.3919 13.8304 31.0703 14.042C30.7529 14.2493 30.5942 14.5688 30.5942 15.0005C30.5942 15.3136 30.6873 15.557 30.8735 15.7305C31.0597 15.8997 31.339 15.9844 31.7114 15.9844ZM41.0325 9.85254C41.333 9.85254 41.5805 9.8737 41.7752 9.91602L41.6292 11.3062C41.4176 11.2554 41.1976 11.23 40.969 11.23C40.3724 11.23 39.8878 11.4246 39.5154 11.814C39.1473 12.2033 38.9632 12.709 38.9632 13.3311V17H37.4715V9.97949H38.6395L38.8362 11.2173H38.9124C39.1452 10.7983 39.4477 10.4661 39.8201 10.2207C40.1967 9.97526 40.6009 9.85254 41.0325 9.85254ZM51.3467 8.8877C50.475 8.8877 49.7894 9.19661 49.2901 9.81445C48.7907 10.4323 48.541 11.285 48.541 12.3726C48.541 13.5109 48.7801 14.3721 49.2583 14.9561C49.7407 15.54 50.4369 15.832 51.3467 15.832C51.7403 15.832 52.1211 15.7939 52.4893 15.7178C52.8574 15.6374 53.2404 15.5358 53.6382 15.4131V16.7144C52.9103 16.9894 52.0851 17.127 51.1626 17.127C49.8042 17.127 48.7611 16.7165 48.0332 15.8955C47.3054 15.0703 46.9414 13.8918 46.9414 12.3599C46.9414 11.395 47.117 10.5508 47.4683 9.82715C47.8237 9.10352 48.3358 8.54915 49.0044 8.16406C49.673 7.77897 50.458 7.58643 51.3594 7.58643C52.3073 7.58643 53.1833 7.78532 53.9873 8.18311L53.4414 9.44629C53.1283 9.29818 52.7961 9.16911 52.4448 9.05908C52.0978 8.94482 51.7318 8.8877 51.3467 8.8877ZM61.3788 14.48C61.3788 15.3052 61.0804 15.9526 60.4838 16.4224C59.8871 16.8921 59.064 17.127 58.0145 17.127C56.9651 17.127 56.106 16.964 55.4374 16.6382V15.2036C55.8606 15.4025 56.3091 15.5591 56.7831 15.6733C57.2613 15.7876 57.7056 15.8447 58.1161 15.8447C58.717 15.8447 59.1592 15.7305 59.4428 15.502C59.7305 15.2734 59.8744 14.9666 59.8744 14.5815C59.8744 14.2345 59.7432 13.9404 59.4808 13.6992C59.2185 13.458 58.6768 13.1724 57.8558 12.8423C57.0095 12.4995 56.4128 12.1081 56.0658 11.668C55.7188 11.2279 55.5453 10.6989 55.5453 10.0811C55.5453 9.30664 55.8204 8.69727 56.3705 8.25293C56.9206 7.80859 57.6591 7.58643 58.5858 7.58643C59.4745 7.58643 60.3589 7.78109 61.2391 8.17041L60.7567 9.4082C59.9315 9.0612 59.1952 8.8877 58.5477 8.8877C58.0568 8.8877 57.6845 8.99561 57.4305 9.21143C57.1766 9.42301 57.0497 9.70443 57.0497 10.0557C57.0497 10.2969 57.1005 10.5042 57.202 10.6777C57.3036 10.847 57.4707 11.0078 57.7035 11.1602C57.9362 11.3125 58.3552 11.5135 58.9603 11.7632C59.6416 12.0467 60.141 12.3112 60.4584 12.5566C60.7758 12.8021 61.0085 13.0793 61.1566 13.3882C61.3047 13.6971 61.3788 14.061 61.3788 14.48ZM68.8528 7.71973H70.427L67.177 17H65.5774L62.3401 7.71973H63.9016L65.8376 13.4897C65.9392 13.7648 66.0471 14.1203 66.1614 14.5562C66.2756 14.9878 66.3497 15.3094 66.3835 15.521C66.4385 15.1994 66.5232 14.827 66.6374 14.4038C66.7517 13.9806 66.8448 13.6675 66.9167 13.4644L68.8528 7.71973ZM78.018 17.127C77.1421 17.127 76.4586 16.8096 75.9677 16.1748C75.4768 15.54 75.2314 14.6493 75.2314 13.5024C75.2314 12.3514 75.479 11.4564 75.9741 10.8174C76.4734 10.1742 77.1632 9.85254 78.0434 9.85254C78.9659 9.85254 79.6684 10.1932 80.1508 10.8745H80.227C80.1551 10.3709 80.1191 9.97314 80.1191 9.68115V7.12305H81.6171V17H80.4492L80.1889 16.0796H80.1191C79.6409 16.7778 78.9406 17.127 78.018 17.127ZM78.4179 15.9209C79.0315 15.9209 79.478 15.7495 79.7573 15.4067C80.0366 15.0597 80.1805 14.499 80.1889 13.7246V13.5151C80.1889 12.6307 80.045 12.0023 79.7573 11.6299C79.4695 11.2575 79.0188 11.0713 78.4052 11.0713C77.8805 11.0713 77.4764 11.285 77.1928 11.7124C76.9093 12.1356 76.7675 12.7407 76.7675 13.5278C76.7675 14.3065 76.9051 14.901 77.1801 15.3115C77.4552 15.7178 77.8678 15.9209 78.4179 15.9209ZM88.5325 17L88.2342 16.0225H88.1834C87.8449 16.4499 87.5042 16.7419 87.1614 16.8984C86.8187 17.0508 86.3786 17.127 85.8411 17.127C85.1514 17.127 84.6118 16.9408 84.2225 16.5684C83.8374 16.196 83.6448 15.6691 83.6448 14.9878C83.6448 14.2642 83.9136 13.7183 84.451 13.3501C84.9884 12.9819 85.8073 12.7809 86.9075 12.7471L88.1199 12.709V12.3345C88.1199 11.8859 88.0141 11.5516 87.8026 11.3315C87.5952 11.1073 87.2715 10.9951 86.8314 10.9951C86.4717 10.9951 86.1268 11.048 85.7967 11.1538C85.4666 11.2596 85.1492 11.3844 84.8446 11.5283L84.3621 10.4619C84.743 10.263 85.1598 10.1128 85.6126 10.0112C86.0654 9.90544 86.4928 9.85254 86.8948 9.85254C87.7877 9.85254 88.4606 10.0472 88.9134 10.4365C89.3704 10.8258 89.5989 11.4373 89.5989 12.271V17H88.5325ZM86.3109 15.9844C86.8525 15.9844 87.2863 15.8341 87.6121 15.5337C87.9422 15.229 88.1072 14.8037 88.1072 14.2578V13.6484L87.2059 13.6865C86.5034 13.7119 85.9914 13.8304 85.6697 14.042C85.3524 14.2493 85.1937 14.5688 85.1937 15.0005C85.1937 15.3136 85.2868 15.557 85.473 15.7305C85.6592 15.8997 85.9385 15.9844 86.3109 15.9844ZM98.4532 15.9209C98.8171 15.9209 99.181 15.8638 99.545 15.7495V16.873C99.3799 16.945 99.1662 17.0042 98.9038 17.0508C98.6457 17.1016 98.377 17.127 98.0977 17.127C96.6843 17.127 95.9776 16.3822 95.9776 14.8926V11.1094H95.0191V10.4492L96.0474 9.90332L96.5552 8.41797H97.4756V9.97949H99.4751V11.1094H97.4756V14.8672C97.4756 15.2269 97.5645 15.4935 97.7422 15.667C97.9242 15.8363 98.1612 15.9209 98.4532 15.9209ZM105.737 17L105.438 16.0225H105.388C105.049 16.4499 104.708 16.7419 104.366 16.8984C104.023 17.0508 103.583 17.127 103.045 17.127C102.356 17.127 101.816 16.9408 101.427 16.5684C101.042 16.196 100.849 15.6691 100.849 14.9878C100.849 14.2642 101.118 13.7183 101.655 13.3501C102.193 12.9819 103.011 12.7809 104.112 12.7471L105.324 12.709V12.3345C105.324 11.8859 105.218 11.5516 105.007 11.3315C104.799 11.1073 104.476 10.9951 104.036 10.9951C103.676 10.9951 103.331 11.048 103.001 11.1538C102.671 11.2596 102.353 11.3844 102.049 11.5283L101.566 10.4619C101.947 10.263 102.364 10.1128 102.817 10.0112C103.27 9.90544 103.697 9.85254 104.099 9.85254C104.992 9.85254 105.665 10.0472 106.118 10.4365C106.575 10.8258 106.803 11.4373 106.803 12.271V17H105.737ZM103.515 15.9844C104.057 15.9844 104.49 15.8341 104.816 15.5337C105.146 15.229 105.311 14.8037 105.311 14.2578V13.6484L104.41 13.6865C103.708 13.7119 103.196 13.8304 102.874 14.042C102.557 14.2493 102.398 14.5688 102.398 15.0005C102.398 15.3136 102.491 15.557 102.677 15.7305C102.863 15.8997 103.143 15.9844 103.515 15.9844ZM112.862 9.85254C113.738 9.85254 114.419 10.1699 114.906 10.8047C115.396 11.4395 115.642 12.3302 115.642 13.4771C115.642 14.6281 115.394 15.5252 114.899 16.1685C114.404 16.8075 113.716 17.127 112.836 17.127C111.948 17.127 111.258 16.8075 110.767 16.1685H110.665L110.392 17H109.275V7.12305H110.767V9.47168C110.767 9.64518 110.758 9.90332 110.741 10.2461C110.725 10.5889 110.712 10.8068 110.703 10.8999H110.767C111.241 10.2017 111.939 9.85254 112.862 9.85254ZM112.474 11.0713C111.873 11.0713 111.44 11.249 111.173 11.6045C110.911 11.9557 110.775 12.5461 110.767 13.3755V13.4771C110.767 14.3319 110.902 14.9518 111.173 15.3369C111.444 15.7178 111.886 15.9082 112.5 15.9082C113.029 15.9082 113.429 15.6987 113.699 15.2798C113.975 14.8608 114.112 14.2557 114.112 13.4644C114.112 11.869 113.566 11.0713 112.474 11.0713ZM120.831 17.127C119.739 17.127 118.884 16.8096 118.266 16.1748C117.653 15.5358 117.346 14.6577 117.346 13.5405C117.346 12.3937 117.631 11.4924 118.203 10.8364C118.774 10.1805 119.559 9.85254 120.558 9.85254C121.484 9.85254 122.217 10.134 122.754 10.6968C123.291 11.2596 123.56 12.034 123.56 13.02V13.8262H118.882C118.903 14.5075 119.087 15.0322 119.434 15.4004C119.781 15.7643 120.27 15.9463 120.901 15.9463C121.315 15.9463 121.7 15.9082 122.056 15.832C122.415 15.7516 122.801 15.6204 123.211 15.4385V16.6509C122.847 16.8244 122.479 16.9471 122.107 17.019C121.734 17.091 121.309 17.127 120.831 17.127ZM120.558 10.9824C120.084 10.9824 119.703 11.1326 119.415 11.4331C119.132 11.7336 118.962 12.1715 118.907 12.7471H122.094C122.085 12.1673 121.946 11.7293 121.675 11.4331C121.404 11.1326 121.032 10.9824 120.558 10.9824ZM127.137 17H125.645V7.12305H127.137V17ZM134.058 17L133.76 16.0225H133.709C133.371 16.4499 133.03 16.7419 132.687 16.8984C132.345 17.0508 131.904 17.127 131.367 17.127C130.677 17.127 130.138 16.9408 129.748 16.5684C129.363 16.196 129.171 15.6691 129.171 14.9878C129.171 14.2642 129.439 13.7183 129.977 13.3501C130.514 12.9819 131.333 12.7809 132.433 12.7471L133.646 12.709V12.3345C133.646 11.8859 133.54 11.5516 133.328 11.3315C133.121 11.1073 132.797 10.9951 132.357 10.9951C131.998 10.9951 131.653 11.048 131.323 11.1538C130.993 11.2596 130.675 11.3844 130.37 11.5283L129.888 10.4619C130.269 10.263 130.686 10.1128 131.139 10.0112C131.591 9.90544 132.019 9.85254 132.421 9.85254C133.314 9.85254 133.987 10.0472 134.439 10.4365C134.896 10.8258 135.125 11.4373 135.125 12.271V17H134.058ZM131.837 15.9844C132.378 15.9844 132.812 15.8341 133.138 15.5337C133.468 15.229 133.633 14.8037 133.633 14.2578V13.6484L132.732 13.6865C132.029 13.7119 131.517 13.8304 131.196 14.042C130.878 14.2493 130.72 14.5688 130.72 15.0005C130.72 15.3136 130.813 15.557 130.999 15.7305C131.185 15.8997 131.464 15.9844 131.837 15.9844Z" fill="#A6A6A6"/>
</svg>
