<svg width="214" height="22" viewBox="0 0 214 22" fill="none" xmlns="http://www.w3.org/2000/svg">
<path d="M203.796 9.9H206.024L206.024 14.4848L207.694 12.65L209.365 14.3L204.91 18.7L200.455 14.3L202.126 12.65L203.796 14.4848V9.9Z" fill="#A6A6A6"/>
<path fill-rule="evenodd" clip-rule="evenodd" d="M207.137 0H198.227C197.485 0 196 0.44 196 2.2V19.8C196 20.5333 196.445 22 198.227 22H211.592C212.335 22 213.82 21.56 213.82 19.8V6.6L207.137 0ZM211.592 7.7V19.8H198.227V2.2H206.024V7.7H211.592Z" fill="#A6A6A6"/>
<path d="M1.2251 7.71973H3.97998C5.25798 7.71973 6.1805 7.90592 6.74756 8.27832C7.31885 8.65072 7.60449 9.23893 7.60449 10.043C7.60449 10.5846 7.46484 11.0353 7.18555 11.395C6.90625 11.7547 6.50423 11.9811 5.97949 12.0742V12.1377C6.63118 12.2604 7.10938 12.5037 7.41406 12.8677C7.72298 13.2274 7.87744 13.7161 7.87744 14.334C7.87744 15.1676 7.58545 15.8215 7.00146 16.2954C6.42171 16.7651 5.61344 17 4.57666 17H1.2251V7.71973ZM2.74219 11.5537H4.20215C4.83691 11.5537 5.30029 11.4543 5.59229 11.2554C5.88428 11.0522 6.03027 10.7095 6.03027 10.2271C6.03027 9.79118 5.87158 9.47591 5.5542 9.28125C5.24105 9.08659 4.7417 8.98926 4.05615 8.98926H2.74219V11.5537ZM2.74219 12.7852V15.7241H4.35449C4.98926 15.7241 5.46745 15.6035 5.78906 15.3623C6.11491 15.1169 6.27783 14.7318 6.27783 14.207C6.27783 13.7246 6.11279 13.367 5.78271 13.1343C5.45264 12.9015 4.95117 12.7852 4.27832 12.7852H2.74219ZM14.431 17L14.1327 16.0225H14.0819C13.7434 16.4499 13.4027 16.7419 13.0599 16.8984C12.7171 17.0508 12.277 17.127 11.7396 17.127C11.0498 17.127 10.5103 16.9408 10.121 16.5684C9.73587 16.196 9.54332 15.6691 9.54332 14.9878C9.54332 14.2642 9.81204 13.7183 10.3495 13.3501C10.8869 12.9819 11.7058 12.7809 12.806 12.7471L14.0184 12.709V12.3345C14.0184 11.8859 13.9126 11.5516 13.701 11.3315C13.4937 11.1073 13.1699 10.9951 12.7298 10.9951C12.3701 10.9951 12.0253 11.048 11.6952 11.1538C11.3651 11.2596 11.0477 11.3844 10.743 11.5283L10.2606 10.4619C10.6415 10.263 11.0583 10.1128 11.5111 10.0112C11.9639 9.90544 12.3913 9.85254 12.7933 9.85254C13.6862 9.85254 14.3591 10.0472 14.8119 10.4365C15.2689 10.8258 15.4974 11.4373 15.4974 12.271V17H14.431ZM12.2093 15.9844C12.751 15.9844 13.1848 15.8341 13.5106 15.5337C13.8407 15.229 14.0057 14.8037 14.0057 14.2578V13.6484L13.1044 13.6865C12.4019 13.7119 11.8898 13.8304 11.5682 14.042C11.2508 14.2493 11.0921 14.5688 11.0921 15.0005C11.0921 15.3136 11.1852 15.557 11.3714 15.7305C11.5576 15.8997 11.8369 15.9844 12.2093 15.9844ZM19.4612 17H17.9695V9.97949H19.4612V17ZM17.8806 8.11963C17.8806 7.85303 17.9525 7.64779 18.0964 7.50391C18.2445 7.36003 18.454 7.28809 18.7248 7.28809C18.9872 7.28809 19.1903 7.36003 19.3342 7.50391C19.4823 7.64779 19.5564 7.85303 19.5564 8.11963C19.5564 8.37354 19.4823 8.57454 19.3342 8.72266C19.1903 8.86654 18.9872 8.93848 18.7248 8.93848C18.454 8.93848 18.2445 8.86654 18.0964 8.72266C17.9525 8.57454 17.8806 8.37354 17.8806 8.11963ZM23.5518 13.4136L21.1969 9.97949H22.898L24.4976 12.436L26.1099 9.97949H27.7984L25.4371 13.4136L27.919 17H26.2305L24.4976 14.3721L22.7711 17H21.0826L23.5518 13.4136ZM33.933 17L33.6347 16.0225H33.5839C33.2454 16.4499 32.9047 16.7419 32.562 16.8984C32.2192 17.0508 31.7791 17.127 31.2416 17.127C30.5519 17.127 30.0123 16.9408 29.623 16.5684C29.2379 16.196 29.0454 15.6691 29.0454 14.9878C29.0454 14.2642 29.3141 13.7183 29.8515 13.3501C30.3889 12.9819 31.2078 12.7809 32.308 12.7471L33.5204 12.709V12.3345C33.5204 11.8859 33.4147 11.5516 33.2031 11.3315C32.9957 11.1073 32.672 10.9951 32.2319 10.9951C31.8722 10.9951 31.5273 11.048 31.1972 11.1538C30.8671 11.2596 30.5497 11.3844 30.2451 11.5283L29.7626 10.4619C30.1435 10.263 30.5603 10.1128 31.0131 10.0112C31.4659 9.90544 31.8933 9.85254 32.2954 9.85254C33.1883 9.85254 33.8611 10.0472 34.3139 10.4365C34.7709 10.8258 34.9995 11.4373 34.9995 12.271V17H33.933ZM31.7114 15.9844C32.253 15.9844 32.6868 15.8341 33.0126 15.5337C33.3427 15.229 33.5078 14.8037 33.5078 14.2578V13.6484L32.6064 13.6865C31.9039 13.7119 31.3919 13.8304 31.0703 14.042C30.7529 14.2493 30.5942 14.5688 30.5942 15.0005C30.5942 15.3136 30.6873 15.557 30.8735 15.7305C31.0597 15.8997 31.339 15.9844 31.7114 15.9844ZM41.0325 9.85254C41.333 9.85254 41.5805 9.8737 41.7752 9.91602L41.6292 11.3062C41.4176 11.2554 41.1976 11.23 40.969 11.23C40.3724 11.23 39.8878 11.4246 39.5154 11.814C39.1473 12.2033 38.9632 12.709 38.9632 13.3311V17H37.4715V9.97949H38.6395L38.8362 11.2173H38.9124C39.1452 10.7983 39.4477 10.4661 39.8201 10.2207C40.1967 9.97526 40.6009 9.85254 41.0325 9.85254ZM51.3467 8.8877C50.475 8.8877 49.7894 9.19661 49.2901 9.81445C48.7907 10.4323 48.541 11.285 48.541 12.3726C48.541 13.5109 48.7801 14.3721 49.2583 14.9561C49.7407 15.54 50.4369 15.832 51.3467 15.832C51.7403 15.832 52.1211 15.7939 52.4893 15.7178C52.8574 15.6374 53.2404 15.5358 53.6382 15.4131V16.7144C52.9103 16.9894 52.0851 17.127 51.1626 17.127C49.8042 17.127 48.7611 16.7165 48.0332 15.8955C47.3054 15.0703 46.9414 13.8918 46.9414 12.3599C46.9414 11.395 47.117 10.5508 47.4683 9.82715C47.8237 9.10352 48.3358 8.54915 49.0044 8.16406C49.673 7.77897 50.458 7.58643 51.3594 7.58643C52.3073 7.58643 53.1833 7.78532 53.9873 8.18311L53.4414 9.44629C53.1283 9.29818 52.7961 9.16911 52.4448 9.05908C52.0978 8.94482 51.7318 8.8877 51.3467 8.8877ZM61.3788 14.48C61.3788 15.3052 61.0804 15.9526 60.4838 16.4224C59.8871 16.8921 59.064 17.127 58.0145 17.127C56.9651 17.127 56.106 16.964 55.4374 16.6382V15.2036C55.8606 15.4025 56.3091 15.5591 56.7831 15.6733C57.2613 15.7876 57.7056 15.8447 58.1161 15.8447C58.717 15.8447 59.1592 15.7305 59.4428 15.502C59.7305 15.2734 59.8744 14.9666 59.8744 14.5815C59.8744 14.2345 59.7432 13.9404 59.4808 13.6992C59.2185 13.458 58.6768 13.1724 57.8558 12.8423C57.0095 12.4995 56.4128 12.1081 56.0658 11.668C55.7188 11.2279 55.5453 10.6989 55.5453 10.0811C55.5453 9.30664 55.8204 8.69727 56.3705 8.25293C56.9206 7.80859 57.6591 7.58643 58.5858 7.58643C59.4745 7.58643 60.3589 7.78109 61.2391 8.17041L60.7567 9.4082C59.9315 9.0612 59.1952 8.8877 58.5477 8.8877C58.0568 8.8877 57.6845 8.99561 57.4305 9.21143C57.1766 9.42301 57.0497 9.70443 57.0497 10.0557C57.0497 10.2969 57.1005 10.5042 57.202 10.6777C57.3036 10.847 57.4707 11.0078 57.7035 11.1602C57.9362 11.3125 58.3552 11.5135 58.9603 11.7632C59.6416 12.0467 60.141 12.3112 60.4584 12.5566C60.7758 12.8021 61.0085 13.0793 61.1566 13.3882C61.3047 13.6971 61.3788 14.061 61.3788 14.48ZM68.8528 7.71973H70.427L67.177 17H65.5774L62.3401 7.71973H63.9016L65.8376 13.4897C65.9392 13.7648 66.0471 14.1203 66.1614 14.5562C66.2756 14.9878 66.3497 15.3094 66.3835 15.521C66.4385 15.1994 66.5232 14.827 66.6374 14.4038C66.7517 13.9806 66.8448 13.6675 66.9167 13.4644L68.8528 7.71973ZM78.018 17.127C77.1421 17.127 76.4586 16.8096 75.9677 16.1748C75.4768 15.54 75.2314 14.6493 75.2314 13.5024C75.2314 12.3514 75.479 11.4564 75.9741 10.8174C76.4734 10.1742 77.1632 9.85254 78.0434 9.85254C78.9659 9.85254 79.6684 10.1932 80.1508 10.8745H80.227C80.1551 10.3709 80.1191 9.97314 80.1191 9.68115V7.12305H81.6171V17H80.4492L80.1889 16.0796H80.1191C79.6409 16.7778 78.9406 17.127 78.018 17.127ZM78.4179 15.9209C79.0315 15.9209 79.478 15.7495 79.7573 15.4067C80.0366 15.0597 80.1805 14.499 80.1889 13.7246V13.5151C80.1889 12.6307 80.045 12.0023 79.7573 11.6299C79.4695 11.2575 79.0188 11.0713 78.4052 11.0713C77.8805 11.0713 77.4764 11.285 77.1928 11.7124C76.9093 12.1356 76.7675 12.7407 76.7675 13.5278C76.7675 14.3065 76.9051 14.901 77.1801 15.3115C77.4552 15.7178 77.8678 15.9209 78.4179 15.9209ZM90.367 13.4771C90.367 14.6239 90.0729 15.5189 89.4847 16.1621C88.8965 16.8053 88.0776 17.127 87.0281 17.127C86.3722 17.127 85.7925 16.9788 85.2889 16.6826C84.7853 16.3864 84.3981 15.9611 84.1273 15.4067C83.8564 14.8524 83.721 14.2091 83.721 13.4771C83.721 12.3387 84.013 11.45 84.597 10.811C85.181 10.172 86.0041 9.85254 87.0662 9.85254C88.0819 9.85254 88.8859 10.1805 89.4783 10.8364C90.0708 11.4881 90.367 12.3683 90.367 13.4771ZM85.2571 13.4771C85.2571 15.0978 85.8559 15.9082 87.0535 15.9082C88.2384 15.9082 88.8309 15.0978 88.8309 13.4771C88.8309 11.8732 88.2342 11.0713 87.0408 11.0713C86.4145 11.0713 85.9596 11.2786 85.6761 11.6934C85.3968 12.1081 85.2571 12.7026 85.2571 13.4771ZM102.173 9.97949V10.7983L100.973 11.0205C101.083 11.1686 101.174 11.3506 101.246 11.5664C101.318 11.7822 101.354 12.0107 101.354 12.252C101.354 12.9756 101.104 13.5448 100.605 13.9595C100.106 14.3742 99.418 14.5815 98.542 14.5815C98.3177 14.5815 98.1146 14.5646 97.9327 14.5308C97.611 14.7297 97.4502 14.9624 97.4502 15.229C97.4502 15.3898 97.5243 15.5104 97.6724 15.5908C97.8247 15.6712 98.1019 15.7114 98.5039 15.7114H99.729C100.503 15.7114 101.092 15.8765 101.494 16.2065C101.896 16.5366 102.097 17.0127 102.097 17.6348C102.097 18.4303 101.769 19.0439 101.113 19.4756C100.457 19.9072 99.509 20.123 98.2691 20.123C97.3127 20.123 96.5827 19.9538 96.0791 19.6152C95.5756 19.2767 95.3238 18.7943 95.3238 18.168C95.3238 17.7363 95.4592 17.3724 95.73 17.0762C96.0051 16.7842 96.3881 16.5811 96.8789 16.4668C96.6801 16.3822 96.515 16.2467 96.3838 16.0605C96.2569 15.8701 96.1934 15.6712 96.1934 15.4639C96.1934 15.2015 96.2675 14.9793 96.4156 14.7974C96.5637 14.6154 96.7837 14.4355 97.0757 14.2578C96.7118 14.1012 96.4156 13.8473 96.187 13.4961C95.9628 13.1406 95.8506 12.7259 95.8506 12.252C95.8506 11.4902 96.0897 10.8999 96.5679 10.481C97.0503 10.062 97.7359 9.85254 98.6245 9.85254C98.8234 9.85254 99.0308 9.86735 99.2466 9.89697C99.4667 9.92236 99.6317 9.94987 99.7417 9.97949H102.173ZM96.6568 18.0918C96.6568 18.4134 96.8007 18.661 97.0884 18.8345C97.3804 19.008 97.7888 19.0947 98.3135 19.0947C99.126 19.0947 99.7312 18.9784 100.129 18.7456C100.527 18.5129 100.726 18.2039 100.726 17.8188C100.726 17.5142 100.616 17.2962 100.396 17.165C100.18 17.0381 99.7756 16.9746 99.1831 16.9746H98.0533C97.6259 16.9746 97.2852 17.0741 97.0313 17.2729C96.7816 17.4761 96.6568 17.749 96.6568 18.0918ZM97.2979 12.252C97.2979 12.6921 97.41 13.0306 97.6343 13.2676C97.8628 13.5046 98.1887 13.623 98.6119 13.623C99.4751 13.623 99.9068 13.1618 99.9068 12.2393C99.9068 11.7822 99.7989 11.431 99.583 11.1855C99.3715 10.9359 99.0477 10.811 98.6119 10.811C98.1802 10.811 97.8523 10.9338 97.628 11.1792C97.4079 11.4246 97.2979 11.7822 97.2979 12.252ZM107.432 9.85254C107.732 9.85254 107.98 9.8737 108.174 9.91602L108.028 11.3062C107.817 11.2554 107.597 11.23 107.368 11.23C106.771 11.23 106.287 11.4246 105.914 11.814C105.546 12.2033 105.362 12.709 105.362 13.3311V17H103.871V9.97949H105.038L105.235 11.2173H105.311C105.544 10.7983 105.847 10.4661 106.219 10.2207C106.596 9.97526 107 9.85254 107.432 9.85254ZM114.264 17L113.966 16.0225H113.915C113.577 16.4499 113.236 16.7419 112.893 16.8984C112.551 17.0508 112.11 17.127 111.573 17.127C110.883 17.127 110.344 16.9408 109.954 16.5684C109.569 16.196 109.377 15.6691 109.377 14.9878C109.377 14.2642 109.645 13.7183 110.183 13.3501C110.72 12.9819 111.539 12.7809 112.639 12.7471L113.852 12.709V12.3345C113.852 11.8859 113.746 11.5516 113.534 11.3315C113.327 11.1073 113.003 10.9951 112.563 10.9951C112.204 10.9951 111.859 11.048 111.529 11.1538C111.198 11.2596 110.881 11.3844 110.576 11.5283L110.094 10.4619C110.475 10.263 110.892 10.1128 111.344 10.0112C111.797 9.90544 112.225 9.85254 112.627 9.85254C113.52 9.85254 114.192 10.0472 114.645 10.4365C115.102 10.8258 115.331 11.4373 115.331 12.271V17H114.264ZM112.043 15.9844C112.584 15.9844 113.018 15.8341 113.344 15.5337C113.674 15.229 113.839 14.8037 113.839 14.2578V13.6484L112.938 13.6865C112.235 13.7119 111.723 13.8304 111.402 14.042C111.084 14.2493 110.926 14.5688 110.926 15.0005C110.926 15.3136 111.019 15.557 111.205 15.7305C111.391 15.8997 111.67 15.9844 112.043 15.9844ZM111.586 9.12256V8.96387C111.827 8.66764 112.074 8.33757 112.328 7.97363C112.587 7.6097 112.79 7.29867 112.938 7.04053H114.671V7.17383C114.451 7.43197 114.121 7.76628 113.68 8.17676C113.245 8.58301 112.876 8.89827 112.576 9.12256H111.586ZM121.326 11.1094H119.612V17H118.114V11.1094H116.959V10.4111L118.114 9.9541V9.49707C118.114 8.66764 118.309 8.05404 118.698 7.65625C119.087 7.25423 119.682 7.05322 120.482 7.05322C121.006 7.05322 121.523 7.13997 122.03 7.31348L121.637 8.44336C121.269 8.32487 120.917 8.26562 120.583 8.26562C120.245 8.26562 119.997 8.37142 119.84 8.58301C119.688 8.79036 119.612 9.10352 119.612 9.52246V9.97949H121.326V11.1094ZM124.011 17H122.519V9.97949H124.011V17ZM122.43 8.11963C122.43 7.85303 122.502 7.64779 122.646 7.50391C122.794 7.36003 123.004 7.28809 123.275 7.28809C123.537 7.28809 123.74 7.36003 123.884 7.50391C124.032 7.64779 124.106 7.85303 124.106 8.11963C124.106 8.37354 124.032 8.57454 123.884 8.72266C123.74 8.86654 123.537 8.93848 123.275 8.93848C123.004 8.93848 122.794 8.86654 122.646 8.72266C122.502 8.57454 122.43 8.37354 122.43 8.11963ZM129.377 17.127C128.315 17.127 127.507 16.818 126.953 16.2002C126.402 15.5781 126.127 14.6873 126.127 13.5278C126.127 12.3472 126.415 11.4395 126.991 10.8047C127.57 10.1699 128.406 9.85254 129.498 9.85254C130.239 9.85254 130.905 9.99007 131.498 10.2651L131.047 11.4648C130.416 11.2194 129.896 11.0967 129.485 11.0967C128.271 11.0967 127.664 11.9028 127.664 13.5151C127.664 14.3022 127.814 14.8947 128.114 15.2925C128.419 15.686 128.863 15.8828 129.447 15.8828C130.112 15.8828 130.74 15.7178 131.332 15.3877V16.689C131.066 16.8455 130.78 16.9577 130.476 17.0254C130.175 17.0931 129.809 17.127 129.377 17.127ZM139.6 13.4771C139.6 14.6239 139.306 15.5189 138.718 16.1621C138.129 16.8053 137.311 17.127 136.261 17.127C135.605 17.127 135.025 16.9788 134.522 16.6826C134.018 16.3864 133.631 15.9611 133.36 15.4067C133.089 14.8524 132.954 14.2091 132.954 13.4771C132.954 12.3387 133.246 11.45 133.83 10.811C134.414 10.172 135.237 9.85254 136.299 9.85254C137.315 9.85254 138.119 10.1805 138.711 10.8364C139.304 11.4881 139.6 12.3683 139.6 13.4771ZM134.49 13.4771C134.49 15.0978 135.089 15.9082 136.286 15.9082C137.471 15.9082 138.064 15.0978 138.064 13.4771C138.064 11.8732 137.467 11.0713 136.274 11.0713C135.647 11.0713 135.193 11.2786 134.909 11.6934C134.63 12.1081 134.49 12.7026 134.49 13.4771ZM145.608 7.71973L142.154 17H140.745L144.205 7.71973H145.608ZM149.794 15.9209C150.157 15.9209 150.521 15.8638 150.885 15.7495V16.873C150.72 16.945 150.507 17.0042 150.244 17.0508C149.986 17.1016 149.717 17.127 149.438 17.127C148.025 17.127 147.318 16.3822 147.318 14.8926V11.1094H146.359V10.4492L147.388 9.90332L147.896 8.41797H148.816V9.97949H150.815V11.1094H148.816V14.8672C148.816 15.2269 148.905 15.4935 149.083 15.667C149.265 15.8363 149.502 15.9209 149.794 15.9209ZM157.077 17L156.779 16.0225H156.728C156.389 16.4499 156.049 16.7419 155.706 16.8984C155.363 17.0508 154.923 17.127 154.386 17.127C153.696 17.127 153.156 16.9408 152.767 16.5684C152.382 16.196 152.189 15.6691 152.189 14.9878C152.189 14.2642 152.458 13.7183 152.996 13.3501C153.533 12.9819 154.352 12.7809 155.452 12.7471L156.664 12.709V12.3345C156.664 11.8859 156.559 11.5516 156.347 11.3315C156.14 11.1073 155.816 10.9951 155.376 10.9951C155.016 10.9951 154.671 11.048 154.341 11.1538C154.011 11.2596 153.694 11.3844 153.389 11.5283L152.907 10.4619C153.288 10.263 153.704 10.1128 154.157 10.0112C154.61 9.90544 155.037 9.85254 155.439 9.85254C156.332 9.85254 157.005 10.0472 157.458 10.4365C157.915 10.8258 158.143 11.4373 158.143 12.271V17H157.077ZM154.855 15.9844C155.397 15.9844 155.831 15.8341 156.157 15.5337C156.487 15.229 156.652 14.8037 156.652 14.2578V13.6484L155.75 13.6865C155.048 13.7119 154.536 13.8304 154.214 14.042C153.897 14.2493 153.738 14.5688 153.738 15.0005C153.738 15.3136 153.831 15.557 154.018 15.7305C154.204 15.8997 154.483 15.9844 154.855 15.9844ZM164.202 9.85254C165.078 9.85254 165.759 10.1699 166.246 10.8047C166.737 11.4395 166.982 12.3302 166.982 13.4771C166.982 14.6281 166.735 15.5252 166.24 16.1685C165.744 16.8075 165.057 17.127 164.177 17.127C163.288 17.127 162.598 16.8075 162.107 16.1685H162.006L161.733 17H160.616V7.12305H162.107V9.47168C162.107 9.64518 162.099 9.90332 162.082 10.2461C162.065 10.5889 162.052 10.8068 162.044 10.8999H162.107C162.581 10.2017 163.279 9.85254 164.202 9.85254ZM163.815 11.0713C163.214 11.0713 162.78 11.249 162.513 11.6045C162.251 11.9557 162.116 12.5461 162.107 13.3755V13.4771C162.107 14.3319 162.243 14.9518 162.513 15.3369C162.784 15.7178 163.227 15.9082 163.84 15.9082C164.369 15.9082 164.769 15.6987 165.04 15.2798C165.315 14.8608 165.452 14.2557 165.452 13.4644C165.452 11.869 164.907 11.0713 163.815 11.0713ZM172.171 17.127C171.079 17.127 170.224 16.8096 169.607 16.1748C168.993 15.5358 168.686 14.6577 168.686 13.5405C168.686 12.3937 168.972 11.4924 169.543 10.8364C170.114 10.1805 170.899 9.85254 171.898 9.85254C172.825 9.85254 173.557 10.134 174.094 10.6968C174.632 11.2596 174.901 12.034 174.901 13.02V13.8262H170.222C170.243 14.5075 170.428 15.0322 170.775 15.4004C171.122 15.7643 171.61 15.9463 172.241 15.9463C172.656 15.9463 173.041 15.9082 173.396 15.832C173.756 15.7516 174.141 15.6204 174.551 15.4385V16.6509C174.187 16.8244 173.819 16.9471 173.447 17.019C173.075 17.091 172.649 17.127 172.171 17.127ZM171.898 10.9824C171.424 10.9824 171.043 11.1326 170.756 11.4331C170.472 11.7336 170.303 12.1715 170.248 12.7471H173.434C173.426 12.1673 173.286 11.7293 173.015 11.4331C172.744 11.1326 172.372 10.9824 171.898 10.9824ZM178.477 17H176.985V7.12305H178.477V17ZM185.399 17L185.1 16.0225H185.05C184.711 16.4499 184.37 16.7419 184.028 16.8984C183.685 17.0508 183.245 17.127 182.707 17.127C182.018 17.127 181.478 16.9408 181.089 16.5684C180.704 16.196 180.511 15.6691 180.511 14.9878C180.511 14.2642 180.78 13.7183 181.317 13.3501C181.855 12.9819 182.674 12.7809 183.774 12.7471L184.986 12.709V12.3345C184.986 11.8859 184.88 11.5516 184.669 11.3315C184.461 11.1073 184.138 10.9951 183.698 10.9951C183.338 10.9951 182.993 11.048 182.663 11.1538C182.333 11.2596 182.015 11.3844 181.711 11.5283L181.228 10.4619C181.609 10.263 182.026 10.1128 182.479 10.0112C182.932 9.90544 183.359 9.85254 183.761 9.85254C184.654 9.85254 185.327 10.0472 185.78 10.4365C186.237 10.8258 186.465 11.4373 186.465 12.271V17H185.399ZM183.177 15.9844C183.719 15.9844 184.153 15.8341 184.478 15.5337C184.808 15.229 184.973 14.8037 184.973 14.2578V13.6484L184.072 13.6865C183.37 13.7119 182.858 13.8304 182.536 14.042C182.219 14.2493 182.06 14.5688 182.06 15.0005C182.06 15.3136 182.153 15.557 182.339 15.7305C182.525 15.8997 182.805 15.9844 183.177 15.9844Z" fill="#A6A6A6"/>
</svg>
