<svg width="100" height="100" viewBox="0 0 100 100" fill="none" xmlns="http://www.w3.org/2000/svg">
<path d="M100 2.01545e-05L72 1.52588e-05L72 22L100 22L100 2.01545e-05Z" fill="#757575"/>
<path d="M0 100H28V78H0V100Z" fill="#757575"/>
<path d="M64 4.89567e-06L36 0L36 44.5L64 44.5L64 4.89567e-06Z" fill="#757575"/>
<path d="M36 100H64L64 55.5L36 55.5L36 100Z" fill="#757575"/>
<path d="M28 4.89567e-06L2.28882e-05 0L0 67L28 67L28 4.89567e-06Z" fill="#757575"/>
<path d="M72 100H100L100 33L72 33L72 100Z" fill="#757575"/>
</svg>
