<svg width="134" height="186" viewBox="0 0 134 186" fill="none" xmlns="http://www.w3.org/2000/svg">
<path d="M134 67.1134C134 104.179 104.003 134.227 67 134.227C66.6132 134.227 66.2272 134.224 65.8419 134.217C65.697 134.223 65.5513 134.227 65.4048 134.227H9.57143C4.28527 134.227 0 129.934 0 124.639L0 72.5464C0 72.0415 0.03896 71.5457 0.114033 71.0619C0.0383613 69.7554 0 68.4389 0 67.1134C0 30.0477 29.9969 0 67 0C104.003 0 134 30.0477 134 67.1134Z" fill="#E6E6E6"/>
<path d="M15.9524 139.34C7.14213 139.34 0 146.494 0 155.32L0 170.021C0 178.846 7.14212 186 15.9524 186H24.2476C33.0579 186 40.2 178.846 40.2 170.021V155.32C40.2 146.494 33.0579 139.34 24.2476 139.34H15.9524Z" fill="#E6E6E6"/>
</svg>
