<svg width="13" height="13" viewBox="0 0 13 13" fill="none" xmlns="http://www.w3.org/2000/svg">
<path d="M11.97 8.71185C11.1044 8.71185 10.267 8.57111 9.48593 8.31778C9.23963 8.23333 8.96519 8.29667 8.77519 8.48667L7.67037 9.87296C5.67889 8.92296 3.81407 7.12852 2.82185 5.06667L4.19407 3.89852C4.38407 3.70148 4.44037 3.42704 4.36296 3.18074C4.10259 2.39963 3.96889 1.56222 3.96889 0.696667C3.96889 0.316667 3.65222 0 3.27222 0H0.837407C0.457407 0 0 0.168889 0 0.696667C0 7.23407 5.43963 12.6667 11.97 12.6667C12.4696 12.6667 12.6667 12.2233 12.6667 11.8363V9.40852C12.6667 9.02852 12.35 8.71185 11.97 8.71185Z" fill="white"/>
</svg>
