<svg width="174" height="26" viewBox="0 0 174 26" fill="none" xmlns="http://www.w3.org/2000/svg">
<path d="M6.56104 11.4724C6.17143 10.8766 5.39221 10.3878 4.45714 10.3878C2.49351 10.342 1.29351 11.7626 1.29351 13.6569C1.29351 15.5358 2.49351 16.9718 4.45714 16.926C5.39221 16.926 6.15584 16.4371 6.56104 15.8414L7.52727 16.5593C6.7013 17.5065 5.59481 17.9647 4.45714 17.98C1.6987 18.0106 0 16.1316 0 13.6569C0 11.1669 1.6987 9.2879 4.45714 9.31845C5.59481 9.33373 6.7013 9.79201 7.52727 10.7391L6.56104 11.4724Z" fill="white"/>
<path d="M14.478 12.725V12.5112C14.478 11.0905 13.7767 10.3878 12.3273 10.3878C11.3455 10.3878 10.4728 10.7239 9.75589 11.3502L9.039 10.51C9.81822 9.73091 11.0182 9.31845 12.5923 9.31845C14.2442 9.31845 15.6624 10.235 15.6624 12.2362V15.9177C15.6624 16.5441 15.7403 17.3232 15.8026 17.7662H14.6494C14.5715 17.3537 14.5403 16.8649 14.5403 16.4219H14.5091C13.8234 17.5065 12.8884 17.9648 11.5481 17.9648C10.052 17.9648 8.66498 17.1551 8.66498 15.5511C8.66498 12.8778 11.8754 12.6945 13.8858 12.6945H14.478V12.725ZM13.8546 13.6722C12.6546 13.6722 9.9429 13.7638 9.9429 15.4136C9.9429 16.4982 10.9715 16.926 11.9221 16.926C13.652 16.926 14.478 15.7344 14.478 14.2679V13.6722H13.8546Z" fill="white"/>
<path d="M18.4052 11.3655C18.4052 10.7544 18.3585 10.1434 18.3117 9.53232H19.5896V10.785H19.6208C20.1974 9.83784 21.3195 9.31845 22.3325 9.31845C23.252 9.31845 24.452 9.62397 25.013 11.0294C25.4961 9.97533 26.6494 9.31845 27.7714 9.31845C29.9065 9.31845 30.9351 10.4947 30.9351 12.5417V17.7662H29.7507V12.9695C29.7507 11.3044 29.2675 10.3878 27.6312 10.3878C25.8701 10.3878 25.2624 11.8696 25.2624 13.3972V17.7814H24.0779V12.9695C24.0779 11.3044 23.5948 10.3878 21.9585 10.3878C21.6779 10.3878 19.5896 10.5405 19.5896 13.5499V17.7814H18.4052V11.3655Z" fill="white"/>
<path d="M39.0857 12.725V12.5112C39.0857 11.0905 38.3844 10.3878 36.9351 10.3878C35.9533 10.3878 35.0805 10.7239 34.3637 11.3502L33.6468 10.5253C34.426 9.74618 35.626 9.33372 37.2 9.33372C38.852 9.33372 40.2702 10.2503 40.2702 12.2515V15.933C40.2702 16.5593 40.3481 17.3384 40.4104 17.7814H39.2728C39.1948 17.369 39.1637 16.8801 39.1637 16.4371H39.1325C38.4468 17.5217 37.5117 17.98 36.1715 17.98C34.6753 17.98 33.2883 17.1704 33.2883 15.5664C33.2883 12.8931 36.4987 12.7098 38.5091 12.7098H39.0857V12.725ZM38.4779 13.6722C37.2779 13.6722 34.5663 13.7638 34.5663 15.4136C34.5663 16.4982 35.5948 16.926 36.5455 16.926C38.2754 16.926 39.1013 15.7344 39.1013 14.2679V13.6722H38.4779Z" fill="white"/>
<path d="M43.1532 12.0987C43.1532 11.3655 43.1221 10.7239 43.0753 9.53232H44.2441V11.0599H44.2753C44.6182 10.1739 45.4909 9.31845 46.9714 9.31845C47.3143 9.31845 47.5948 9.349 47.8442 9.42538L47.6104 10.5711C47.4701 10.5253 47.2519 10.4794 46.9247 10.4794C45.1325 10.4794 44.3221 12.0071 44.3221 13.1222V17.7662H43.1377V12.0987H43.1532Z" fill="white"/>
<path d="M54.374 12.725V12.5112C54.374 11.0905 53.6727 10.3878 52.2234 10.3878C51.2416 10.3878 50.3689 10.7239 49.652 11.3502L48.9351 10.5253C49.7143 9.74618 50.9143 9.33372 52.4883 9.33372C54.1403 9.33372 55.5585 10.2503 55.5585 12.2515V15.933C55.5585 16.5593 55.6364 17.3384 55.6987 17.7814H54.5455C54.4676 17.369 54.4364 16.8801 54.4364 16.4371H54.4052C53.7195 17.5217 52.7844 17.98 51.4442 17.98C49.9481 17.98 48.5455 17.1704 48.5455 15.5664C48.5455 12.8931 51.7559 12.7098 53.7663 12.7098H54.374V12.725ZM53.7663 13.6722C52.5663 13.6722 49.8546 13.7638 49.8546 15.4136C49.8546 16.4982 50.8831 16.926 51.8338 16.926C53.5637 16.926 54.3896 15.7344 54.3896 14.2679V13.6722H53.7663Z" fill="white"/>
<path d="M66.6857 17.7662H65.5013V16.3913H65.4701C64.6909 17.5065 63.3195 17.98 62.1974 17.98C59.5792 17.98 57.7247 16.1316 57.7247 13.6569C57.7247 11.1821 59.5792 9.33372 62.1974 9.33372C63.3039 9.33372 64.6909 9.80728 65.4701 10.9224H65.5013V4.46063H66.6857V17.7662ZM62.1974 16.926C64.1299 16.926 65.5481 15.5053 65.5481 13.6569C65.5481 11.8085 64.1299 10.3878 62.1974 10.3878C60.2338 10.3878 59.0182 11.8085 59.0182 13.6569C59.0182 15.5053 60.2338 16.926 62.1974 16.926Z" fill="white"/>
<path d="M70.0987 13.9624C70.239 15.6122 71.5169 16.926 73.1844 16.926C74.4468 16.926 75.413 16.2385 75.8805 15.5053L76.8 16.2385C75.8182 17.4759 74.5714 17.98 73.1844 17.98C70.6909 17.98 68.8364 16.1316 68.8364 13.6569C68.8364 11.1821 70.6909 9.33372 73.0753 9.33372C75.6312 9.349 77.0961 11.1974 77.0961 13.4583V13.993H70.0987V13.9624ZM75.8026 13.0153C75.8026 11.4418 74.774 10.3725 73.0753 10.3725C71.5325 10.3725 70.1299 11.6557 70.1299 13.0153H75.8026Z" fill="white"/>
<path d="M79.2623 9.53232H80.4467V10.9072H80.4779C81.2571 9.79201 82.6286 9.31845 83.7506 9.31845C86.3688 9.31845 88.2234 11.1669 88.2234 13.6416C88.2234 16.1163 86.3688 17.9648 83.7506 17.9648C82.6442 17.9648 81.2571 17.4912 80.4779 16.376H80.4467V22.8226H79.2623V9.53232ZM83.7506 10.3725C81.8182 10.3725 80.4 11.7932 80.4 13.6416C80.4 15.49 81.8182 16.9107 83.7506 16.9107C85.7143 16.9107 86.9299 15.49 86.9299 13.6416C86.9299 11.8085 85.6987 10.3725 83.7506 10.3725Z" fill="white"/>
<path d="M96.2961 17.7662C96.2494 17.3232 96.2493 16.8801 96.2493 16.4524H96.2182C95.7039 17.3537 94.5195 17.98 93.3974 17.98C91.2623 17.98 90.2338 16.8038 90.2338 14.7568V9.53232H91.4182V14.0846C91.4182 15.9177 91.9325 16.926 93.6935 16.926C93.9429 16.926 96.2493 16.7732 96.2493 13.7638V9.53232H97.4338V15.9636C97.4338 16.4066 97.4805 17.1857 97.5273 17.7814H96.2961V17.7662Z" fill="white"/>
<path d="M104.556 10.5864H102.125V15.4442C102.125 16.6816 102.608 16.926 103.34 16.926C103.761 16.926 104.197 16.8038 104.556 16.6052L104.603 17.6745C104.166 17.8731 103.59 17.98 102.997 17.98C102.093 17.98 100.909 17.5981 100.909 15.7803V10.5864H99.1324V9.53232H100.909V7.21034H102.093V9.53232H104.525V10.5864H104.556Z" fill="white"/>
<path d="M111.553 12.725V12.5112C111.553 11.0905 110.852 10.3878 109.403 10.3878C108.421 10.3878 107.548 10.7239 106.831 11.3502L106.114 10.5253C106.894 9.74618 108.094 9.33372 109.668 9.33372C111.319 9.33372 112.738 10.2503 112.738 12.2515V15.933C112.738 16.5593 112.816 17.3384 112.878 17.7814H111.74C111.662 17.369 111.631 16.8801 111.631 16.4371H111.6C110.914 17.5217 109.979 17.98 108.639 17.98C107.143 17.98 105.74 17.1704 105.74 15.5664C105.74 12.8931 108.951 12.7098 110.961 12.7098H111.553V12.725ZM110.945 13.6722C109.745 13.6722 107.034 13.7638 107.034 15.4136C107.034 16.4982 108.062 16.926 109.013 16.926C110.743 16.926 111.569 15.7344 111.569 14.2679V13.6722H110.945Z" fill="white"/>
<path d="M123.881 17.7662H122.696V16.3913H122.649C121.87 17.5065 120.499 17.98 119.377 17.98C116.758 17.98 114.904 16.1316 114.904 13.6569C114.904 11.1821 116.758 9.33372 119.377 9.33372C120.483 9.33372 121.87 9.80728 122.649 10.9224H122.681V4.46063H123.865V17.7662H123.881ZM119.392 16.926C121.325 16.926 122.743 15.5053 122.743 13.6569C122.743 11.8085 121.325 10.3878 119.392 10.3878C117.429 10.3878 116.213 11.8085 116.213 13.6569C116.213 15.5053 117.429 16.926 119.392 16.926Z" fill="white"/>
<path d="M130.488 17.98C127.886 17.98 126.031 16.1316 126.031 13.6569C126.031 11.1821 127.886 9.33372 130.488 9.33372C133.107 9.33372 134.961 11.1821 134.961 13.6569C134.961 16.1316 133.107 17.98 130.488 17.98ZM130.488 10.3725C128.556 10.3725 127.325 11.7932 127.325 13.6416C127.325 15.49 128.54 16.9107 130.488 16.9107C132.452 16.9107 133.668 15.49 133.668 13.6416C133.668 11.8085 132.436 10.3725 130.488 10.3725Z" fill="white"/>
<path d="M141.569 11.4877C141.21 10.8155 140.618 10.3725 139.761 10.3725C138.935 10.3725 138.016 10.7239 138.016 11.6099C138.016 12.389 138.577 12.6639 139.668 12.9083L140.868 13.1833C142.036 13.443 142.909 14.2679 142.909 15.4289C142.909 17.2315 141.273 17.9648 139.636 17.9648C138.358 17.9648 137.19 17.5217 136.41 16.3608L137.439 15.6733C137.922 16.4066 138.655 16.9107 139.652 16.9107C140.618 16.9107 141.631 16.483 141.631 15.5358C141.631 14.7109 140.914 14.4207 140.026 14.2221L138.873 13.9624C138.296 13.8249 136.722 13.3666 136.722 11.7932C136.722 10.0823 138.249 9.31845 139.823 9.31845C140.992 9.31845 142.083 9.71563 142.629 10.8002L141.569 11.4877Z" fill="white"/>
<path d="M152.322 3.7121L152.244 20.4242H162.997C158.914 19.2327 154.971 15.5206 154.971 15.5206H173.688V15.7803C173.891 14.879 174 13.9471 174 13C174 5.82021 168.062 0 160.738 0C157.122 0 153.849 1.42068 151.465 3.7121H152.322Z" fill="white"/>
<path d="M147.616 11.1363H149.455V6.17157C148.52 7.65336 147.881 9.33373 147.616 11.1363Z" fill="white"/>
<path d="M151.153 21.9824C153.569 24.4571 156.966 26 160.738 26C164.509 26 167.906 24.4571 170.322 21.9824H151.153Z" fill="white"/>
<path d="M149.455 12.3737H147.491C147.475 12.5723 147.475 12.7861 147.475 13C147.475 15.5053 148.192 17.8425 149.455 19.8284V12.3737Z" fill="white"/>
</svg>
