<svg width="16" height="18" viewBox="0 0 16 18" fill="none" xmlns="http://www.w3.org/2000/svg">
<path fill-rule="evenodd" clip-rule="evenodd" d="M5.85365 8.87567L6.30029 9.30113L6.30198 9.2982C7.04279 8.32501 9.29364 5.59949 11.2642 3.32049C11.1141 3.21622 10.957 3.12106 10.7937 3.03585L10.7645 3.02081L10.7618 3.01953C10.7349 3.00577 10.7079 2.99238 10.6806 2.979L10.6727 2.97533C10.644 2.96121 10.615 2.94764 10.5858 2.93443L10.5556 2.92086C10.5068 2.89904 10.4578 2.87813 10.4081 2.85833L10.403 2.85613L10.3719 2.84366L10.3683 2.84237L10.3188 2.8233L10.3097 2.81982L10.2786 2.80826L10.2741 2.80661L10.2164 2.78589L10.2157 2.78571L10.184 2.77489L10.1802 2.7736L10.1265 2.75563L10.1205 2.75361L10.0888 2.74353L10.0766 2.73986L10.0144 2.72097L9.96709 2.70703L9.92431 2.6953L9.85421 2.67677L9.83197 2.67127L9.75451 2.65257L9.72417 2.64578L9.65633 2.63129L9.61769 2.62359C9.5915 2.61827 9.5653 2.6135 9.53911 2.60874L9.53081 2.60727H9.53044L9.52403 2.60617C9.4952 2.60122 9.46655 2.59645 9.43734 2.59205L9.41265 2.5882L9.40301 2.58684C9.37765 2.58326 9.35252 2.57972 9.32709 2.57646L9.31748 2.57518L9.31315 2.57463C9.2095 2.56197 9.10434 2.5528 8.99823 2.5473L8.99145 2.54693L8.98165 2.54638C8.95018 2.5451 8.91852 2.54382 8.88686 2.54308L8.88139 2.54272H8.87649C8.84144 2.5418 8.8062 2.54143 8.77096 2.54143H4.35353L4.35692 2.52878C4.31998 2.52878 4.28305 2.52933 4.24611 2.53025C4.20955 2.53098 4.1728 2.53263 4.13624 2.53428C4.09968 2.53611 4.0633 2.53831 4.02693 2.54107C3.99056 2.54382 3.95419 2.54712 3.91838 2.5506C3.88239 2.55409 3.84639 2.55812 3.81058 2.5627H3.8104C3.77478 2.56711 3.73916 2.57206 3.70354 2.57738H3.70335C3.66811 2.58269 3.63268 2.58838 3.59744 2.59461C3.5622 2.60085 3.52714 2.60727 3.49228 2.61442H3.49209C3.45742 2.62139 3.42255 2.62872 3.38825 2.63679H3.38788C3.3532 2.6445 3.3189 2.65275 3.28479 2.66137C1.43188 3.12718 0.0576542 4.77401 0.0489852 6.71976L0.00017484 13.3181C-0.000767445 13.5345 0.00168249 13.6867 0.0178898 13.7802L0.00319015 17.0354C0.00305797 17.0639 0.00290785 17.0918 0.0027612 17.1191C-0.00273733 18.141 -0.00336266 18.2572 1.12884 17.5538L4.17431 15.6612L8.77642 15.6099C8.81355 15.6093 8.8503 15.6088 8.88705 15.6073C8.92398 15.606 8.96073 15.6042 8.9971 15.602C9.03366 15.6 9.07004 15.5976 9.10641 15.5943C9.14278 15.5912 9.17897 15.5877 9.21477 15.5839H9.21496C9.25114 15.5798 9.28695 15.5754 9.32276 15.5707H9.32295C9.35856 15.5662 9.39456 15.5607 9.4298 15.5552H9.42999C9.46561 15.5494 9.50085 15.5435 9.53628 15.5371C9.57133 15.5307 9.60657 15.5239 9.64144 15.5167C9.6763 15.5094 9.71098 15.5017 9.74584 15.4936C9.78033 15.4857 9.81501 15.4773 9.84931 15.4683C9.8836 15.4597 9.9177 15.4502 9.9518 15.4406L9.95183 15.4406C9.98575 15.4311 10.0197 15.4212 10.0532 15.4106H10.0534C10.0868 15.4001 10.1205 15.3895 10.1537 15.3783H10.1539C10.1872 15.3673 10.22 15.3557 10.253 15.3436H10.2532C10.2837 15.3328 10.3138 15.3213 10.3441 15.3098L10.3515 15.3069C10.384 15.2943 10.4164 15.2811 10.4484 15.2677H10.4486C10.4808 15.2543 10.5127 15.2406 10.5445 15.2266C10.5762 15.2123 10.6078 15.1978 10.6393 15.1832C10.6706 15.1683 10.7017 15.1533 10.7328 15.1377C10.7637 15.1221 10.7942 15.1063 10.8248 15.0902H10.821C10.8515 15.0739 10.8817 15.0573 10.9118 15.0405C10.9418 15.0236 10.9718 15.0064 11.0012 14.9889C11.0309 14.9713 11.0601 14.9534 11.0894 14.9352H11.0895C11.1184 14.9171 11.1476 14.8983 11.176 14.8795C11.2047 14.8608 11.2331 14.8415 11.2612 14.8221C11.2897 14.8028 11.3174 14.783 11.3453 14.7626C11.3717 14.7436 11.398 14.7237 11.4242 14.7039L11.4273 14.7016C11.4544 14.6807 11.4813 14.6599 11.5079 14.6385C11.5345 14.617 11.5609 14.5954 11.5871 14.5736C11.6131 14.5517 11.6389 14.5296 11.6643 14.5072H11.6645C11.69 14.4846 11.7152 14.4619 11.7403 14.4388C11.7652 14.4157 11.7898 14.3924 11.8143 14.3685C11.8387 14.3449 11.863 14.321 11.8867 14.2966C11.9106 14.2726 11.934 14.2484 11.9572 14.2235C11.9804 14.1989 12.0032 14.1738 12.0258 14.1485H12.026C12.0486 14.1233 12.0708 14.0979 12.0927 14.072C12.1149 14.0461 12.1366 14.0203 12.1577 13.9939C12.179 13.9677 12.2003 13.9409 12.2208 13.9141C12.2416 13.8875 12.2621 13.8602 12.2821 13.8332C12.3023 13.8059 12.3219 13.7784 12.3415 13.7507C12.3607 13.723 12.3799 13.695 12.3984 13.6669C12.4172 13.6387 12.4357 13.6102 12.4536 13.5816C12.4717 13.5526 12.4894 13.5237 12.5067 13.4945C12.5241 13.4657 12.5412 13.4362 12.5576 13.4067C12.5742 13.3771 12.5906 13.3476 12.6064 13.3175C12.6224 13.2875 12.6379 13.2574 12.6532 13.2269C12.6682 13.1967 12.6831 13.1661 12.6975 13.1352C12.7122 13.1044 12.7261 13.0734 12.7397 13.0423L12.7429 13.0347C12.7554 13.0059 12.7678 12.9772 12.7796 12.9482C12.7924 12.9166 12.8051 12.8849 12.8171 12.8528C12.8294 12.8209 12.8411 12.7888 12.8524 12.7566C12.8637 12.7245 12.8746 12.6918 12.8852 12.6592C12.8955 12.6265 12.9059 12.5937 12.9157 12.5607C12.9251 12.5277 12.9345 12.4945 12.9434 12.4611C12.9522 12.4279 12.9609 12.3944 12.9688 12.3608C12.9769 12.3272 12.9845 12.2933 12.9918 12.2594C12.999 12.2255 13.0058 12.1913 13.012 12.1572C13.0186 12.1229 13.0244 12.0886 13.0297 12.054C13.0352 12.0195 13.0403 11.9849 13.0448 11.95C13.049 11.9197 13.0525 11.8893 13.0559 11.8589C13.0564 11.8544 13.0569 11.8498 13.0574 11.8453C13.061 11.8103 13.0642 11.7751 13.0668 11.7397C13.0697 11.7043 13.0723 11.6691 13.074 11.6335C13.0759 11.5977 13.0772 11.5621 13.0783 11.5264C13.0793 11.4904 13.0796 11.4545 13.0796 11.4185V6.73296C13.0796 6.1682 12.9632 5.62869 12.7525 5.13592C12.6735 5.22524 12.5939 5.31623 12.5147 5.40671C12.2099 5.75509 11.9116 6.09594 11.6815 6.30493L8.96205 9.28683C8.79848 9.46617 8.3139 10.1538 8.2482 10.3027L8.58288 9.52358L8.0258 10.5838L8.03164 10.0996L7.794 10.8629L6.42995 11.8293L6.38886 12.228L6.02966 12.0864L6.08168 12.6052L5.00163 10.9025L4.82806 10.8134L4.66957 10.5456L4.25214 9.98499C4.28751 9.99997 4.3297 10.0245 4.36891 10.0474C4.45548 10.0978 4.52748 10.1397 4.47923 10.0512C4.31171 9.74942 4.12404 9.44146 3.93099 9.12467C3.53157 8.46924 3.10913 7.77602 2.79443 7.02161C2.79443 6.92918 3.2096 6.51142 3.30251 6.57763C3.61565 6.80653 3.7949 6.43233 3.88739 6.23926C3.91256 6.1867 3.93131 6.14757 3.94458 6.13768C4.36107 6.4311 5.83857 8.17696 5.85365 8.87567ZM12.6241 4.86342C12.6292 4.87333 12.6343 4.88327 12.6393 4.89322C12.6133 4.90085 12.6056 4.89309 12.6241 4.86342Z" fill="white"/>
</svg>
