<svg width="29" height="29" viewBox="0 0 29 29" fill="none" xmlns="http://www.w3.org/2000/svg">
<circle cx="14.5" cy="14.5" r="14.5" fill="#00C354"/>
<circle cx="14.5" cy="14.5" r="12.8429" fill="#252525"/>
<path d="M14.0857 10.4918C14.9267 10.4918 15.6082 11.1733 15.6082 12.0143C15.6082 12.8553 14.9267 13.5368 14.0857 13.5368C13.2447 13.5368 12.5632 12.8553 12.5632 12.0143C12.5632 11.1733 13.2447 10.4918 14.0857 10.4918ZM14.0857 17.0168C16.239 17.0168 18.5082 18.0753 18.5082 18.5393V19.3368H9.66321V18.5393C9.66321 18.0753 11.9325 17.0168 14.0857 17.0168ZM14.0857 9.11429C12.4835 9.11429 11.1857 10.412 11.1857 12.0143C11.1857 13.6165 12.4835 14.9143 14.0857 14.9143C15.688 14.9143 16.9857 13.6165 16.9857 12.0143C16.9857 10.412 15.688 9.11429 14.0857 9.11429ZM14.0857 15.6393C12.15 15.6393 8.28571 16.6108 8.28571 18.5393V20.7143H19.8857V18.5393C19.8857 16.6108 16.0215 15.6393 14.0857 15.6393Z" fill="white"/>
</svg>
