<svg width="19" height="12" viewBox="0 0 19 12" fill="none" xmlns="http://www.w3.org/2000/svg">
<path fill-rule="evenodd" clip-rule="evenodd" d="M8.02601 1.24204C8.06002 1.19824 8.11371 1.17241 8.17076 1.17241H10.8737C10.9531 1.17241 11.0232 1.22215 11.0462 1.29487L12.7669 6.73085C12.7669 6.73085 12.7669 6.73098 12.767 6.73102M12.767 6.73102C12.767 6.73104 12.767 6.73105 12.767 6.73102C12.767 6.731 12.7671 6.73092 12.7671 6.73084L14.5874 1.29226C14.6113 1.22086 14.6807 1.17241 14.7591 1.17241H17.6112C17.6687 1.17241 17.7228 1.1987 17.7568 1.24317C17.7907 1.28764 17.8004 1.34493 17.7829 1.39737L14.6676 10.7077C14.6437 10.7791 14.5743 10.8276 14.4959 10.8276H11.1125C11.033 10.8276 10.9629 10.7778 10.9399 10.705L9.34884 5.66897C9.34873 5.66862 9.34862 5.66827 9.34851 5.66792L7.99819 1.3947C7.98168 1.34247 7.992 1.28585 8.02601 1.24204M8.41358 1.51724L9.69399 5.56921C9.6941 5.56957 9.69421 5.56993 9.69432 5.57029L11.2463 10.4828H14.3643L17.3642 1.51724H14.8907L13.1104 6.83635C13.0621 6.97984 12.9221 7.07705 12.7641 7.07585C12.6063 7.07466 12.4677 6.97537 12.4219 6.83112L10.7399 1.51724H8.41358Z" fill="white"/>
<path d="M1 1.34482H4.1244L5.84489 6.71259L6.01246 7.23539L6.18877 6.71522L8.00886 1.34482H10.7527L9.17887 5.6116L9.17793 5.61413L9.17708 5.61668L7.50076 10.6552H4.11528L1 1.34482Z" fill="white"/>
<path fill-rule="evenodd" clip-rule="evenodd" d="M0.753052 1.17241H4.25773L6.0173 6.66207L7.87781 1.17241H11.0075L9.34891 5.66896L9.34883 5.66917L9.34878 5.66931L7.63262 10.8276H3.98371L0.753052 1.17241ZM1.24701 1.51724L4.24691 10.4828H7.36897L9.00538 5.5642L9.00711 5.55902L9.00888 5.55425L10.498 1.51724H8.13997L6.36029 6.76839L6.00769 7.80872L3.99113 1.51724H1.24701Z" fill="white"/>
<path d="M12.7718 6.17239C12.4731 6.17239 12.2309 6.40397 12.2309 6.68964C12.2309 6.9753 12.4731 7.20688 12.7718 7.20688C13.0705 7.20688 13.3126 6.9753 13.3126 6.68964C13.3126 6.40397 13.0705 6.17239 12.7718 6.17239Z" fill="white"/>
<path fill-rule="evenodd" clip-rule="evenodd" d="M12.7719 7.14942C13.0374 7.14942 13.2526 6.94357 13.2526 6.68965C13.2526 6.43572 13.0374 6.22988 12.7719 6.22988C12.5063 6.22988 12.2911 6.43572 12.2911 6.68965C12.2911 6.94357 12.5063 7.14942 12.7719 7.14942ZM13.3728 6.68965C13.3728 7.00705 13.1038 7.26436 12.7719 7.26436C12.44 7.26436 12.1709 7.00705 12.1709 6.68965C12.1709 6.37224 12.44 6.11493 12.7719 6.11493C13.1038 6.11493 13.3728 6.37224 13.3728 6.68965Z" fill="white"/>
<path d="M15.2957 3.98852C15.0634 3.98852 14.8751 4.16864 14.8751 4.39082C14.8751 4.61301 15.0634 4.79312 15.2957 4.79312C15.528 4.79312 15.7164 4.61301 15.7164 4.39082C15.7164 4.16864 15.528 3.98852 15.2957 3.98852Z" fill="white"/>
<path fill-rule="evenodd" clip-rule="evenodd" d="M15.2958 4.73563C15.4949 4.73563 15.6564 4.58124 15.6564 4.3908C15.6564 4.20036 15.4949 4.04597 15.2958 4.04597C15.0967 4.04597 14.9352 4.20036 14.9352 4.3908C14.9352 4.58124 15.0967 4.73563 15.2958 4.73563ZM15.7766 4.3908C15.7766 4.64472 15.5613 4.85057 15.2958 4.85057C15.0303 4.85057 14.815 4.64472 14.815 4.3908C14.815 4.13688 15.0303 3.93103 15.2958 3.93103C15.5613 3.93103 15.7766 4.13688 15.7766 4.3908Z" fill="white"/>
<path d="M12.0506 8.47125C11.7519 8.47125 11.5098 8.70283 11.5098 8.98849C11.5098 9.27416 11.7519 9.50574 12.0506 9.50574C12.3493 9.50574 12.5915 9.27416 12.5915 8.98849C12.5915 8.70283 12.3493 8.47125 12.0506 8.47125Z" fill="white"/>
<path fill-rule="evenodd" clip-rule="evenodd" d="M12.0507 9.44829C12.3162 9.44829 12.5315 9.24244 12.5315 8.98852C12.5315 8.7346 12.3162 8.52875 12.0507 8.52875C11.7852 8.52875 11.57 8.7346 11.57 8.98852C11.57 9.24244 11.7852 9.44829 12.0507 9.44829ZM12.6517 8.98852C12.6517 9.30592 12.3826 9.56323 12.0507 9.56323C11.7188 9.56323 11.4498 9.30592 11.4498 8.98852C11.4498 8.67111 11.7188 8.41381 12.0507 8.41381C12.3826 8.41381 12.6517 8.67111 12.6517 8.98852Z" fill="white"/>
<path d="M14.0939 8.24139C13.8615 8.24139 13.6732 8.42151 13.6732 8.64369C13.6732 8.86587 13.8615 9.04599 14.0939 9.04599C14.3262 9.04599 14.5145 8.86587 14.5145 8.64369C14.5145 8.42151 14.3262 8.24139 14.0939 8.24139Z" fill="white"/>
<path fill-rule="evenodd" clip-rule="evenodd" d="M14.0939 8.9885C14.293 8.9885 14.4545 8.83411 14.4545 8.64367C14.4545 8.45323 14.293 8.29884 14.0939 8.29884C13.8948 8.29884 13.7333 8.45323 13.7333 8.64367C13.7333 8.83411 13.8948 8.9885 14.0939 8.9885ZM14.5746 8.64367C14.5746 8.89759 14.3594 9.10344 14.0939 9.10344C13.8284 9.10344 13.6131 8.89759 13.6131 8.64367C13.6131 8.38975 13.8284 8.1839 14.0939 8.1839C14.3594 8.1839 14.5746 8.38975 14.5746 8.64367Z" fill="white"/>
<path d="M11.1493 10.3103C10.9502 10.3103 10.7888 10.4647 10.7888 10.6552C10.7888 10.8456 10.9502 11 11.1493 11C11.3485 11 11.5099 10.8456 11.5099 10.6552C11.5099 10.4647 11.3485 10.3103 11.1493 10.3103Z" fill="white"/>
<path fill-rule="evenodd" clip-rule="evenodd" d="M11.1493 10.9426C11.3152 10.9426 11.4498 10.8139 11.4498 10.6552C11.4498 10.4965 11.3152 10.3678 11.1493 10.3678C10.9833 10.3678 10.8488 10.4965 10.8488 10.6552C10.8488 10.8139 10.9833 10.9426 11.1493 10.9426ZM11.5699 10.6552C11.5699 10.8774 11.3816 11.0575 11.1493 11.0575C10.917 11.0575 10.7286 10.8774 10.7286 10.6552C10.7286 10.433 10.917 10.2529 11.1493 10.2529C11.3816 10.2529 11.5699 10.433 11.5699 10.6552Z" fill="white"/>
<path d="M14.5146 10.3104C14.3154 10.3104 14.154 10.4647 14.154 10.6552C14.154 10.8457 14.3154 11 14.5146 11C14.7137 11 14.8751 10.8457 14.8751 10.6552C14.8751 10.4647 14.7137 10.3104 14.5146 10.3104Z" fill="white"/>
<path fill-rule="evenodd" clip-rule="evenodd" d="M14.0939 10.6552C14.0939 10.433 14.2823 10.2529 14.5146 10.2529C14.7469 10.2529 14.9353 10.433 14.9353 10.6552C14.9353 10.8774 14.7469 11.0575 14.5146 11.0575C14.2823 11.0575 14.0939 10.8774 14.0939 10.6552ZM14.5146 10.3678C14.3486 10.3678 14.2141 10.4964 14.2141 10.6552C14.2141 10.8139 14.3486 10.9425 14.5146 10.9425C14.6806 10.9425 14.8151 10.8139 14.8151 10.6552C14.8151 10.4964 14.6806 10.3678 14.5146 10.3678Z" fill="white"/>
<path d="M17.6394 0.999981C17.4403 0.999981 17.2789 1.15437 17.2789 1.34481C17.2789 1.53525 17.4403 1.68964 17.6394 1.68964C17.8386 1.68964 18 1.53525 18 1.34481C18 1.15437 17.8386 0.999981 17.6394 0.999981Z" fill="white"/>
<path fill-rule="evenodd" clip-rule="evenodd" d="M17.6394 1.63219C17.8053 1.63219 17.9399 1.50354 17.9399 1.34483C17.9399 1.18613 17.8053 1.05748 17.6394 1.05748C17.4735 1.05748 17.3389 1.18613 17.3389 1.34483C17.3389 1.50354 17.4735 1.63219 17.6394 1.63219ZM18.0601 1.34483C18.0601 1.56702 17.8717 1.74713 17.6394 1.74713C17.4071 1.74713 17.2187 1.56702 17.2187 1.34483C17.2187 1.12265 17.4071 0.942534 17.6394 0.942534C17.8717 0.942534 18.0601 1.12265 18.0601 1.34483Z" fill="white"/>
<path d="M14.7549 0.999981C14.5558 0.999981 14.3943 1.15437 14.3943 1.34481C14.3943 1.53525 14.5558 1.68964 14.7549 1.68964C14.954 1.68964 15.1155 1.53525 15.1155 1.34481C15.1155 1.15437 14.954 0.999981 14.7549 0.999981Z" fill="white"/>
<path fill-rule="evenodd" clip-rule="evenodd" d="M14.7549 1.63219C14.9208 1.63219 15.0553 1.50354 15.0553 1.34483C15.0553 1.18613 14.9208 1.05748 14.7549 1.05748C14.5889 1.05748 14.4544 1.18613 14.4544 1.34483C14.4544 1.50354 14.5889 1.63219 14.7549 1.63219ZM15.1755 1.34483C15.1755 1.56702 14.9872 1.74713 14.7549 1.74713C14.5226 1.74713 14.3342 1.56702 14.3342 1.34483C14.3342 1.12265 14.5226 0.942534 14.7549 0.942534C14.9872 0.942534 15.1755 1.12265 15.1755 1.34483Z" fill="white"/>
<path d="M10.8488 1.00001C10.6165 1.00001 10.4282 1.18013 10.4282 1.40231C10.4282 1.6245 10.6165 1.80461 10.8488 1.80461C11.0811 1.80461 11.2695 1.6245 11.2695 1.40231C11.2695 1.18013 11.0811 1.00001 10.8488 1.00001Z" fill="white"/>
<path fill-rule="evenodd" clip-rule="evenodd" d="M10.8488 1.74712C11.0479 1.74712 11.2093 1.59273 11.2093 1.40229C11.2093 1.21185 11.0479 1.05746 10.8488 1.05746C10.6496 1.05746 10.4882 1.21185 10.4882 1.40229C10.4882 1.59273 10.6496 1.74712 10.8488 1.74712ZM11.3295 1.40229C11.3295 1.65621 11.1143 1.86206 10.8488 1.86206C10.5833 1.86206 10.368 1.65621 10.368 1.40229C10.368 1.14837 10.5833 0.94252 10.8488 0.94252C11.1143 0.94252 11.3295 1.14837 11.3295 1.40229Z" fill="white"/>
<path d="M9.34648 5.02298C9.08097 5.02298 8.86572 5.22883 8.86572 5.48275C8.86572 5.73667 9.08097 5.94252 9.34648 5.94252C9.612 5.94252 9.82723 5.73667 9.82723 5.48275C9.82723 5.22883 9.612 5.02298 9.34648 5.02298Z" fill="white"/>
<path fill-rule="evenodd" clip-rule="evenodd" d="M8.80554 5.48277C8.80554 5.19711 9.04769 4.96553 9.34639 4.96553C9.6451 4.96553 9.88724 5.19711 9.88724 5.48277C9.88724 5.76843 9.6451 6.00001 9.34639 6.00001C9.04769 6.00001 8.80554 5.76843 8.80554 5.48277ZM9.34639 5.08047C9.11407 5.08047 8.92573 5.26059 8.92573 5.48277C8.92573 5.70495 9.11407 5.88507 9.34639 5.88507C9.57872 5.88507 9.76705 5.70495 9.76705 5.48277C9.76705 5.26059 9.57872 5.08047 9.34639 5.08047Z" fill="white"/>
<path fill-rule="evenodd" clip-rule="evenodd" d="M15.4709 3.81414L17.6858 1.17931L17.9668 1.39536L15.254 4.62259L14.8902 2.65101L14.4018 8.58313L14.6859 10.961L12.0774 9.19648L11.4426 10.6636L11.1075 10.5364L12.6636 6.62309L9.29517 5.53108L9.41092 5.20451L13.1336 6.41134L12.1693 8.83628L14.2362 10.2344L14.0396 8.58923L14.6419 1.2738L14.9991 1.25737L15.4709 3.81414Z" fill="white"/>
<path fill-rule="evenodd" clip-rule="evenodd" d="M15.4515 3.993L16.4166 5.48403L14.0885 8.98279L12.7983 6.72065L15.4515 3.993ZM13.2393 6.77362L14.1124 8.30459L15.9909 5.4815L15.3936 4.55875L13.2393 6.77362Z" fill="white"/>
</svg>
