<svg width="139" height="42" viewBox="0 0 139 42" fill="none" xmlns="http://www.w3.org/2000/svg">
<path fill-rule="evenodd" clip-rule="evenodd" d="M94.4255 16.0365H98.2759L99.3135 19.2045H100.93L97.1667 8.43724H96.0994L91.9889 19.2045H93.3439L94.4255 16.0365ZM96.4161 10.0353H96.4437C96.9486 11.9736 97.4386 13.4657 97.9436 14.9586H94.8146C95.3629 13.4657 95.8969 11.9736 96.4161 10.0353ZM95.4301 22.7738L91.3809 33.3798H92.7157L93.7809 30.2591H97.5753L98.5971 33.3798H100.188L96.4796 22.7738H95.4301ZM94.1663 29.1981C94.7056 27.7268 95.2299 26.2572 95.7416 24.3486H95.7692C96.2667 26.2572 96.7507 27.7276 97.2482 29.1981H94.1663ZM91.6513 22.7738H83.8958V23.8349H87.077V33.3798H88.4551V23.8349H91.6513V22.7738ZM68.839 22.7738H66.3382V33.3798H67.717V23.8349H68.6687C70.1454 23.8349 70.7556 24.6825 70.7556 25.8495C70.7556 27.4267 69.9168 28.1835 68.5828 28.2582L68.1294 28.2742V29.243H68.5671C70.7982 29.243 72.2331 27.6225 72.2331 25.8326C72.2338 23.7739 70.9401 22.7738 68.839 22.7738ZM57.5385 16.0365H61.3897L62.4279 19.2045H64.0421L60.279 8.43724H59.2116L55.1012 19.2045H56.4584L57.5385 16.0365ZM59.5306 10.0353H59.5567C60.0616 11.9736 60.5516 13.4657 61.0566 14.9586H57.9276C58.4766 13.4657 59.0099 11.9736 59.5306 10.0353ZM51.6981 19.3883C52.9971 19.3883 54.1937 18.8963 54.8711 18.4035L54.3244 17.5126C53.7328 17.9436 52.8678 18.3136 51.7706 18.3136C49.5641 18.3136 47.8065 16.482 47.8065 13.7595C47.8065 11.2368 49.2758 9.32896 51.7706 9.32896C52.8529 9.32896 53.9337 9.85147 54.4095 10.2672L54.9869 9.34582C54.3236 8.7904 53.3138 8.25183 51.8722 8.25183C48.2525 8.25183 46.2619 11.0835 46.2619 13.79C46.2626 16.7573 48.0926 19.3883 51.6981 19.3883ZM50.1303 22.7738H46.9491V33.3798H49.9032C53.4251 33.3798 55.5285 31.2745 55.5285 27.7597C55.5285 25.213 54.1354 22.7738 50.1303 22.7738ZM49.8614 32.3195H48.3279V23.8349H50.1594C52.7737 23.8349 54.0084 25.3647 54.0084 27.7276C54.0077 30.833 52.6587 32.3195 49.8614 32.3195ZM59.6904 28.3192H63.1413V27.2597H59.6904V23.8357H63.2122V22.7738H58.3123V33.3798H63.8247V32.3203H59.6904V28.3192ZM80.9118 29.4557C80.9118 30.9711 80.2858 32.5466 78.4259 32.5466C76.6505 32.5466 75.8834 31.3957 75.8834 29.1981V22.7738H74.5052V29.2583C74.5052 31.9856 75.6272 33.5611 78.4259 33.5611C80.8259 33.5611 82.204 31.8644 82.204 29.4854V22.7738H80.9118V29.4557ZM78.1018 16.0365H81.9523L82.9905 19.2045H84.6054L80.8416 8.43724H79.7742L75.6638 19.2045H77.0187L78.1018 16.0365ZM80.0916 10.0353H80.1215C80.6265 11.9736 81.1164 13.4657 81.6191 14.9586H78.4924C79.0392 13.4657 79.5725 11.9736 80.0916 10.0353ZM119.113 19.3883C122.228 19.3883 124.16 16.8504 124.16 13.6359C124.16 10.6212 122.027 8.25103 119.113 8.25103C116.2 8.25103 114.066 10.6212 114.066 13.6359C114.066 16.8504 115.999 19.3883 119.113 19.3883ZM119.113 9.32816C121.607 9.32816 122.617 11.6197 122.617 13.6359C122.617 15.7436 121.723 18.3136 119.113 18.3136C116.501 18.3136 115.608 15.7444 115.608 13.6359C115.608 11.6197 116.618 9.32816 119.113 9.32816ZM113.604 13.4962C113.604 10.9126 112.191 8.43724 108.122 8.43724H104.895V19.2045H107.894C111.471 19.2037 113.604 17.0655 113.604 13.4962ZM106.292 18.1266V9.51276H108.152C110.806 9.51276 112.06 11.0659 112.06 13.4649C112.06 16.62 110.691 18.1258 107.85 18.1258H106.292V18.1266ZM86.6371 14.7435H88.1235L90.4585 19.3883L91.8717 18.9284L89.3642 14.3446C90.33 13.6832 91.0508 12.7891 91.0508 11.2063C91.0508 9.34501 89.7675 8.43804 88.1243 8.43804H85.2388V19.2053H86.6378V14.7435H86.6371ZM86.6371 9.51276H87.8337C88.7711 9.51276 89.5509 10.02 89.5509 11.342C89.5509 12.2497 89.2193 13.6656 87.4311 13.6656H86.6371V9.51276ZM59.5567 6.14333L60.9863 7.63542H61.8364L60.0362 5.29816H59.0966L57.295 7.63542H58.1308L59.5567 6.14333ZM110.698 27.7589C110.698 25.213 109.308 22.7738 105.301 22.7738H102.118V33.3798H105.074C108.596 33.3798 110.698 31.2737 110.698 27.7589ZM103.497 32.3195V23.8349H105.329C107.944 23.8349 109.178 25.3647 109.178 27.7276C109.178 30.8338 107.83 32.3195 105.032 32.3195H103.497ZM128.17 27.3945C126.891 26.4097 126.282 25.8487 126.282 25.091C126.282 24.2739 126.834 23.6519 127.829 23.6519C128.426 23.6519 129.065 24.0315 129.548 24.4096L130.202 23.6519C129.648 22.9857 128.783 22.5924 127.744 22.5924C126.197 22.5924 124.902 23.6671 124.902 25.0918C124.902 26.5919 125.827 27.2445 126.65 27.9267C127.46 28.5616 128.951 29.4244 128.951 30.7584C128.951 31.9398 128.199 32.5001 127.219 32.5001C126.283 32.5001 125.642 32.0161 125.06 31.5762L124.45 32.4559C125.16 33.1984 126.296 33.5611 127.249 33.5611C128.84 33.5611 130.331 32.472 130.331 30.7889C130.33 29.4244 129.534 28.4548 128.17 27.3945ZM117.829 22.5924C114.961 22.5924 112.858 24.9257 112.858 27.8954C112.858 31.0634 114.762 33.5611 117.829 33.5611C120.899 33.5611 122.802 31.0634 122.802 27.8954C122.802 24.9249 120.698 22.5924 117.829 22.5924ZM117.829 32.5001C115.258 32.5001 114.378 29.9694 114.378 27.8954C114.378 25.9113 115.373 23.6527 117.829 23.6527C120.285 23.6527 121.282 25.9121 121.282 27.8954C121.282 29.9694 120.4 32.5001 117.829 32.5001ZM65.8011 10.435H65.8295C66.2202 11.8508 68.3109 16.4507 69.5657 19.2045H70.1267C71.4839 16.4515 73.7762 11.6975 74.1803 10.435H74.2087V19.2045H75.6085V8.43644H74.2946C72.8829 11.2962 71.4555 14.1736 70.0273 17.2036C68.7441 14.1736 67.4444 11.2962 66.1485 8.43644H64.6479V19.2037H65.8019V10.435H65.8011ZM127.158 18.3128C126.207 18.3128 125.557 17.82 124.966 17.3721L124.347 18.2654C125.067 19.0183 126.22 19.3875 127.187 19.3875C128.802 19.3875 130.316 18.2799 130.316 16.5735C130.316 15.1882 129.508 14.2041 128.124 13.127C126.826 12.1269 126.207 11.5579 126.207 10.7897C126.207 9.95822 126.77 9.32816 127.777 9.32816C128.384 9.32816 129.033 9.71262 129.523 10.0979L130.186 9.32816C129.624 8.65154 128.744 8.25103 127.692 8.25103C126.12 8.25103 124.809 9.34501 124.809 10.7897C124.809 12.3123 125.746 12.9737 126.581 13.6664C127.404 14.3125 128.919 15.189 128.919 16.543C128.919 17.7413 128.154 18.3128 127.158 18.3128ZM0 42H139V0H0V42ZM1.40276 16.2179H3.51586V17.0117L1.40276 17.0109V16.2179ZM1.40276 17.7879H3.51511V30.5112H1.40276V17.7879ZM37.8453 40.5023H1.40201V33.1783H37.8453V40.5023ZM37.8453 23.2963H11.8338C14.2763 25.9025 19.372 29.5657 23.885 30.5128H7.6233V4.457H3.51586V15.4314H1.40276V1.50172H37.8453V23.2963ZM137.596 40.4919H39.21V1.49771H137.596V40.4919Z" fill="white"/>
</svg>
