<svg width="318" height="95" viewBox="0 0 318 95" fill="none" xmlns="http://www.w3.org/2000/svg">
<path d="M90 2.00002L64.8 2.00001L64.8 21.8L90 21.8L90 2.00002Z" fill="white"/>
<path d="M2.38419e-06 92H25.2V72.2H2.38419e-06V92Z" fill="white"/>
<path d="M57.6 2L32.4 2L32.4 42.05L57.6 42.05L57.6 2Z" fill="white"/>
<path d="M32.4 92H57.6L57.6 51.95L32.4 51.95L32.4 92Z" fill="white"/>
<path d="M25.2 2L1.61171e-05 2L2.38419e-06 62.3L25.2 62.3L25.2 2Z" fill="white"/>
<path d="M64.8 92H90L90 31.7L64.8 31.7L64.8 92Z" fill="white"/>
<rect x="251" width="66" height="22" rx="8" fill="url(#paint0_linear_3163:5021)"/>
<path d="M273.312 12.834C273.312 14.4486 272.941 15.7474 272.199 16.7305C271.457 17.707 270.461 18.1953 269.211 18.1953C267.876 18.1953 266.844 17.7233 266.115 16.7793L266.027 18H264.367V3H266.174V8.5957C266.903 7.69076 267.909 7.23828 269.191 7.23828C270.474 7.23828 271.48 7.72331 272.209 8.69336C272.945 9.66341 273.312 10.9915 273.312 12.6777V12.834ZM271.506 12.6289C271.506 11.3984 271.268 10.4479 270.793 9.77734C270.318 9.10677 269.634 8.77148 268.742 8.77148C267.551 8.77148 266.695 9.32487 266.174 10.4316V15.002C266.727 16.1087 267.59 16.6621 268.762 16.6621C269.628 16.6621 270.301 16.3268 270.783 15.6562C271.265 14.9857 271.506 13.9766 271.506 12.6289ZM280.782 18.1953C279.35 18.1953 278.185 17.7266 277.286 16.7891C276.388 15.8451 275.939 14.5853 275.939 13.0098V12.6777C275.939 11.6296 276.137 10.6953 276.534 9.875C276.938 9.04818 277.498 8.40365 278.214 7.94141C278.937 7.47266 279.718 7.23828 280.558 7.23828C281.932 7.23828 282.999 7.69076 283.761 8.5957C284.523 9.50065 284.904 10.7962 284.904 12.4824V13.2344H277.745C277.771 14.276 278.074 15.1191 278.654 15.7637C279.239 16.4017 279.982 16.7207 280.88 16.7207C281.518 16.7207 282.058 16.5905 282.501 16.3301C282.944 16.0697 283.331 15.7246 283.663 15.2949L284.767 16.1543C283.881 17.515 282.553 18.1953 280.782 18.1953ZM280.558 8.72266C279.829 8.72266 279.217 8.98958 278.722 9.52344C278.227 10.0508 277.921 10.793 277.804 11.75H283.097V11.6133C283.045 10.6953 282.797 9.98568 282.355 9.48438C281.912 8.97656 281.313 8.72266 280.558 8.72266ZM290.254 4.875V7.43359H292.227V8.83008H290.254V15.3828C290.254 15.806 290.342 16.125 290.518 16.3398C290.694 16.5482 290.993 16.6523 291.416 16.6523C291.625 16.6523 291.911 16.6133 292.276 16.5352V18C291.801 18.1302 291.338 18.1953 290.889 18.1953C290.082 18.1953 289.473 17.9512 289.063 17.4629C288.653 16.9746 288.448 16.2812 288.448 15.3828V8.83008H286.524V7.43359H288.448V4.875H290.254ZM301.67 18C301.565 17.7917 301.481 17.4206 301.416 16.8867C300.576 17.7591 299.573 18.1953 298.408 18.1953C297.366 18.1953 296.51 17.9023 295.839 17.3164C295.175 16.724 294.843 15.9753 294.843 15.0703C294.843 13.9701 295.26 13.1172 296.093 12.5117C296.933 11.8997 298.112 11.5938 299.629 11.5938H301.386V10.7637C301.386 10.1322 301.198 9.63086 300.82 9.25977C300.442 8.88216 299.886 8.69336 299.15 8.69336C298.505 8.69336 297.965 8.85612 297.529 9.18164C297.093 9.50716 296.875 9.90104 296.875 10.3633H295.058C295.058 9.83594 295.244 9.32812 295.615 8.83984C295.992 8.34505 296.5 7.95443 297.138 7.66797C297.783 7.38151 298.489 7.23828 299.257 7.23828C300.475 7.23828 301.429 7.54427 302.119 8.15625C302.809 8.76172 303.167 9.59831 303.193 10.666V15.5293C303.193 16.4993 303.317 17.2708 303.564 17.8438V18H301.67ZM298.671 16.623C299.238 16.623 299.775 16.4766 300.283 16.1836C300.791 15.8906 301.158 15.5098 301.386 15.041V12.873H299.97C297.757 12.873 296.65 13.5208 296.65 14.8164C296.65 15.3828 296.839 15.8255 297.216 16.1445C297.594 16.4635 298.079 16.623 298.671 16.623Z" fill="white"/>
<path d="M129.183 41.7462H130.666C132.052 41.7462 133.089 41.4748 133.777 40.932C134.465 40.3795 134.81 39.5798 134.81 38.5329C134.81 37.4764 134.519 36.6961 133.937 36.192C133.365 35.688 132.464 35.436 131.233 35.436H129.183V41.7462ZM139.36 38.373C139.36 40.6606 138.643 42.4102 137.209 43.6219C135.784 44.8335 133.753 45.4393 131.116 45.4393H129.183V53H124.675V31.7429H131.465C134.044 31.7429 136.002 32.3002 137.339 33.4149C138.687 34.52 139.36 36.1727 139.36 38.373ZM154.241 53L153.383 50.79H153.267C152.521 51.7302 151.75 52.3845 150.955 52.7528C150.17 53.1115 149.142 53.2908 147.873 53.2908C146.312 53.2908 145.081 52.8449 144.18 51.9531C143.288 51.0614 142.842 49.7916 142.842 48.1437C142.842 46.4183 143.443 45.1485 144.645 44.3343C145.856 43.5104 147.679 43.0548 150.112 42.9676L152.932 42.8803V42.1679C152.932 40.52 152.089 39.6961 150.403 39.6961C149.104 39.6961 147.577 40.0887 145.823 40.8738L144.354 37.8786C146.225 36.8996 148.299 36.4101 150.577 36.4101C152.758 36.4101 154.43 36.8851 155.593 37.835C156.756 38.785 157.338 40.2292 157.338 42.1679V53H154.241ZM152.932 45.4684L151.217 45.5266C149.928 45.5653 148.968 45.798 148.338 46.2245C147.708 46.651 147.393 47.3004 147.393 48.1728C147.393 49.4232 148.11 50.0484 149.545 50.0484C150.572 50.0484 151.391 49.7528 152.002 49.1615C152.622 48.5702 152.932 47.7851 152.932 46.8061V45.4684ZM162.622 32.5426C162.622 31.0983 163.427 30.3761 165.036 30.3761C166.645 30.3761 167.45 31.0983 167.45 32.5426C167.45 33.2308 167.246 33.7687 166.839 34.1565C166.441 34.5345 165.84 34.7235 165.036 34.7235C163.427 34.7235 162.622 33.9965 162.622 32.5426ZM167.246 53H162.811V36.7445H167.246V53ZM187.812 53H183.377V43.5055C183.377 42.3327 183.169 41.4554 182.752 40.8738C182.335 40.2826 181.671 39.9869 180.76 39.9869C179.519 39.9869 178.622 40.4037 178.07 41.2373C177.517 42.0613 177.241 43.4328 177.241 45.3521V53H172.807V36.7445H176.194L176.79 38.8237H177.038C177.532 38.0386 178.211 37.4473 179.073 37.0499C179.946 36.6428 180.934 36.4392 182.039 36.4392C183.929 36.4392 185.364 36.953 186.343 37.9804C187.322 38.9982 187.812 40.4716 187.812 42.4005V53ZM200.002 39.5943C199.062 39.5943 198.325 39.8948 197.792 40.4958C197.259 41.0871 196.954 41.9304 196.876 43.0257H203.099C203.08 41.9304 202.794 41.0871 202.241 40.4958C201.689 39.8948 200.943 39.5943 200.002 39.5943ZM200.628 53.2908C198.01 53.2908 195.965 52.5687 194.492 51.1244C193.018 49.6801 192.282 47.6348 192.282 44.9886C192.282 42.2648 192.96 40.1614 194.317 38.6783C195.684 37.1856 197.569 36.4392 199.973 36.4392C202.271 36.4392 204.059 37.0935 205.338 38.4021C206.618 39.7107 207.258 41.5184 207.258 43.8254V45.9773H196.774C196.823 47.2374 197.196 48.2213 197.894 48.9289C198.592 49.6365 199.571 49.9903 200.831 49.9903C201.81 49.9903 202.736 49.8885 203.608 49.6849C204.481 49.4814 205.392 49.1567 206.342 48.7108V52.1422C205.566 52.5299 204.737 52.8158 203.855 53C202.973 53.1939 201.897 53.2908 200.628 53.2908ZM216.191 53H211.757V30.3761H216.191V53ZM235.528 53.2908C233.618 53.2908 232.116 52.5493 231.02 51.0662C229.935 49.5832 229.392 47.5282 229.392 44.9014C229.392 42.2357 229.944 40.1614 231.049 38.6783C232.164 37.1856 233.696 36.4392 235.644 36.4392C237.689 36.4392 239.25 37.2341 240.326 38.8237H240.471C240.248 37.6121 240.137 36.5313 240.137 35.5814V30.3761H244.586V53H241.184L240.326 50.8917H240.137C239.129 52.4911 237.592 53.2908 235.528 53.2908ZM237.083 49.7576C238.217 49.7576 239.046 49.4281 239.57 48.7689C240.103 48.1098 240.394 46.9902 240.442 45.4102V44.9304C240.442 43.1857 240.171 41.9352 239.628 41.1792C239.095 40.4231 238.222 40.0451 237.011 40.0451C236.022 40.0451 235.251 40.4667 234.699 41.31C234.156 42.1436 233.885 43.3601 233.885 44.9595C233.885 46.5589 234.161 47.7608 234.713 48.5654C235.266 49.3602 236.056 49.7576 237.083 49.7576ZM260.441 53L259.583 50.79H259.466C258.72 51.7302 257.949 52.3845 257.155 52.7528C256.369 53.1115 255.342 53.2908 254.072 53.2908C252.512 53.2908 251.281 52.8449 250.379 51.9531C249.487 51.0614 249.041 49.7916 249.041 48.1437C249.041 46.4183 249.642 45.1485 250.844 44.3343C252.056 43.5104 253.878 43.0548 256.311 42.9676L259.132 42.8803V42.1679C259.132 40.52 258.289 39.6961 256.602 39.6961C255.303 39.6961 253.777 40.0887 252.022 40.8738L250.554 37.8786C252.424 36.8996 254.499 36.4101 256.777 36.4101C258.958 36.4101 260.63 36.8851 261.793 37.835C262.956 38.785 263.538 40.2292 263.538 42.1679V53H260.441ZM259.132 45.4684L257.416 45.5266C256.127 45.5653 255.168 45.798 254.537 46.2245C253.907 46.651 253.592 47.3004 253.592 48.1728C253.592 49.4232 254.31 50.0484 255.744 50.0484C256.772 50.0484 257.591 49.7528 258.201 49.1615C258.822 48.5702 259.132 47.7851 259.132 46.8061V45.4684ZM129.183 75.7462H130.666C132.052 75.7462 133.089 75.4748 133.777 74.932C134.465 74.3795 134.81 73.5798 134.81 72.5329C134.81 71.4764 134.519 70.6961 133.937 70.192C133.365 69.688 132.464 69.436 131.233 69.436H129.183V75.7462ZM139.36 72.373C139.36 74.6606 138.643 76.4102 137.209 77.6219C135.784 78.8335 133.753 79.4393 131.116 79.4393H129.183V87H124.675V65.7429H131.465C134.044 65.7429 136.002 66.3002 137.339 67.4149C138.687 68.52 139.36 70.1727 139.36 72.373ZM154.241 87L153.383 84.79H153.267C152.521 85.7302 151.75 86.3845 150.955 86.7528C150.17 87.1115 149.142 87.2908 147.873 87.2908C146.312 87.2908 145.081 86.8449 144.18 85.9531C143.288 85.0614 142.842 83.7916 142.842 82.1437C142.842 80.4183 143.443 79.1485 144.645 78.3343C145.856 77.5104 147.679 77.0548 150.112 76.9676L152.932 76.8803V76.1679C152.932 74.52 152.089 73.6961 150.403 73.6961C149.104 73.6961 147.577 74.0887 145.823 74.8738L144.354 71.8786C146.225 70.8996 148.299 70.4101 150.577 70.4101C152.758 70.4101 154.43 70.8851 155.593 71.835C156.756 72.785 157.338 74.2292 157.338 76.1679V87H154.241ZM152.932 79.4684L151.217 79.5266C149.928 79.5653 148.968 79.798 148.338 80.2245C147.708 80.651 147.393 81.3004 147.393 82.1728C147.393 83.4232 148.11 84.0484 149.545 84.0484C150.572 84.0484 151.391 83.7528 152.002 83.1615C152.622 82.5702 152.932 81.7851 152.932 80.8061V79.4684ZM171.884 70.4392C172.485 70.4392 172.984 70.4828 173.382 70.5701L173.047 74.7284C172.689 74.6315 172.253 74.583 171.739 74.583C170.324 74.583 169.219 74.9465 168.424 75.6735C167.639 76.4005 167.246 77.4183 167.246 78.7269V87H162.811V70.7445H166.17L166.824 73.478H167.042C167.546 72.5669 168.225 71.835 169.078 71.2825C169.941 70.7203 170.876 70.4392 171.884 70.4392ZM184.075 83.7576C184.85 83.7576 185.781 83.588 186.867 83.2487V86.5493C185.762 87.0436 184.404 87.2908 182.795 87.2908C181.022 87.2908 179.727 86.8449 178.913 85.9531C178.109 85.0517 177.706 83.7043 177.706 81.9111V74.0742H175.584V72.1985L178.026 70.7155L179.306 67.2841H182.141V70.7445H186.692V74.0742H182.141V81.9111C182.141 82.5411 182.316 83.0064 182.665 83.3069C183.023 83.6074 183.493 83.7576 184.075 83.7576ZM190.871 66.5426C190.871 65.0983 191.676 64.3761 193.285 64.3761C194.894 64.3761 195.699 65.0983 195.699 66.5426C195.699 67.2308 195.495 67.7687 195.088 68.1565C194.69 68.5345 194.089 68.7235 193.285 68.7235C191.676 68.7235 190.871 67.9965 190.871 66.5426ZM195.495 87H191.06V70.7445H195.495V87ZM207.657 87.2908C202.597 87.2908 200.067 84.5137 200.067 78.9595C200.067 76.197 200.755 74.0887 202.132 72.6347C203.508 71.171 205.481 70.4392 208.049 70.4392C209.93 70.4392 211.616 70.8076 213.109 71.5442L211.8 74.9756C211.103 74.6945 210.453 74.4667 209.852 74.2922C209.251 74.1081 208.65 74.016 208.049 74.016C205.742 74.016 204.589 75.6541 204.589 78.9304C204.589 82.1098 205.742 83.6995 208.049 83.6995C208.902 83.6995 209.692 83.588 210.419 83.3651C211.146 83.1324 211.873 82.7738 212.6 82.2891V86.084C211.883 86.5396 211.156 86.8546 210.419 87.0291C209.692 87.2036 208.771 87.2908 207.657 87.2908ZM217.085 66.5426C217.085 65.0983 217.889 64.3761 219.498 64.3761C221.107 64.3761 221.912 65.0983 221.912 66.5426C221.912 67.2308 221.708 67.7687 221.301 68.1565C220.904 68.5345 220.303 68.7235 219.498 68.7235C217.889 68.7235 217.085 67.9965 217.085 66.5426ZM221.708 87H217.274V70.7445H221.708V87ZM236.196 87.2908C234.287 87.2908 232.789 86.5977 231.704 85.2116H231.471C231.626 86.5687 231.704 87.3538 231.704 87.5671V94.1536H227.269V70.7445H230.875L231.5 72.8528H231.704C232.741 71.2437 234.277 70.4392 236.313 70.4392C238.232 70.4392 239.734 71.1807 240.82 72.6638C241.906 74.1469 242.449 76.2067 242.449 78.8432C242.449 80.5783 242.192 82.0856 241.678 83.3651C241.174 84.6446 240.452 85.6187 239.512 86.2876C238.571 86.9564 237.466 87.2908 236.196 87.2908ZM234.888 73.9869C233.793 73.9869 232.993 74.3262 232.489 75.0047C231.985 75.6735 231.723 76.7834 231.704 78.3343V78.8141C231.704 80.5589 231.961 81.8093 232.474 82.5654C232.998 83.3214 233.822 83.6995 234.946 83.6995C236.933 83.6995 237.927 82.0613 237.927 78.785C237.927 77.1857 237.679 75.9886 237.185 75.1937C236.7 74.3892 235.935 73.9869 234.888 73.9869ZM257.329 87L256.471 84.79H256.355C255.609 85.7302 254.838 86.3845 254.043 86.7528C253.258 87.1115 252.231 87.2908 250.961 87.2908C249.4 87.2908 248.169 86.8449 247.268 85.9531C246.376 85.0614 245.93 83.7916 245.93 82.1437C245.93 80.4183 246.531 79.1485 247.733 78.3343C248.945 77.5104 250.767 77.0548 253.2 76.9676L256.021 76.8803V76.1679C256.021 74.52 255.177 73.6961 253.491 73.6961C252.192 73.6961 250.665 74.0887 248.911 74.8738L247.442 71.8786C249.313 70.8996 251.387 70.4101 253.665 70.4101C255.846 70.4101 257.518 70.8851 258.681 71.835C259.844 72.785 260.426 74.2292 260.426 76.1679V87H257.329ZM256.021 79.4684L254.305 79.5266C253.016 79.5653 252.056 79.798 251.426 80.2245C250.796 80.651 250.481 81.3004 250.481 82.1728C250.481 83.4232 251.198 84.0484 252.633 84.0484C253.66 84.0484 254.479 83.7528 255.09 83.1615C255.71 82.5702 256.021 81.7851 256.021 80.8061V79.4684ZM272.5 87.2908C267.441 87.2908 264.911 84.5137 264.911 78.9595C264.911 76.197 265.599 74.0887 266.975 72.6347C268.352 71.171 270.324 70.4392 272.893 70.4392C274.774 70.4392 276.46 70.8076 277.953 71.5442L276.644 74.9756C275.946 74.6945 275.297 74.4667 274.696 74.2922C274.095 74.1081 273.494 74.016 272.893 74.016C270.586 74.016 269.433 75.6541 269.433 78.9304C269.433 82.1098 270.586 83.6995 272.893 83.6995C273.746 83.6995 274.536 83.588 275.263 83.3651C275.99 83.1324 276.717 82.7738 277.444 82.2891V86.084C276.727 86.5396 276 86.8546 275.263 87.0291C274.536 87.2036 273.615 87.2908 272.5 87.2908ZM275.278 90.6349C275.278 91.8757 274.909 92.7723 274.173 93.3248C273.446 93.8773 272.316 94.1536 270.785 94.1536C270.029 94.1536 269.321 94.0518 268.662 93.8482V91.4055C268.924 91.4734 269.273 91.5413 269.709 91.6091C270.155 91.677 270.499 91.7109 270.741 91.7109C271.439 91.7109 271.788 91.4104 271.788 90.8094C271.788 90.0049 270.983 89.4815 269.374 89.2391L270.509 87H273.315L272.922 87.8869C273.639 88.1196 274.211 88.4782 274.638 88.9629C275.064 89.4572 275.278 90.0146 275.278 90.6349ZM292.441 87L291.583 84.79H291.467C290.72 85.7302 289.95 86.3845 289.155 86.7528C288.37 87.1115 287.342 87.2908 286.072 87.2908C284.512 87.2908 283.281 86.8449 282.379 85.9531C281.488 85.0614 281.042 83.7916 281.042 82.1437C281.042 80.4183 281.643 79.1485 282.845 78.3343C284.056 77.5104 285.879 77.0548 288.312 76.9676L291.132 76.8803V76.1679C291.132 74.52 290.289 73.6961 288.602 73.6961C287.303 73.6961 285.777 74.0887 284.022 74.8738L282.554 71.8786C284.425 70.8996 286.499 70.4101 288.777 70.4101C290.958 70.4101 292.63 70.8851 293.793 71.835C294.956 72.785 295.538 74.2292 295.538 76.1679V87H292.441ZM291.132 79.4684L289.417 79.5266C288.127 79.5653 287.168 79.798 286.538 80.2245C285.908 80.651 285.593 81.3004 285.593 82.1728C285.593 83.4232 286.31 84.0484 287.745 84.0484C288.772 84.0484 289.591 83.7528 290.202 83.1615C290.822 82.5702 291.132 81.7851 291.132 80.8061V79.4684ZM286.581 67.4295C286.281 67.4295 285.99 67.5603 285.709 67.8221C285.438 68.0741 285.239 68.4618 285.113 68.9852H282.946C283.053 67.5797 283.45 66.4796 284.139 65.6847C284.837 64.8899 285.757 64.4925 286.901 64.4925C287.299 64.4925 287.686 64.5748 288.064 64.7396C288.452 64.8947 288.83 65.0692 289.199 65.2631C289.577 65.4472 289.945 65.6169 290.304 65.7719C290.662 65.927 291.016 66.0046 291.365 66.0046C291.665 66.0046 291.951 65.8786 292.223 65.6266C292.504 65.3745 292.707 64.9868 292.833 64.4634H295C294.893 65.8689 294.486 66.9691 293.779 67.7639C293.081 68.5587 292.169 68.9562 291.045 68.9562C290.648 68.9562 290.255 68.8786 289.867 68.7235C289.489 68.5587 289.111 68.3843 288.733 68.2001C288.365 68.0062 288.001 67.8317 287.643 67.6767C287.284 67.5119 286.93 67.4295 286.581 67.4295ZM304.544 78.8432C304.544 80.4523 304.806 81.6688 305.33 82.4927C305.863 83.3166 306.725 83.7286 307.918 83.7286C309.1 83.7286 309.948 83.3214 310.462 82.5072C310.985 81.6833 311.247 80.462 311.247 78.8432C311.247 77.2341 310.985 76.0273 310.462 75.2228C309.939 74.4183 309.081 74.016 307.889 74.016C306.706 74.016 305.853 74.4183 305.33 75.2228C304.806 76.0176 304.544 77.2244 304.544 78.8432ZM315.784 78.8432C315.784 81.4894 315.086 83.5589 313.69 85.0517C312.294 86.5444 310.351 87.2908 307.859 87.2908C306.299 87.2908 304.922 86.9515 303.73 86.273C302.538 85.5848 301.622 84.6009 300.982 83.3214C300.342 82.0419 300.023 80.5492 300.023 78.8432C300.023 76.1873 300.716 74.1226 302.102 72.6493C303.488 71.1759 305.436 70.4392 307.947 70.4392C309.507 70.4392 310.884 70.7785 312.076 71.457C313.268 72.1355 314.184 73.1097 314.824 74.3795C315.464 75.6493 315.784 77.1372 315.784 78.8432Z" fill="white"/>
<defs>
<linearGradient id="paint0_linear_3163:5021" x1="251" y1="22.0001" x2="317" y2="22.0001" gradientUnits="userSpaceOnUse">
<stop stop-color="#14D768" stop-opacity="0.5"/>
<stop offset="0.328125" stop-color="#1181E9" stop-opacity="0.5"/>
<stop offset="0.697917" stop-color="#F59D2A" stop-opacity="0.5"/>
<stop offset="1" stop-color="#E438B4" stop-opacity="0.5"/>
</linearGradient>
</defs>
</svg>
