<svg width="76" height="76" viewBox="0 0 76 76" fill="none" xmlns="http://www.w3.org/2000/svg">
<path d="M76 1.53174e-05L54.72 1.15967e-05L54.72 16.72L76 16.72L76 1.53174e-05Z" fill="#F7F7F7"/>
<path d="M0 76H21.28V59.28H0V76Z" fill="#F7F7F7"/>
<path d="M48.64 3.72071e-06L27.36 0L27.36 33.82L48.64 33.82L48.64 3.72071e-06Z" fill="#F7F7F7"/>
<path d="M27.36 76H48.64L48.64 42.18L27.36 42.18L27.36 76Z" fill="#F7F7F7"/>
<path d="M21.28 3.72071e-06L1.52588e-05 0L0 50.92L21.28 50.92L21.28 3.72071e-06Z" fill="#F7F7F7"/>
<path d="M54.72 76H76L76 25.08L54.72 25.08L54.72 76Z" fill="#F7F7F7"/>
</svg>
