<svg width="111" height="30" viewBox="0 0 111 30" fill="none" xmlns="http://www.w3.org/2000/svg">
<path fill-rule="evenodd" clip-rule="evenodd" d="M75.4045 11.4547H78.4793L79.3079 13.7175H80.5986L77.5936 6.0266H76.7412L73.4588 13.7175H74.5408L75.4045 11.4547ZM76.9941 7.16805H77.0162C77.4194 8.55259 77.8107 9.61837 78.2139 10.6847H75.7153C76.1531 9.61837 76.5796 8.55259 76.9941 7.16805ZM76.2068 16.267L72.9733 23.8427H74.0392L74.8897 21.6137H77.9199L78.7358 23.8427H80.0063L77.0448 16.267H76.2068ZM75.1975 20.8558C75.6282 19.8049 76.0469 18.7552 76.4555 17.3918H76.4776C76.8748 18.7552 77.2613 19.8055 77.6586 20.8558H75.1975ZM73.1892 16.267H66.9959V17.0249H69.5363V23.8427H70.6368V17.0249H73.1892V16.267ZM54.9721 16.267H52.9751V23.8427H54.0762V17.0249H54.8361C56.0154 17.0249 56.5027 17.6303 56.5027 18.4639C56.5027 19.5905 55.8328 20.1311 54.7675 20.1844L54.4055 20.1959V20.8879H54.755C56.5367 20.8879 57.6825 19.7304 57.6825 18.4519C57.6831 16.9813 56.65 16.267 54.9721 16.267ZM45.948 11.4547H49.0234L49.8525 13.7175H51.1415L48.1365 6.0266H47.2841L44.0017 13.7175H45.0855L45.948 11.4547ZM47.5388 7.16805H47.5597C47.9629 8.55259 48.3542 9.61837 48.7574 10.6847H46.2587C46.6972 9.61837 47.123 8.55259 47.5388 7.16805ZM41.2841 13.8488C42.3214 13.8488 43.277 13.4974 43.818 13.1454L43.3813 12.509C42.9089 12.8168 42.2182 13.0811 41.342 13.0811C39.58 13.0811 38.1765 11.7729 38.1765 9.8282C38.1765 8.02629 39.3497 6.66354 41.342 6.66354C42.2063 6.66354 43.0694 7.03677 43.4493 7.33374L43.9104 6.67558C43.3807 6.27886 42.5743 5.89417 41.4231 5.89417C38.5325 5.89417 36.9429 7.91679 36.9429 9.84998C36.9435 11.9695 38.4049 13.8488 41.2841 13.8488ZM40.0321 16.267H37.4917V23.8427H39.8508C42.6632 23.8427 44.3429 22.3389 44.3429 19.8284C44.3429 18.0093 43.2304 16.267 40.0321 16.267ZM39.8174 23.0853H38.5928V17.0249H40.0554C42.143 17.0249 43.129 18.1176 43.129 19.8055C43.1284 22.0236 42.0512 23.0853 39.8174 23.0853ZM47.6664 20.228H50.4222V19.4712H47.6664V17.0255H50.4788V16.267H46.5659V23.8427H50.9679V23.0859H47.6664V20.228ZM64.613 21.0398C64.613 22.1222 64.1132 23.2476 62.6279 23.2476C61.2101 23.2476 60.5975 22.4255 60.5975 20.8558V16.267H59.497V20.8988C59.497 22.8468 60.3929 23.9722 62.6279 23.9722C64.5444 23.9722 65.6449 22.7603 65.6449 21.061V16.267H64.613V21.0398ZM62.3691 11.4547H65.4439L66.273 13.7175H67.5626L64.5569 6.0266H63.7046L60.4221 13.7175H61.5042L62.3691 11.4547ZM63.9581 7.16805H63.9819C64.3852 8.55259 64.7764 9.61837 65.1779 10.6847H62.681C63.1176 9.61837 63.5435 8.55259 63.9581 7.16805ZM95.1193 13.8488C97.6067 13.8488 99.1497 12.036 99.1497 9.73991C99.1497 7.58657 97.4462 5.89359 95.1193 5.89359C92.7925 5.89359 91.0883 7.58657 91.0883 9.73991C91.0883 12.036 92.632 13.8488 95.1193 13.8488ZM95.1193 6.66297C97.1104 6.66297 97.9168 8.29976 97.9168 9.73991C97.9168 11.2454 97.2034 13.0811 95.1193 13.0811C93.0335 13.0811 92.3201 11.246 92.3201 9.73991C92.3201 8.29976 93.1265 6.66297 95.1193 6.66297ZM90.7197 9.64015C90.7197 7.79468 89.5912 6.0266 86.3421 6.0266H83.7648V13.7175H86.1596C89.0162 13.7169 90.7197 12.1896 90.7197 9.64015ZM84.8808 12.9476V6.79483H86.366C88.4853 6.79483 89.4868 7.90418 89.4868 9.61779C89.4868 11.8715 88.3934 12.947 86.1244 12.947L84.8808 12.9476ZM69.185 10.5311H70.372L72.2366 13.8488L73.3651 13.5203L71.3628 10.2461C72.134 9.77373 72.7096 9.13507 72.7096 8.00451C72.7096 6.67501 71.6849 6.02717 70.3726 6.02717H68.0684V13.7181H69.1856L69.185 10.5311ZM69.185 6.79483H70.1406C70.8892 6.79483 71.5119 7.15716 71.5119 8.1014C71.5119 8.74981 71.247 9.76112 69.8191 9.76112H69.185V6.79483ZM47.5597 4.38809L48.7013 5.45387H49.3801L47.9426 3.7844H47.1922L45.7535 5.45387H46.421L47.5597 4.38809ZM88.3994 19.8278C88.3994 18.0093 87.2888 16.267 84.0892 16.267H81.5476V23.8427H83.9079C86.7209 23.8427 88.3994 22.3383 88.3994 19.8278ZM82.6488 23.0853V17.0249H84.1119C86.1996 17.0249 87.1856 18.1176 87.1856 19.8055C87.1856 22.0242 86.1089 23.0853 83.8745 23.0853H82.6488ZM102.352 19.5675C101.33 18.8641 100.844 18.4633 100.844 17.9221C100.844 17.3385 101.285 16.8942 102.079 16.8942C102.556 16.8942 103.066 17.1654 103.452 17.4354L103.974 16.8942C103.531 16.4184 102.841 16.1374 102.011 16.1374C100.776 16.1374 99.7421 16.9051 99.7421 17.9227C99.7421 18.9942 100.48 19.4603 101.138 19.9476C101.785 20.4011 102.976 21.0174 102.976 21.9703C102.976 22.8142 102.375 23.2143 101.592 23.2143C100.844 23.2143 100.333 22.8686 99.8679 22.5545L99.3806 23.1828C99.9478 23.7131 100.855 23.9722 101.616 23.9722C102.887 23.9722 104.077 23.1943 104.077 21.992C104.077 21.0174 103.441 20.3249 102.352 19.5675ZM94.0934 16.1374C91.8035 16.1374 90.1238 17.804 90.1238 19.9253C90.1238 22.1881 91.6442 23.9722 94.0934 23.9722C96.5449 23.9722 98.0648 22.1881 98.0648 19.9253C98.0648 17.8035 96.3851 16.1374 94.0934 16.1374ZM94.0934 23.2143C92.0409 23.2143 91.3377 21.4067 91.3377 19.9253C91.3377 18.5081 92.1322 16.8948 94.0934 16.8948C96.0552 16.8948 96.8509 18.5086 96.8509 19.9253C96.8509 21.4067 96.1465 23.2143 94.0934 23.2143ZM52.5462 7.45356H52.5689C52.8809 8.46487 54.5504 11.7505 55.5525 13.7175H56.0004C57.0842 11.7511 58.9148 8.35537 59.2375 7.45356H59.2602V13.7175H60.378V6.02603H59.3288C58.2015 8.06872 57.0616 10.124 55.9211 12.2883C54.8964 10.124 53.8585 8.06872 52.8236 6.02603H51.6253V13.7169H52.5468L52.5462 7.45356ZM101.543 13.0806C100.784 13.0806 100.265 12.7286 99.7933 12.4087L99.2989 13.0467C99.8739 13.5845 100.794 13.8482 101.567 13.8482C102.856 13.8482 104.065 13.0571 104.065 11.8382C104.065 10.8487 103.42 10.1458 102.315 9.37643C101.279 8.66209 100.784 8.25562 100.784 7.70696C100.784 7.11302 101.233 6.66297 102.038 6.66297C102.523 6.66297 103.041 6.93759 103.432 7.21277L103.962 6.66297C103.512 6.17967 102.81 5.89359 101.97 5.89359C100.714 5.89359 99.6675 6.67501 99.6675 7.70696C99.6675 8.79453 100.416 9.26693 101.082 9.76169C101.74 10.2232 102.95 10.8493 102.95 11.8164C102.95 12.6724 102.339 13.0806 101.543 13.0806ZM0 30H111V0H0V30ZM1.12019 11.5842H2.80763V12.1512L1.12019 12.1507V11.5842ZM1.12019 12.7056H2.80703V21.7937H1.12019V12.7056ZM30.2218 28.9302H1.11959V23.6988H30.2218V28.9302ZM30.2218 16.6402H9.45003C11.4005 18.5018 15.4697 21.1183 19.0736 21.7948H6.08767V3.18357H2.80763V11.0224H1.12019V1.07266H30.2218V16.6402ZM109.879 28.9228H31.3116V1.06979H109.879V28.9228Z" fill="white"/>
</svg>
