<svg width="406" height="97" viewBox="0 0 406 97" fill="none" xmlns="http://www.w3.org/2000/svg">
<path d="M68.1606 10.3731L47.4161 10.3731V57.7892H68.1606L68.1606 10.3731Z" fill="white"/>
<path d="M44.4526 10.3731L23.7081 10.3731L23.7081 37.0446L44.4526 37.0446L44.4526 10.3731Z" fill="white"/>
<path d="M23.7081 81.4972H44.4526L44.4526 40.0081L23.7081 40.0081L23.7081 81.4972Z" fill="white"/>
<path d="M47.4161 81.4972H68.1606L68.1606 60.7527H47.4161L47.4161 81.4972Z" fill="white"/>
<path d="M20.7446 10.3731L3.91407e-05 10.373V57.7891H20.7446V10.3731Z" fill="white"/>
<path d="M4.47931e-05 81.4972H20.7446V60.7527H4.47931e-05V81.4972Z" fill="white"/>
<path d="M114.34 66.5993C109.186 66.5993 105.15 65.101 102.234 62.1044C99.337 59.0878 97.8886 54.9425 97.8886 49.6684C97.8886 44.2545 99.2371 39.9993 101.934 36.9028C104.631 33.8063 108.337 32.258 113.051 32.258C117.427 32.258 120.883 33.5865 123.42 36.2435C125.957 38.9005 127.226 42.5564 127.226 47.2112V51.0169H105.14C105.24 54.2333 106.109 56.7105 107.747 58.4485C109.386 60.1666 111.693 61.0256 114.67 61.0256C116.627 61.0256 118.445 60.8458 120.124 60.4862C121.822 60.1066 123.64 59.4873 125.577 58.6283V64.3519C123.859 65.1709 122.121 65.7503 120.363 66.0899C118.605 66.4295 116.597 66.5993 114.34 66.5993ZM113.051 37.592C110.814 37.592 109.016 38.3012 107.658 39.7196C106.319 41.138 105.52 43.2057 105.26 45.9226H120.303C120.263 43.1857 119.604 41.118 118.326 39.7196C117.047 38.3012 115.289 37.592 113.051 37.592ZM134.191 52.5452V46.5519H149.594V52.5452H134.191ZM186.615 66H179.543V45.563C179.543 43.0259 179.063 41.138 178.105 39.8994C177.146 38.6408 175.647 38.0115 173.61 38.0115C170.893 38.0115 168.895 38.9005 167.616 40.6785C166.358 42.4366 165.729 45.3732 165.729 49.4886V66H158.686V32.8574H164.2L165.189 37.2025H165.549C166.468 35.6242 167.796 34.4056 169.534 33.5466C171.292 32.6875 173.22 32.258 175.318 32.258C180.412 32.258 183.788 33.9961 185.446 37.4722H185.926C186.905 35.834 188.283 34.5554 190.061 33.6365C191.839 32.7175 193.877 32.258 196.174 32.258C200.13 32.258 203.007 33.2569 204.804 35.2547C206.622 37.2524 207.531 40.299 207.531 44.3944V66H200.489V45.563C200.489 43.0259 200 41.138 199.021 39.8994C198.062 38.6408 196.564 38.0115 194.526 38.0115C191.789 38.0115 189.781 38.8706 188.503 40.5886C187.244 42.2867 186.615 44.9038 186.615 48.4398V66ZM248.598 49.3687C248.598 54.7826 247.21 59.0079 244.433 62.0445C241.656 65.081 237.79 66.5993 232.836 66.5993C229.74 66.5993 227.003 65.9001 224.625 64.5017C222.248 63.1033 220.42 61.0955 219.142 58.4785C217.863 55.8614 217.224 52.8249 217.224 49.3687C217.224 43.9948 218.602 39.7995 221.359 36.7829C224.116 33.7663 228.002 32.258 233.016 32.258C237.81 32.258 241.606 33.8063 244.403 36.9028C247.2 39.9793 248.598 44.1346 248.598 49.3687ZM224.476 49.3687C224.476 57.0201 227.302 60.8458 232.956 60.8458C238.55 60.8458 241.346 57.0201 241.346 49.3687C241.346 41.7973 238.53 38.0115 232.896 38.0115C229.939 38.0115 227.792 38.9904 226.453 40.9482C225.135 42.906 224.476 45.7129 224.476 49.3687ZM287.717 66H280.645V45.623C280.645 43.0658 280.126 41.158 279.087 39.8994C278.068 38.6408 276.44 38.0115 274.203 38.0115C271.226 38.0115 269.048 38.8906 267.67 40.6486C266.292 42.4066 265.602 45.3533 265.602 49.4886V66H258.56V32.8574H264.074L265.063 37.2025H265.423C266.421 35.6242 267.84 34.4056 269.678 33.5466C271.516 32.6875 273.553 32.258 275.791 32.258C283.742 32.258 287.717 36.3035 287.717 44.3944V66ZM306.4 66H299.358V32.8574H306.4V66ZM298.938 24.0773C298.938 22.8187 299.278 21.8498 299.957 21.1705C300.656 20.4913 301.645 20.1517 302.923 20.1517C304.162 20.1517 305.121 20.4913 305.8 21.1705C306.499 21.8498 306.849 22.8187 306.849 24.0773C306.849 25.2759 306.499 26.2248 305.8 26.924C305.121 27.6033 304.162 27.9429 302.923 27.9429C301.645 27.9429 300.656 27.6033 299.957 26.924C299.278 26.2248 298.938 25.2759 298.938 24.0773ZM330.685 60.9057C332.403 60.9057 334.122 60.636 335.84 60.0967V65.4007C335.06 65.7403 334.052 66.02 332.813 66.2397C331.594 66.4795 330.326 66.5993 329.007 66.5993C322.335 66.5993 318.999 63.0833 318.999 56.0512V38.1913H314.474V35.0749L319.328 32.4978L321.725 25.4857H326.071V32.8574H335.51V38.1913H326.071V55.9313C326.071 57.6294 326.49 58.888 327.329 59.7071C328.188 60.5062 329.307 60.9057 330.685 60.9057ZM373.73 49.3687C373.73 54.7826 372.342 59.0079 369.565 62.0445C366.788 65.081 362.922 66.5993 357.968 66.5993C354.871 66.5993 352.134 65.9001 349.757 64.5017C347.38 63.1033 345.552 61.0955 344.273 58.4785C342.995 55.8614 342.355 52.8249 342.355 49.3687C342.355 43.9948 343.734 39.7995 346.491 36.7829C349.248 33.7663 353.133 32.258 358.148 32.258C362.942 32.258 366.738 33.8063 369.535 36.9028C372.332 39.9793 373.73 44.1346 373.73 49.3687ZM349.607 49.3687C349.607 57.0201 352.434 60.8458 358.088 60.8458C363.681 60.8458 366.478 57.0201 366.478 49.3687C366.478 41.7973 363.661 38.0115 358.028 38.0115C355.071 38.0115 352.924 38.9904 351.585 40.9482C350.267 42.906 349.607 45.7129 349.607 49.3687ZM400.503 32.258C401.921 32.258 403.09 32.3579 404.009 32.5577L403.32 39.1203C402.321 38.8806 401.282 38.7607 400.203 38.7607C397.387 38.7607 395.099 39.6797 393.341 41.5176C391.603 43.3555 390.734 45.7428 390.734 48.6795V66H383.692V32.8574H389.206L390.135 38.7008H390.494C391.593 36.723 393.022 35.1548 394.78 33.9961C396.558 32.8374 398.465 32.258 400.503 32.258Z" fill="white"/>
<path d="M368.04 78.937C369.58 78.937 370.738 79.4232 371.514 80.3956C372.298 81.3613 372.689 82.776 372.689 84.6398C372.689 86.4698 372.278 87.8811 371.454 88.8738C370.637 89.8664 369.485 90.3627 368 90.3627C367.216 90.3627 366.511 90.2007 365.883 89.8765C365.255 89.5524 364.758 89.0932 364.394 88.499H364.302L364.019 90.1602H363.391V74.3992H364.394V78.3597C364.394 78.9539 364.38 79.5009 364.353 80.0006L364.323 80.8616H364.394C364.812 80.1998 365.315 79.7136 365.903 79.403C366.497 79.0924 367.21 78.937 368.04 78.937ZM368.02 79.8487C366.723 79.8487 365.795 80.2201 365.234 80.9629C364.674 81.7057 364.394 82.9313 364.394 84.6398V84.812C364.394 86.4731 364.684 87.665 365.265 88.3876C365.852 89.1101 366.764 89.4714 368 89.4714C369.202 89.4714 370.107 89.0527 370.714 88.2154C371.322 87.3713 371.626 86.1726 371.626 84.6195C371.626 81.4389 370.424 79.8487 368.02 79.8487ZM380.817 90.3627C379.217 90.3627 377.968 89.8698 377.07 88.8839C376.178 87.898 375.733 86.517 375.733 84.7411C375.733 82.9853 376.165 81.5808 377.029 80.5273C377.894 79.4671 379.058 78.937 380.524 78.937C381.82 78.937 382.843 79.3895 383.593 80.2944C384.342 81.1992 384.717 82.4282 384.717 83.9814V84.7917H376.786C376.8 86.3043 377.151 87.459 377.84 88.2559C378.535 89.0527 379.528 89.4511 380.817 89.4511C381.445 89.4511 381.996 89.4072 382.469 89.3194C382.948 89.2316 383.552 89.0426 384.282 88.7522V89.6638C383.66 89.9339 383.086 90.1163 382.56 90.2108C382.033 90.3121 381.452 90.3627 380.817 90.3627ZM380.524 79.8284C379.464 79.8284 378.613 80.1796 377.971 80.8818C377.33 81.5774 376.955 82.5835 376.847 83.9003H383.654C383.654 82.6241 383.377 81.628 382.823 80.9122C382.269 80.1897 381.503 79.8284 380.524 79.8284ZM391.285 89.4714C391.92 89.4714 392.474 89.4174 392.947 89.3093V90.1196C392.46 90.2817 391.9 90.3627 391.265 90.3627C390.293 90.3627 389.574 90.1028 389.108 89.5828C388.648 89.0628 388.419 88.2457 388.419 87.1315V80.0209H386.788V79.4334L388.419 78.9776L388.925 76.4858H389.442V79.1498H392.673V80.0209H389.442V86.9897C389.442 87.8338 389.59 88.4585 389.888 88.8636C390.185 89.2688 390.651 89.4714 391.285 89.4714ZM402.634 90.1602L402.381 88.4179H402.3C401.747 89.127 401.176 89.6301 400.588 89.9272C400.008 90.2176 399.319 90.3627 398.522 90.3627C397.442 90.3627 396.601 90.0859 396 89.5321C395.399 88.9784 395.098 88.212 395.098 87.2328C395.098 86.1591 395.544 85.3252 396.435 84.7309C397.334 84.1367 398.63 83.8227 400.325 83.7889L402.422 83.7281V82.9988C402.422 81.9522 402.209 81.1621 401.784 80.6286C401.358 80.0951 400.673 79.8284 399.727 79.8284C398.708 79.8284 397.651 80.112 396.557 80.6793L396.182 79.8082C397.391 79.2409 398.586 78.9573 399.768 78.9573C400.977 78.9573 401.878 79.2713 402.472 79.8993C403.073 80.5273 403.374 81.5065 403.374 82.8368V90.1602H402.634ZM398.583 89.4511C399.758 89.4511 400.683 89.1169 401.358 88.4483C402.04 87.7731 402.381 86.8378 402.381 85.6425V84.5587L400.457 84.6398C398.91 84.714 397.806 84.9571 397.144 85.3691C396.489 85.7742 396.162 86.409 396.162 87.2733C396.162 87.9621 396.371 88.499 396.79 88.8839C397.215 89.262 397.813 89.4511 398.583 89.4511Z" fill="white"/>
</svg>
