<svg width="271" height="91" viewBox="0 0 271 91" fill="none" xmlns="http://www.w3.org/2000/svg">
<path d="M86.8869 33.0908H62.0625V57.909H86.8869V33.0908Z" fill="#E6E6E6"/>
<path fill-rule="evenodd" clip-rule="evenodd" d="M43.4427 90.9998C80.6789 90.9998 86.8855 66.1816 86.8855 66.1816H0C0 66.1816 6.2066 90.9998 43.4427 90.9998Z" fill="#E6E6E6"/>
<path d="M53.7854 0H28.9609V24.8182H53.7854V0Z" fill="#E6E6E6"/>
<path d="M122.052 34.7153V41.3636H93.0898V0H100.038V34.7153H122.052Z" fill="#E6E6E6"/>
<path d="M152.48 41.3636L150.143 33.9188H135.339L133.002 41.3636H126.191L139.176 0H146.304L159.291 41.3636H152.48ZM148.065 27.2705L142.726 10.3413L137.416 27.2705H148.065Z" fill="#E6E6E6"/>
<path d="M115.675 91.0004V73.6574H99.4662V91.0004H93.0897V49.6367H99.4662V67.0091H115.675V49.6367H122.051V91.0004H115.675Z" fill="#E6E6E6"/>
<path d="M155.153 91.0004H134.452C133.585 91.0004 132.755 90.6559 132.143 90.043L127.148 85.0444C126.536 84.4314 126.191 83.6004 126.191 82.7329V81.4517C126.191 80.5842 126.536 79.7531 127.148 79.1402L132.143 74.1416C132.755 73.5287 133.585 73.1841 134.452 73.1841H148.51V71.7072L145.498 68.6946H128.26V62.0459H146.894C147.758 62.0459 148.586 62.3887 149.199 62.9982L154.19 67.9725C154.806 68.5855 155.152 69.42 155.152 70.2892L155.153 91.0004ZM133.601 82.1079L135.845 84.3535H148.51V79.8328H135.845L133.601 82.1079Z" fill="#E6E6E6"/>
<path d="M168.795 68.6955L165.83 71.7078V81.3403L168.795 84.3526H184.113V91.0004H168.387C166.917 91.0004 165.508 90.4066 164.469 89.3506L160.912 85.7358C159.873 84.6798 159.289 83.2481 159.289 81.754V71.2698C159.289 69.7723 159.877 68.3371 160.921 67.2794L164.471 63.6871C165.51 62.6362 166.915 62.0459 168.38 62.0459H184.113V68.6938L168.795 68.6955Z" fill="#E6E6E6"/>
<path d="M199.796 73.3231L208.39 62.0458H216.665L205.612 76.6353L216.805 91.0003H208.434L199.796 79.9182H194.861V91.0003H188.25V49.6367H194.861V73.3231H199.796Z" fill="#E6E6E6"/>
<path d="M246.177 79.8334H223.865V81.3397L226.878 84.3522H244.108V91.0004H226.859C225.112 91.0004 223.435 90.3062 222.201 89.0718L219.144 86.016C217.909 84.7816 217.215 83.1056 217.215 81.3587V71.6668C217.215 69.9147 217.913 68.2354 219.154 66.9992L222.202 63.9642C223.437 62.735 225.108 62.0459 226.85 62.0459H236.562C238.309 62.0459 239.984 62.7402 241.22 63.9746L244.247 67.0009C245.482 68.2354 246.177 69.9113 246.177 71.6582V79.8334ZM223.865 71.7084V73.1852H239.527V71.7084L236.514 68.6959H226.88L223.865 71.7084Z" fill="#E6E6E6"/>
<path d="M194.456 17.3725L191.211 20.6818L194.456 24.0206V29.3854C194.456 32.5527 193.225 35.5918 191.034 37.8361C188.83 40.0943 185.835 41.3636 182.71 41.3636H163.426V0H182.71C185.835 0 188.829 1.26934 191.033 3.52576C193.225 5.77006 194.456 8.80921 194.456 11.9782V17.3725ZM170.67 16.9898H184.578L187.214 14.3005V10.0751L184.578 7.38748H170.67V16.9898ZM170.67 33.9779H184.578L187.214 31.2885V27.0649L184.578 24.3756H170.67V33.9779Z" fill="#E6E6E6"/>
<path d="M271 68.2504L264.591 62.0459H250.312V91.0004H256.519V68.2504H271Z" fill="#E6E6E6"/>
</svg>
