<svg width="77" height="26" viewBox="0 0 77 26" fill="none" xmlns="http://www.w3.org/2000/svg">
<path d="M24.0219 9.03113H17.0166V16.032H24.0219V9.03113Z" fill="white"/>
<path fill-rule="evenodd" clip-rule="evenodd" d="M11.9978 25.05C22.2803 25.05 23.9955 18.0579 23.9955 18.0579H0C0 18.0579 1.71522 25.05 11.9978 25.05Z" fill="white"/>
<path d="M15.0165 0H8.01562V7.02713H15.0165V0Z" fill="white"/>
<path d="M34.6544 9.5737V11.4071H27.0146V0H28.848V9.56933H34.6544V9.5737Z" fill="white"/>
<path d="M43.0996 11.407L42.4389 9.35482H38.2603L37.5996 11.407H35.6787L39.3454 0.00427246H41.3582L45.0249 11.407H43.0996ZM41.8526 7.52147L40.343 2.85275L38.8422 7.52147H41.8526Z" fill="white"/>
<path d="M33.5041 25.0106V20.2325H28.8441V25.015H27.0107V13.6079H28.8441V18.3991H33.5041V13.6079H35.3374V25.0106H33.5041Z" fill="white"/>
<path d="M44.1269 25.0105H38.4125C38.1718 25.0105 37.9443 24.9143 37.7736 24.748L36.3953 23.3697C36.2247 23.199 36.1328 22.9715 36.1328 22.7309V22.3764C36.1328 22.1358 36.2291 21.9083 36.3953 21.7376L37.7736 20.3593C37.9443 20.1887 38.1718 20.0968 38.4125 20.0968H42.2892V19.6899L41.4579 18.8585H36.8198V17.0251H41.8473C42.0836 17.0251 42.3155 17.1214 42.4817 17.2877L43.86 18.6572C44.0307 18.8279 44.1269 19.0554 44.1269 19.2961V25.0105ZM38.1806 22.5602L38.7975 23.1772H42.2936V21.9345H38.7975L38.1806 22.5602Z" fill="white"/>
<path d="M47.9118 18.8629L47.0804 19.6943V22.3502L47.9118 23.1816H52.2042V25.0149H47.798C47.3867 25.0149 46.9929 24.853 46.6998 24.5599L45.7021 23.5623C45.409 23.2691 45.2471 22.8753 45.2471 22.464V19.5718C45.2471 19.1605 45.4133 18.7623 45.7021 18.4735L46.6954 17.4846C46.9842 17.1958 47.378 17.0339 47.7893 17.0339H52.1998V18.8673H47.9118V18.8629Z" fill="white"/>
<path d="M56.6941 20.1012L59.0875 17.0296H61.411L58.3087 21.0201L61.411 25.0106H59.0875L56.6941 21.9302H55.3246V25.0106H53.4912V13.6079H55.3246V20.1012H56.6941Z" fill="white"/>
<path d="M69.5406 21.9345H63.3929V22.3502L64.2243 23.1816H68.858V25.0149H64.2199C63.7386 25.0149 63.2748 24.8224 62.9379 24.4811L62.0934 23.6366C61.7521 23.2953 61.5596 22.8359 61.5596 22.3546V19.6811C61.5596 19.1998 61.7521 18.736 62.0934 18.3947L62.9335 17.559C63.2748 17.2221 63.7342 17.0295 64.2155 17.0295H66.8934C67.3747 17.0295 67.8385 17.2221 68.1754 17.5634L69.0111 18.3991C69.3524 18.7404 69.5449 19.1998 69.5449 19.6811V21.9345H69.5406ZM63.3886 19.6943V20.1012H67.7072V19.6943L66.8759 18.8629H64.2199L63.3886 19.6943Z" fill="white"/>
<path d="M54.7385 4.79112L53.8284 5.70124L54.7385 6.6201V8.09904C54.7385 8.97415 54.3928 9.80988 53.7759 10.4268C53.1546 11.0482 52.3145 11.3982 51.435 11.3982H46.0137V0.00427246H51.435C52.3145 0.00427246 53.1546 0.354316 53.7759 0.975644C54.3928 1.5926 54.7385 2.4327 54.7385 3.30344V4.79112ZM48.0527 4.68611H51.96L52.6995 3.94664V2.78275L51.96 2.04328H48.0527V4.68611ZM48.0527 9.36795H51.96L52.6995 8.62848V7.46458L51.96 6.72512H48.0527V9.36795Z" fill="white"/>
<path d="M76.6905 18.8716L74.8484 17.0295H70.7441V25.0105H72.5775V18.8629L76.6905 18.8716Z" fill="white"/>
</svg>
