<svg width="84" height="26" viewBox="0 0 84 26" fill="none" xmlns="http://www.w3.org/2000/svg">
<path fill-rule="evenodd" clip-rule="evenodd" d="M56.6776 9.72886H58.9888L59.6115 11.6249H60.5817L58.323 5.18062H57.6823L55.2151 11.6249H56.0284L56.6776 9.72886ZM57.8724 6.13705H57.889C58.1921 7.29717 58.4862 8.1902 58.7892 9.0837H56.9111C57.2402 8.1902 57.5608 7.29717 57.8724 6.13705ZM57.2806 13.7612L54.8501 20.1089H55.6513L56.2906 18.2412H58.5682L59.1815 20.1089H60.1365L57.9105 13.7612H57.2806ZM56.522 17.6061C56.8457 16.7256 57.1604 15.846 57.4675 14.7037H57.4841C57.7827 15.846 58.0732 16.7261 58.3718 17.6061H56.522ZM55.0124 13.7612H50.3573V14.3962H52.2668V20.1089H53.094V14.3962H55.0124V13.7612ZM41.3196 13.7612H39.8186V20.1089H40.6462V14.3962H41.2174C42.1038 14.3962 42.4701 14.9035 42.4701 15.602C42.4701 16.5459 41.9666 16.9989 41.1658 17.0436L40.8937 17.0532V17.633H41.1564C42.4956 17.633 43.3569 16.6631 43.3569 15.5919C43.3573 14.3597 42.5808 13.7612 41.3196 13.7612ZM34.5367 9.72886H36.8483L37.4715 11.6249H38.4404L36.1816 5.18062H35.5409L33.0737 11.6249H33.8884L34.5367 9.72886ZM35.7324 6.13705H35.7481C36.0512 7.29717 36.3453 8.1902 36.6483 9.0837H34.7702C35.0998 8.1902 35.4199 7.29717 35.7324 6.13705ZM31.0311 11.7349C31.8107 11.7349 32.529 11.4405 32.9356 11.1455L32.6074 10.6123C32.2524 10.8702 31.7332 11.0917 31.0746 11.0917C29.7502 11.0917 28.6952 9.99547 28.6952 8.36602C28.6952 6.85618 29.5771 5.71432 31.0746 5.71432C31.7242 5.71432 32.373 6.02705 32.6586 6.27588L33.0051 5.72441C32.607 5.39198 32.0008 5.06965 31.1355 5.06965C28.9629 5.06965 27.768 6.76443 27.768 8.38427C27.7685 10.1602 28.8669 11.7349 31.0311 11.7349ZM30.09 13.7612H28.1805V20.1089H29.9537C32.0676 20.1089 33.3302 18.8489 33.3302 16.7453C33.3302 15.221 32.494 13.7612 30.09 13.7612ZM29.9286 19.4743H29.0082V14.3962H30.1075C31.6767 14.3962 32.4178 15.3118 32.4178 16.7261C32.4173 18.5847 31.6076 19.4743 29.9286 19.4743ZM35.8283 17.0801H37.8997V16.446H35.8283V14.3967H37.9423V13.7612H35.0011V20.1089H38.3099V19.4748H35.8283V17.0801ZM48.5662 17.7603C48.5662 18.6673 48.1904 19.6103 47.0741 19.6103C46.0084 19.6103 45.5479 18.9214 45.5479 17.6061V13.7612H44.7207V17.6422C44.7207 19.2745 45.3941 20.2175 47.0741 20.2175C48.5146 20.2175 49.3418 19.202 49.3418 17.7781V13.7612H48.5662V17.7603ZM46.8795 9.72886H49.1907L49.8139 11.6249H50.7832L48.524 5.18062H47.8833L45.4161 11.6249H46.2294L46.8795 9.72886ZM48.0739 6.13705H48.0918C48.3949 7.29717 48.689 8.1902 48.9907 9.0837H47.114C47.4422 8.1902 47.7623 7.29717 48.0739 6.13705ZM71.4962 11.7349C73.3657 11.7349 74.5256 10.216 74.5256 8.29204C74.5256 6.48773 73.2451 5.06917 71.4962 5.06917C69.7472 5.06917 68.4663 6.48773 68.4663 8.29204C68.4663 10.216 69.6266 11.7349 71.4962 11.7349ZM71.4962 5.71384C72.9927 5.71384 73.5989 7.08532 73.5989 8.29204C73.5989 9.55352 73.0627 11.0917 71.4962 11.0917C69.9283 11.0917 69.3921 9.554 69.3921 8.29204C69.3921 7.08532 69.9982 5.71384 71.4962 5.71384ZM68.1892 8.20845C68.1892 6.66211 67.3409 5.18062 64.8988 5.18062H62.9615V11.6249H64.7616C66.9087 11.6244 68.1892 10.3447 68.1892 8.20845ZM63.8004 10.9798V5.82433H64.9167C66.5097 5.82433 67.2625 6.75386 67.2625 8.18972C67.2625 10.0781 66.4407 10.9793 64.7352 10.9793H63.8004V10.9798ZM52.0027 8.95496H52.8949L54.2964 11.7349L55.1447 11.4597L53.6396 8.71621C54.2193 8.32038 54.6519 7.78524 54.6519 6.83793C54.6519 5.72393 53.8817 5.1811 52.8953 5.1811H51.1634V11.6254H52.0032V8.95496H52.0027ZM52.0027 5.82433H52.7209C53.2836 5.82433 53.7517 6.12793 53.7517 6.91911C53.7517 7.46242 53.5526 8.30981 52.4793 8.30981H52.0027V5.82433ZM35.7481 3.80769L36.6062 4.70072H37.1164L36.0359 3.30185H35.4719L34.3905 4.70072H34.8922L35.7481 3.80769ZM66.4451 16.7448C66.4451 15.221 65.6103 13.7612 63.2054 13.7612H61.295V20.1089H63.0691C65.1835 20.1089 66.4451 18.8484 66.4451 16.7448ZM62.1227 19.4743V14.3962H63.2225C64.7916 14.3962 65.5328 15.3118 65.5328 16.7261C65.5328 18.5851 64.7235 19.4743 63.044 19.4743H62.1227ZM76.9323 16.5267C76.1647 15.9373 75.7989 15.6015 75.7989 15.148C75.7989 14.659 76.1302 14.2867 76.7274 14.2867C77.0861 14.2867 77.4694 14.5139 77.7595 14.7402L78.1518 14.2867C77.8191 13.888 77.2999 13.6526 76.6763 13.6526C75.7478 13.6526 74.9708 14.2958 74.9708 15.1485C74.9708 16.0463 75.5258 16.4369 76.0199 16.8452C76.5064 17.2252 77.4013 17.7416 77.4013 18.54C77.4013 19.2471 76.9498 19.5824 76.3615 19.5824C75.7993 19.5824 75.4151 19.2927 75.0654 19.0295L74.6991 19.556C75.1255 20.0003 75.8074 20.2175 76.3795 20.2175C77.3344 20.2175 78.2293 19.5656 78.2293 18.5582C78.2289 17.7416 77.751 17.1613 76.9323 16.5267ZM70.725 13.6526C69.0038 13.6526 67.7413 15.0491 67.7413 16.8265C67.7413 18.7225 68.8841 20.2175 70.725 20.2175C72.5677 20.2175 73.7101 18.7225 73.7101 16.8265C73.7101 15.0486 72.4475 13.6526 70.725 13.6526ZM70.725 19.5824C69.1823 19.5824 68.6537 18.0678 68.6537 16.8265C68.6537 15.639 69.2508 14.2872 70.725 14.2872C72.1996 14.2872 72.7977 15.6395 72.7977 16.8265C72.7977 18.0678 72.2682 19.5824 70.725 19.5824ZM39.4962 6.37628H39.5132C39.7477 7.22367 41.0026 9.97673 41.7559 11.6249H42.0926C42.9072 9.97721 44.2832 7.13192 44.5257 6.37628H44.5427V11.6249H45.3829V5.18014H44.5943C43.7469 6.89173 42.8902 8.61389 42.0329 10.4273C41.2627 8.61389 40.4826 6.89173 39.7047 5.18014H38.804V11.6244H39.4967V6.37628H39.4962ZM76.3248 11.0912C75.7541 11.0912 75.3635 10.7963 75.0094 10.5282L74.6377 11.0629C75.0699 11.5135 75.7617 11.7344 76.3423 11.7344C77.3116 11.7344 78.2204 11.0715 78.2204 10.0502C78.2204 9.22109 77.7353 8.63215 76.9045 7.98748C76.1257 7.38892 75.7541 7.04833 75.7541 6.58861C75.7541 6.09094 76.0917 5.71384 76.6965 5.71384C77.061 5.71384 77.4501 5.94394 77.7442 6.17452L78.1424 5.71384C77.8048 5.30888 77.2766 5.06917 76.6453 5.06917C75.7016 5.06917 74.9148 5.72393 74.9148 6.58861C74.9148 7.49989 75.4774 7.89572 75.9782 8.31029C76.4723 8.697 77.382 9.22157 77.382 10.032C77.382 10.7492 76.9224 11.0912 76.3248 11.0912ZM0 25.2682H83.4328V0.130859H0V25.2682ZM0.841987 9.83742H2.11035V10.3125L0.841987 10.312V9.83742ZM0.841987 10.777H2.1099V18.392H0.841987V10.777ZM22.7161 24.3718H0.841538V19.9883H22.7161V24.3718ZM22.7161 14.0739H7.10308C8.56916 15.6337 11.6277 17.8261 14.3366 18.393H4.57578V2.79841H2.11035V9.36665H0.841987V1.02965H22.7161V14.0739ZM82.5904 24.3656H23.5352V1.02725H82.5904V24.3656Z" fill="white"/>
</svg>
